<svg xmlns="http://www.w3.org/2000/svg" width="149" height="30" fill="none"><path fill="#151617" d="M42.014 11.09v2.274h-6.57V11.09h6.57Zm-5.078-2.613h3.025v10.17c0 .28.043.498.128.654a.704.704 0 0 0 .355.32c.156.061.336.092.54.092.142 0 .284-.012.426-.035.142-.029.251-.05.327-.064l.476 2.251a8.515 8.515 0 0 1-.64.163 5.124 5.124 0 0 1-1 .121c-.73.029-1.37-.069-1.919-.291a2.676 2.676 0 0 1-1.27-1.037c-.304-.469-.453-1.06-.448-1.776V8.478Zm11.86 13.736c-1.103 0-2.057-.234-2.862-.703a4.81 4.81 0 0 1-1.853-1.975c-.436-.847-.654-1.83-.654-2.947 0-1.127.218-2.112.654-2.955a4.754 4.754 0 0 1 1.853-1.974c.805-.473 1.76-.71 2.863-.71s2.054.237 2.855.71a4.74 4.74 0 0 1 1.86 1.974c.436.843.654 1.828.654 2.955 0 1.117-.218 2.1-.654 2.947a4.797 4.797 0 0 1-1.86 1.975c-.8.469-1.752.703-2.855.703Zm.015-2.344c.502 0 .92-.142 1.257-.426.336-.289.59-.682.76-1.179.175-.497.263-1.063.263-1.697 0-.635-.088-1.2-.263-1.698-.17-.497-.424-.89-.76-1.179-.336-.288-.755-.433-1.257-.433-.507 0-.933.145-1.279.433-.34.29-.599.682-.774 1.18-.17.497-.256 1.062-.256 1.697 0 .634.086 1.2.256 1.697.175.497.433.89.774 1.18.346.283.772.425 1.279.425ZM56.19 22V7.455h3.026v5.468h.092a4 4 0 0 1 .575-.895c.256-.307.587-.563.994-.767.412-.208.924-.312 1.535-.312a4.1 4.1 0 0 1 2.201.625c.673.412 1.21 1.034 1.612 1.868.403.828.604 1.868.604 3.118 0 1.216-.196 2.244-.59 3.082-.388.833-.918 1.466-1.59 1.896a4.084 4.084 0 0 1-2.245.64c-.587 0-1.086-.098-1.498-.292a3.1 3.1 0 0 1-1.002-.731 3.714 3.714 0 0 1-.596-.902h-.135V22H56.19Zm2.962-5.454c0 .648.09 1.214.27 1.697.18.483.44.86.78 1.13.342.264.756.397 1.244.397.492 0 .909-.135 1.25-.405.34-.275.599-.653.774-1.136.18-.488.27-1.05.27-1.683 0-.63-.088-1.184-.263-1.662-.175-.479-.433-.853-.774-1.123s-.76-.404-1.257-.404c-.493 0-.91.13-1.25.39-.337.26-.595.63-.774 1.108-.18.478-.27 1.042-.27 1.69Zm14.668 5.667c-1.123 0-2.088-.227-2.898-.682a4.669 4.669 0 0 1-1.86-1.946c-.436-.843-.654-1.84-.654-2.99 0-1.122.218-2.107.653-2.954a4.83 4.83 0 0 1 1.84-1.982c.795-.473 1.728-.71 2.798-.71.72 0 1.39.116 2.01.348.625.227 1.17.57 1.633 1.03.47.459.834 1.037 1.094 1.733.26.69.39 1.5.39 2.429v.83h-9.21v-1.874h6.363c0-.436-.095-.822-.284-1.158a2.035 2.035 0 0 0-.789-.788 2.248 2.248 0 0 0-1.157-.292c-.46 0-.867.107-1.222.32a2.24 2.24 0 0 0-.824.845c-.199.35-.3.741-.305 1.172v1.783c0 .54.1 1.006.298 1.399.204.393.49.696.86.909.369.213.807.32 1.313.32.337 0 .644-.048.924-.142a1.842 1.842 0 0 0 1.171-1.123l2.799.185a3.822 3.822 0 0 1-.874 1.761c-.435.498-.999.886-1.69 1.165-.687.275-1.48.412-2.38.412ZM83.827 7.455V22H80.8V7.455h3.026ZM86.25 22V11.09h3.026V22H86.25Zm1.52-12.315c-.45 0-.835-.15-1.157-.448a1.45 1.45 0 0 1-.476-1.086c0-.417.158-.775.476-1.073a1.63 1.63 0 0 1 1.157-.454c.45 0 .834.151 1.15.454.323.298.484.656.484 1.073 0 .421-.161.783-.483 1.086-.317.299-.7.448-1.15.448Zm13.006 4.517-2.77.17a1.432 1.432 0 0 0-.305-.639 1.62 1.62 0 0 0-.618-.462 2.099 2.099 0 0 0-.902-.177c-.469 0-.864.1-1.186.298-.322.194-.483.455-.483.781 0 .26.104.48.313.66.208.18.565.325 1.072.434l1.974.398c1.061.218 1.852.568 2.373 1.05.52.484.781 1.118.781 1.904 0 .715-.211 1.343-.632 1.882-.417.54-.99.962-1.719 1.265-.724.298-1.56.447-2.507.447-1.444 0-2.595-.3-3.452-.902-.852-.606-1.352-1.43-1.498-2.471l2.975-.157c.09.44.308.777.654 1.009.346.227.788.34 1.328.34.53 0 .956-.101 1.278-.305.327-.208.493-.476.498-.802a.835.835 0 0 0-.348-.675c-.228-.18-.578-.317-1.052-.412l-1.889-.376c-1.065-.213-1.858-.583-2.379-1.108-.516-.526-.774-1.196-.774-2.01 0-.701.19-1.305.568-1.811.384-.507.92-.898 1.612-1.172.696-.275 1.51-.412 2.443-.412 1.378 0 2.463.291 3.253.873.796.583 1.26 1.376 1.392 2.38Zm7.957-3.111v2.273h-6.57V11.09h6.57Zm-5.079-2.614h3.026v10.17c0 .28.043.498.128.654a.701.701 0 0 0 .355.32c.156.061.336.092.54.092.142 0 .284-.012.426-.035.142-.029.251-.05.327-.064l.475 2.251a8.391 8.391 0 0 1-.639.163 5.113 5.113 0 0 1-1.001.121c-.729.029-1.369-.069-1.918-.291a2.678 2.678 0 0 1-1.271-1.037c-.303-.469-.452-1.06-.448-1.776V8.478Zm8.818 13.708a1.66 1.66 0 0 1-1.207-.497 1.658 1.658 0 0 1-.498-1.208c0-.464.166-.862.498-1.193a1.658 1.658 0 0 1 1.207-.497c.454 0 .852.166 1.193.497.341.331.511.73.511 1.193 0 .313-.08.6-.241.86a1.832 1.832 0 0 1-.618.617 1.627 1.627 0 0 1-.845.228Zm7.214-6.492V22h-3.025V11.09h2.883v1.926h.128a3.042 3.042 0 0 1 1.214-1.506c.569-.374 1.257-.561 2.067-.561.758 0 1.418.166 1.982.497a3.385 3.385 0 0 1 1.314 1.42c.312.611.468 1.34.468 2.188V22h-3.025v-6.406c.004-.668-.166-1.189-.512-1.563-.345-.379-.821-.568-1.427-.568-.407 0-.767.088-1.08.263-.307.175-.549.43-.724.767-.171.331-.258.731-.263 1.2Zm14.388 6.52c-1.123 0-2.089-.227-2.898-.682a4.671 4.671 0 0 1-1.861-1.946c-.436-.843-.653-1.84-.653-2.99 0-1.122.217-2.107.653-2.954a4.836 4.836 0 0 1 1.839-1.982c.796-.473 1.729-.71 2.799-.71.719 0 1.389.116 2.01.348.625.227 1.169.57 1.633 1.03.469.459.834 1.037 1.094 1.733.26.69.391 1.5.391 2.429v.83h-9.212v-1.874h6.364c0-.436-.095-.822-.284-1.158a2.042 2.042 0 0 0-.789-.788 2.248 2.248 0 0 0-1.158-.292c-.459 0-.866.107-1.221.32-.35.208-.625.49-.824.845-.199.35-.301.741-.305 1.172v1.783c0 .54.099 1.006.298 1.399.204.393.49.696.859.909.37.213.808.32 1.314.32.336 0 .644-.048.924-.142a1.842 1.842 0 0 0 1.171-1.123l2.799.185a3.825 3.825 0 0 1-.874 1.761c-.435.498-.999.886-1.69 1.165-.687.275-1.48.412-2.379.412Zm12.784-11.122v2.273h-6.57V11.09h6.57Zm-5.079-2.614h3.026v10.17c0 .28.043.498.128.654a.701.701 0 0 0 .355.32c.156.061.336.092.54.092.142 0 .284-.012.426-.035.142-.029.251-.05.327-.064l.475 2.251a8.391 8.391 0 0 1-.639.163 5.113 5.113 0 0 1-1.001.121c-.729.029-1.369-.069-1.918-.291a2.678 2.678 0 0 1-1.271-1.037c-.303-.469-.452-1.06-.448-1.776V8.478Z"/><rect width="23.682" height="4.81" fill="#195BFF" rx=".3" transform="matrix(.91047 -.41358 .2694 .96303 4.148 24.625)"/><rect width="23.682" height="4.81" fill="#195BFF" rx=".3" transform="matrix(.91047 -.41358 .2694 .96303 2.074 17.21)"/><rect width="23.682" height="4.81" fill="#195BFF" rx=".3" transform="matrix(.91047 -.41358 .2694 .96303 0 9.797)"/></svg>