<svg xmlns="http://www.w3.org/2000/svg" width="153" height="32" fill="none"><g clip-path="url(#a)"><path fill="url(#b)" d="M24 0H8a8 8 0 0 0-8 8v16a8 8 0 0 0 8 8h16a8 8 0 0 0 8-8V8a8 8 0 0 0-8-8Z"/><path fill="url(#c)" d="M24 0H8a8 8 0 0 0-8 8v16a8 8 0 0 0 8 8h16a8 8 0 0 0 8-8V8a8 8 0 0 0-8-8Z"/><g fill="#fff" fill-opacity=".9" filter="url(#d)"><path d="M11.133 22.051a.783.783 0 0 1 .417-.894l11.59-5.266a.54.54 0 0 1 .767.357l.418 1.493a.783.783 0 0 1-.417.895L12.318 23.9a.54.54 0 0 1-.768-.357l-.417-1.493Zm-1.23-3.812a.782.782 0 0 1 .417-.895l11.591-5.265a.54.54 0 0 1 .767.357l.417 1.492a.783.783 0 0 1-.416.895l-11.591 5.265a.54.54 0 0 1-.767-.357l-.418-1.492Zm-1.228-3.805a.783.783 0 0 1 .417-.895l11.59-5.265a.54.54 0 0 1 .767.357l.418 1.493a.782.782 0 0 1-.417.894L9.86 16.285a.54.54 0 0 1-.768-.357l-.417-1.493Z"/></g><path fill="#313234" d="M47.01 12.092v2.273h-6.57v-2.273h6.57ZM41.932 9.48h3.026v10.17c0 .28.042.497.127.653a.704.704 0 0 0 .355.32c.157.062.337.093.54.093.142 0 .284-.012.426-.036l.327-.064.476 2.252a8.515 8.515 0 0 1-.64.163 5.124 5.124 0 0 1-1 .12c-.73.029-1.37-.068-1.918-.29a2.676 2.676 0 0 1-1.272-1.038c-.303-.468-.452-1.06-.447-1.775V9.479Zm11.86 13.736c-1.102 0-2.057-.235-2.861-.704a4.81 4.81 0 0 1-1.854-1.974c-.436-.848-.654-1.83-.654-2.947 0-1.127.218-2.112.654-2.955a4.754 4.754 0 0 1 1.854-1.974c.804-.474 1.759-.71 2.862-.71 1.103 0 2.055.236 2.855.71a4.74 4.74 0 0 1 1.86 1.974c.436.843.654 1.828.654 2.955 0 1.117-.218 2.1-.653 2.947a4.797 4.797 0 0 1-1.861 1.974c-.8.47-1.752.704-2.855.704Zm.015-2.344c.502 0 .92-.142 1.257-.426.336-.29.59-.682.76-1.18.175-.497.263-1.062.263-1.697 0-.634-.088-1.2-.263-1.697-.17-.497-.424-.89-.76-1.18-.336-.288-.755-.433-1.257-.433-.507 0-.933.145-1.279.434-.34.289-.598.682-.774 1.179-.17.497-.255 1.063-.255 1.697 0 .635.085 1.2.255 1.698.176.497.434.89.775 1.179.345.284.771.426 1.278.426Zm7.38 2.13V8.456h3.025v5.469h.092a4 4 0 0 1 .575-.895 3.02 3.02 0 0 1 .995-.767c.412-.209.923-.313 1.534-.313a4.1 4.1 0 0 1 2.201.625c.673.412 1.21 1.035 1.613 1.868.402.829.603 1.868.603 3.118 0 1.217-.196 2.244-.59 3.082-.387.834-.918 1.466-1.59 1.897a4.084 4.084 0 0 1-2.244.639c-.587 0-1.087-.097-1.499-.291a3.1 3.1 0 0 1-1.001-.732 3.714 3.714 0 0 1-.597-.902h-.135v1.747h-2.983Zm2.96-5.454c0 .648.09 1.214.27 1.697.18.483.441.86.782 1.13.34.265.755.397 1.243.397.492 0 .909-.135 1.25-.405.34-.274.599-.653.774-1.136.18-.488.27-1.049.27-1.683 0-.63-.088-1.184-.263-1.662-.175-.478-.433-.852-.774-1.122-.34-.27-.76-.405-1.257-.405-.493 0-.91.13-1.25.39-.336.261-.594.63-.774 1.109-.18.478-.27 1.041-.27 1.69Zm14.669 5.668c-1.122 0-2.088-.228-2.898-.682a4.668 4.668 0 0 1-1.86-1.946c-.436-.843-.654-1.84-.654-2.99 0-1.123.218-2.107.653-2.955a4.83 4.83 0 0 1 1.84-1.981c.795-.474 1.728-.71 2.798-.71.72 0 1.39.115 2.01.347.625.227 1.17.57 1.633 1.03.47.46.834 1.037 1.094 1.733.26.691.39 1.501.39 2.429v.831h-9.21v-1.875h6.363c0-.436-.095-.822-.284-1.158a2.035 2.035 0 0 0-.789-.788 2.248 2.248 0 0 0-1.157-.291c-.46 0-.867.106-1.222.32a2.24 2.24 0 0 0-.824.845c-.198.35-.3.74-.305 1.171v1.783c0 .54.1 1.006.298 1.4.204.392.49.695.86.908.369.213.807.32 1.313.32.337 0 .645-.047.924-.142a1.92 1.92 0 0 0 .717-.426c.199-.19.35-.422.455-.696l2.798.184a3.822 3.822 0 0 1-.874 1.762c-.435.497-.999.885-1.69 1.164-.686.275-1.48.413-2.38.413Zm10.007-14.76v14.546h-3.026V8.456h3.026Zm2.424 14.546v-10.91h3.025v10.91h-3.026Zm1.52-12.315c-.45 0-.836-.15-1.158-.447a1.45 1.45 0 0 1-.476-1.087c0-.417.159-.774.476-1.072a1.63 1.63 0 0 1 1.157-.455c.45 0 .834.152 1.151.455.322.298.483.655.483 1.072 0 .421-.16.784-.483 1.087a1.62 1.62 0 0 1-1.15.447Zm13.005 4.517-2.77.17a1.43 1.43 0 0 0-.305-.639 1.616 1.616 0 0 0-.618-.461 2.097 2.097 0 0 0-.902-.178c-.469 0-.864.1-1.186.298-.322.195-.483.455-.483.782 0 .26.104.48.313.66.208.18.565.325 1.072.433l1.975.398c1.06.218 1.851.568 2.372 1.051.521.483.781 1.118.781 1.904 0 .715-.211 1.342-.632 1.882-.417.54-.99.961-1.719 1.264-.724.298-1.56.448-2.507.448-1.444 0-2.595-.301-3.452-.902-.852-.607-1.352-1.43-1.498-2.472l2.976-.156c.09.44.307.776.653 1.008.346.227.788.341 1.328.341.53 0 .957-.102 1.279-.305.326-.209.492-.476.497-.803a.836.836 0 0 0-.348-.675c-.228-.18-.578-.317-1.051-.412l-1.89-.376c-1.065-.213-1.858-.582-2.379-1.108-.516-.526-.774-1.195-.774-2.01 0-.7.19-1.304.568-1.81.384-.508.921-.898 1.612-1.173.696-.274 1.511-.412 2.443-.412 1.378 0 2.463.292 3.253.874.796.582 1.26 1.375 1.392 2.38Zm7.957-3.11v2.272h-6.57v-2.273h6.57Zm-5.078-2.614h3.025v10.17c0 .28.043.497.128.653a.705.705 0 0 0 .355.32c.156.062.336.093.54.093.142 0 .284-.012.426-.036l.327-.064.476 2.252a8.567 8.567 0 0 1-.64.163 5.113 5.113 0 0 1-1.001.12c-.729.029-1.368-.068-1.918-.29a2.678 2.678 0 0 1-1.271-1.038c-.303-.468-.452-1.06-.447-1.775V9.479Zm8.817 13.707a1.66 1.66 0 0 1-1.207-.497 1.658 1.658 0 0 1-.498-1.207c0-.465.166-.862.498-1.194a1.658 1.658 0 0 1 1.207-.497c.455 0 .852.166 1.193.497.341.332.512.73.512 1.194 0 .312-.081.599-.242.859a1.832 1.832 0 0 1-.618.618 1.624 1.624 0 0 1-.845.227Zm7.214-6.491V23h-3.025V12.092h2.883v1.925h.128a3.042 3.042 0 0 1 1.214-1.506c.569-.374 1.258-.56 2.067-.56.758 0 1.418.165 1.982.496a3.385 3.385 0 0 1 1.314 1.42c.312.612.468 1.34.468 2.188v6.946h-3.025v-6.406c.005-.667-.166-1.188-.512-1.562-.345-.38-.821-.569-1.427-.569-.407 0-.767.088-1.08.263a1.834 1.834 0 0 0-.724.767c-.17.332-.258.732-.263 1.2Zm14.388 6.52c-1.123 0-2.088-.228-2.898-.682a4.671 4.671 0 0 1-1.861-1.946c-.436-.843-.653-1.84-.653-2.99 0-1.123.217-2.107.653-2.955a4.832 4.832 0 0 1 1.84-1.981c.795-.474 1.728-.71 2.798-.71.72 0 1.39.115 2.01.347.625.227 1.169.57 1.633 1.03.469.46.834 1.037 1.094 1.733.26.691.391 1.501.391 2.429v.831h-9.212v-1.875h6.364c0-.436-.095-.822-.284-1.158a2.042 2.042 0 0 0-.789-.788 2.246 2.246 0 0 0-1.157-.291c-.46 0-.867.106-1.222.32-.35.208-.625.49-.824.845-.199.35-.301.74-.305 1.171v1.783c0 .54.099 1.006.298 1.4.204.392.49.695.859.908.37.213.808.32 1.314.32.336 0 .644-.047.924-.142.279-.095.518-.237.717-.426.199-.19.35-.422.454-.696l2.799.184a3.815 3.815 0 0 1-.874 1.762c-.435.497-.999.885-1.69 1.164-.687.275-1.48.413-2.379.413Zm12.784-11.123v2.273h-6.57v-2.273h6.57Zm-5.078-2.613h3.025v10.17c0 .28.043.497.128.653a.705.705 0 0 0 .355.32c.156.062.336.093.54.093.142 0 .284-.012.426-.036l.327-.064.476 2.252a8.567 8.567 0 0 1-.64.163 5.113 5.113 0 0 1-1.001.12c-.729.029-1.368-.068-1.918-.29a2.678 2.678 0 0 1-1.271-1.038c-.303-.468-.452-1.06-.447-1.775V9.479Z"/></g><defs><linearGradient id="b" x1="23.556" x2="2.222" y1="0" y2="32" gradientUnits="userSpaceOnUse"><stop offset=".083" stop-color="#808BF7"/><stop offset="1" stop-color="#483DD0"/></linearGradient><linearGradient id="c" x1="23.556" x2="2.222" y1="0" y2="32" gradientUnits="userSpaceOnUse"><stop offset=".083" stop-color="#2463FF"/><stop offset="1" stop-color="#195BFF"/></linearGradient><clipPath id="a"><path fill="#fff" d="M0 0h153v32H0z"/></clipPath><filter id="d" width="21.701" height="21.734" x="5.649" y="6.219" color-interpolation-filters="sRGB" filterUnits="userSpaceOnUse"><feFlood flood-opacity="0" result="BackgroundImageFix"/><feColorMatrix in="SourceAlpha" result="hardAlpha" values="0 0 0 0 0 0 0 0 0 0 0 0 0 0 0 0 0 0 127 0"/><feOffset dy="1"/><feGaussianBlur stdDeviation="1.5"/><feColorMatrix values="0 0 0 0 0.0745098 0 0 0 0 0.101961 0 0 0 0 0.160784 0 0 0 0.3 0"/><feBlend in2="BackgroundImageFix" result="effect1_dropShadow_1452_5273"/><feBlend in="SourceGraphic" in2="effect1_dropShadow_1452_5273" result="shape"/></filter></defs></svg>