<svg width="64" height="64" viewBox="0 0 64 64" fill="none" xmlns="http://www.w3.org/2000/svg">
<path d="M11.5416 55.2959C11.1021 53.7264 11.9499 51.9077 13.4352 51.2336L57.0464 31.4421C58.5316 30.768 60.0919 31.494 60.5314 33.0635L61.884 37.8944C62.3235 39.4639 61.4757 41.2826 59.9905 41.9567L16.3793 61.7482C14.894 62.4223 13.3337 61.6963 12.8943 60.1268L11.5416 55.2959Z" fill="#195BFF"/>
<path d="M6.8288 40.7008C6.38934 39.1313 7.2371 37.3125 8.72235 36.6385L52.3335 16.8469C53.8188 16.1729 55.3791 16.8988 55.8185 18.4683L57.1712 23.2992C57.6107 24.8687 56.7629 26.6875 55.2777 27.3615L11.6665 47.1531C10.1812 47.8271 8.62093 47.1012 8.18146 45.5317L6.8288 40.7008Z" fill="#195BFF"/>
<path d="M2.11599 26.1056C1.67652 24.5361 2.52429 22.7174 4.00953 22.0433L47.6207 2.25177C49.106 1.57774 50.6663 2.30367 51.1057 3.87318L52.4584 8.70406C52.8979 10.2736 52.0501 12.0923 50.5648 12.7664L6.95364 32.5579C5.46839 33.232 3.90811 32.506 3.46864 30.9365L2.11599 26.1056Z" fill="#195BFF"/>
</svg>
