<svg width="68" height="68" viewBox="0 0 68 68" fill="none" xmlns="http://www.w3.org/2000/svg">
<g filter="url(#filter0_d_2318_6345)">
<path d="M2 17C2 8.16344 9.16344 1 18 1H50C58.8366 1 66 8.16344 66 17V49C66 57.8366 58.8366 65 50 65H18C9.16344 65 2 57.8366 2 49V17Z" fill="#195BFF"/>
<path d="M22.5659 46.0893C22.3096 45.1737 22.8041 44.1128 23.6705 43.7196L49.1104 32.1745C49.9768 31.7814 50.8869 32.2048 51.1433 33.1204L51.9323 35.9384C52.1887 36.8539 51.6942 37.9149 50.8278 38.3081L25.3879 49.8531C24.5215 50.2463 23.6113 49.8229 23.355 48.9073L22.5659 46.0893Z" fill="white"/>
<path d="M19.8168 37.5755C19.5604 36.6599 20.055 35.599 20.9214 35.2058L46.3612 23.6607C47.2276 23.2675 48.1378 23.691 48.3941 24.6065L49.1832 27.4245C49.4396 28.3401 48.945 29.401 48.0786 29.7942L22.6388 41.3393C21.7724 41.7325 20.8622 41.309 20.6059 40.3935L19.8168 37.5755Z" fill="white"/>
<path d="M17.0677 29.0616C16.8113 28.1461 17.3058 27.0851 18.1722 26.6919L43.6121 15.1469C44.4785 14.7537 45.3887 15.1771 45.645 16.0927L46.4341 18.9107C46.6904 19.8263 46.1959 20.8872 45.3295 21.2804L19.8896 32.8255C19.0232 33.2186 18.1131 32.7952 17.8567 31.8796L17.0677 29.0616Z" fill="white"/>
</g>
<defs>
<filter id="filter0_d_2318_6345" x="0" y="0" width="68" height="68" filterUnits="userSpaceOnUse" color-interpolation-filters="sRGB">
<feFlood flood-opacity="0" result="BackgroundImageFix"/>
<feColorMatrix in="SourceAlpha" type="matrix" values="0 0 0 0 0 0 0 0 0 0 0 0 0 0 0 0 0 0 127 0" result="hardAlpha"/>
<feOffset dy="1"/>
<feGaussianBlur stdDeviation="1"/>
<feColorMatrix type="matrix" values="0 0 0 0 0.0745098 0 0 0 0 0.101961 0 0 0 0 0.160784 0 0 0 0.06 0"/>
<feBlend mode="normal" in2="BackgroundImageFix" result="effect1_dropShadow_2318_6345"/>
<feBlend mode="normal" in="SourceGraphic" in2="effect1_dropShadow_2318_6345" result="shape"/>
</filter>
</defs>
</svg>
