<svg width="88" height="88" viewBox="0 0 88 88" fill="none" xmlns="http://www.w3.org/2000/svg">
<g filter="url(#filter0_d_8_390)">
<path d="M44.0002 77.3332C25.5907 77.3332 10.6668 62.4093 10.6668 43.9998C10.6668 25.5903 25.5907 10.6665 44.0002 10.6665C62.4097 10.6665 77.3335 25.5903 77.3335 43.9998C77.3335 62.4093 62.4097 77.3332 44.0002 77.3332Z" fill="white"/>
</g>
<path d="M30.5665 42.2333L40.5665 32.2333C41.5332 31.2666 43.1332 31.2666 44.0998 32.2333C45.0665 33.2 45.0665 34.8 44.0998 35.7666L38.3665 41.5H55.6665C57.0332 41.5 58.1665 42.6333 58.1665 44C58.1665 45.3666 57.0332 46.5 55.6665 46.5H38.3665L44.0998 52.2333C45.0665 53.2 45.0665 54.8 44.0998 55.7666C43.5998 56.2666 42.9665 56.5 42.3332 56.5C41.6998 56.5 41.0665 56.2666 40.5665 55.7666L30.5665 45.7666C29.5998 44.8 29.5998 43.2 30.5665 42.2333Z" fill="#195BFF"/>
<defs>
<filter id="filter0_d_8_390" x="0.666992" y="0.666504" width="86.6665" height="86.6665" filterUnits="userSpaceOnUse" color-interpolation-filters="sRGB">
<feFlood flood-opacity="0" result="BackgroundImageFix"/>
<feColorMatrix in="SourceAlpha" type="matrix" values="0 0 0 0 0 0 0 0 0 0 0 0 0 0 0 0 0 0 127 0" result="hardAlpha"/>
<feOffset/>
<feGaussianBlur stdDeviation="5"/>
<feComposite in2="hardAlpha" operator="out"/>
<feColorMatrix type="matrix" values="0 0 0 0 0.7875 0 0 0 0 0.7875 0 0 0 0 0.7875 0 0 0 0.7 0"/>
<feBlend mode="normal" in2="BackgroundImageFix" result="effect1_dropShadow_8_390"/>
<feBlend mode="normal" in="SourceGraphic" in2="effect1_dropShadow_8_390" result="shape"/>
</filter>
</defs>
</svg>
