<svg width="315" height="270" viewBox="0 0 315 270" fill="none" xmlns="http://www.w3.org/2000/svg">
<path d="M139.454 110.482C143.262 112.967 144.793 116.181 144.047 120.126C140.481 125.47 138.698 130.099 138.698 134.011C138.698 137.923 138.43 143.011 137.893 149.277L108.257 149.903L108.194 149.865C107.402 149.88 106.624 149.893 105.858 149.903C99.2623 149.988 93.4104 150.862 93.1342 150.905C90.9746 151.24 87.0824 147.233 86.0023 145.876C84.2667 143.694 83.4417 141.113 83.075 138.303C82.729 135.653 83.217 133.189 84.1752 130.827C85.2946 128.068 87.0469 125.679 89.2686 123.576C91.7048 121.342 94.3283 119.519 97.2693 118.175C97.3834 118.122 99.4942 117.083 99.5955 117.097C99.6631 117.106 103.038 118.187 107.731 120.38C113.057 116.594 118.819 112.587 125.015 108.361C130.834 107.29 135.647 107.997 139.454 110.482Z" fill="white"/>
<path fill-rule="evenodd" clip-rule="evenodd" d="M101.106 174.981C105.766 175.94 108.575 174.112 109.534 169.495C110.972 162.57 102.284 163.808 99.6256 160.244C96.9668 156.679 102.864 155.965 109.534 158.104C116.21 157.812 118.137 158.194 118.52 156.353C118.904 154.512 115.426 153.352 106.136 153.656C96.8455 153.959 98.212 153.972 98.9188 161.733C99.39 166.908 100.119 171.324 101.106 174.981Z" fill="white"/>
<path d="M216.919 189.77C213.338 186.807 210.815 184.943 209.463 183.752C206.234 180.906 202.926 178.15 199.669 175.336C198.999 174.758 198.349 174.135 197.798 173.446C197.106 172.581 197.264 171.985 198.356 171.564C199.217 171.231 200.159 171.079 201.079 170.932C203.821 170.493 206.568 170.084 209.318 169.69C210.525 169.517 211.743 169.415 212.955 169.265C213.171 169.238 213.378 169.13 213.589 169.059C213.484 168.889 213.404 168.695 213.27 168.552C212.21 167.406 211.139 166.269 210.071 165.131C209.977 165.031 209.877 164.936 209.78 164.838C209.932 164.802 210.082 164.753 210.236 164.73C213.05 164.315 215.865 163.897 218.681 163.492C220.53 163.226 222.379 162.95 224.234 162.732C226.132 162.509 228.036 162.328 229.941 162.171C231.645 162.03 233.355 161.971 235.059 161.829C236.15 161.738 237.231 161.523 238.323 161.435C239.687 161.324 241.059 161.307 242.425 161.213C244.132 161.097 245.835 160.925 247.541 160.811C248.976 160.715 250.416 160.689 251.85 160.592C253.007 160.514 254.159 160.344 255.316 160.273C256.447 160.205 257.583 160.212 258.716 160.186C261.651 160.117 264.586 160.034 267.521 159.985C269.317 159.955 271.128 159.844 272.904 160.035C273.83 160.135 274.888 160.613 275.548 161.265C277.216 162.912 278.694 164.751 280.245 166.517C281.195 167.6 282.147 168.681 283.083 169.777C285.054 172.087 287.011 174.409 288.984 176.717C289.597 177.434 290.253 178.114 290.868 178.828C291.045 179.033 291.148 179.301 291.285 179.541C291.091 179.382 290.513 178.887 290.705 179.062C309.739 196.378 229.581 200.06 216.919 189.77Z" fill="white"/>
<path d="M0.0987614 125.784C0.16365 124.001 0.218815 122.218 0.288044 120.435C0.310411 119.859 0.375559 119.285 0.411121 118.709C0.706411 113.929 1.27432 109.179 2.4976 104.545C3.47377 100.847 4.76274 97.2502 6.32937 93.7368C8.11639 89.7291 10.289 85.9605 12.7924 82.3773C14.0678 80.5517 15.4608 78.7923 16.943 77.1283C18.7264 75.1263 20.5587 73.144 22.5572 71.3608C24.8389 69.3251 27.2909 67.4697 29.7532 65.6488C30.3015 65.2434 31.2706 65.0457 31.9249 65.215C33.0737 65.5122 33.2398 66.5109 32.3611 67.2736C30.3657 69.0053 29.4162 71.216 29.27 73.7835C29.1892 75.2017 29.322 76.6318 29.2433 78.0502C28.9838 82.7259 30.3491 87.0298 32.3711 91.1354C34.3042 95.0606 37.119 98.2931 41.1579 100.182C43.4754 101.265 45.9538 102.025 48.3943 102.827C50.5142 103.523 52.6864 104.061 54.8289 104.691C56.9308 105.309 59.0012 105.869 61.2282 105.127C62.3707 104.746 63.2279 105.768 62.7904 106.875C61.136 111.062 59.7263 115.408 56.8202 118.938C55.077 121.056 53.0601 123.016 50.9027 124.716C47.7353 127.212 44.0933 128.992 40.4554 130.745C36.9071 132.455 33.4388 134.331 29.8748 136.007C25.8598 137.894 21.7911 139.671 17.7196 141.437C14.4349 142.862 11.119 144.216 7.79969 145.56C7.006 145.881 6.15582 146.106 5.30994 146.246C4.46241 146.387 2.60048 145.058 2.26786 144.179C1.42375 141.95 0.849964 139.658 0.613006 137.282C0.468801 135.837 0.274701 134.396 0.051507 132.953C1.04308e-08 132.85 -1.39078e-08 132.748 0.0515063 132.594C0.13735 130.617 0.173354 128.691 0.197271 126.765C0.197929 126.712 0.0686746 126.657 0 126.603C0 126.364 0 126.125 0 125.835C0.0343303 125.784 0.0987163 125.785 0.0987614 125.784Z" fill="white"/>
<path fill-rule="evenodd" clip-rule="evenodd" d="M137.538 149.213L199.908 147.624H202.466C206.196 150.402 210.288 151.599 214.742 151.216C221.423 150.64 227.323 143.266 228.701 132.985C228.904 132.183 229.396 131.991 230.178 132.407C231.039 134.085 232.566 134.817 234.76 134.603C235.713 134.501 236.243 134.723 236.781 135.757C237.319 136.791 240.162 138.092 241.944 137.048C243.726 136.004 251.942 122.696 251.942 120.457C251.942 118.218 252.403 113.327 252.766 113.011C253.128 112.695 253.811 112.952 255.135 112.532C256.459 112.112 257.592 112.53 261.838 101.385C266.083 90.2403 272.579 73.58 273.271 61.914C273.963 50.248 265.723 54.3713 261.838 59.2394C257.953 64.1075 247.123 76.6423 237.1 83.449C235.874 84.3651 234.873 84.7957 234.097 84.741C233.632 81.8439 231.727 80.7644 228.382 81.5026C227.082 81.7363 226.018 80.7086 225.19 78.4195C223.045 66.5361 218.156 57.9373 210.523 52.6231C199.074 44.6517 179.565 40.0963 174.871 56.7632C171.741 67.8745 173.623 81.3738 180.515 97.2613L177.645 99.7449C166.354 103.651 157.13 108.473 149.973 114.21C139.238 122.817 139.033 131.212 138.463 138.136C138.083 142.753 137.775 146.445 137.538 149.213Z" fill="white"/>
<path d="M114.459 101.226C114.555 100.324 114.598 99.415 114.702 98.5135C114.708 98.465 115.166 98.3613 115.298 98.452C116.526 99.2953 117.74 100.16 118.93 101.056C119.252 101.299 119.277 101.54 119.424 100.905C119.652 99.9113 121.066 99.6338 121.912 100.34C123.853 101.959 124.833 104.135 125.543 106.502C126.159 108.555 125.915 110.642 125.975 112.716C126.013 114.048 127.26 115.052 128.569 115.106C129.537 115.145 130.554 115.57 131.425 116.05C133.531 117.212 134.886 119.045 135.551 121.354C136.268 123.841 135.601 126.055 134.16 128.121C132.849 130 131.655 131.968 129.753 133.346C128.7 134.109 127.488 134.741 126.664 135.704C125.779 136.738 124.764 137.412 123.559 137.877C120.591 139.022 117.348 137.536 115.895 135.062C114.36 131.797 108.881 134.458 106.758 129.641C105.686 128.052 105.269 126.719 105.5 126.586C105.783 126.423 105.392 126.012 104.893 125.487C102.713 123.197 100.776 120.717 99.4515 117.813C99.2422 117.355 99.0266 116.882 98.9351 116.393C98.879 116.093 98.9627 115.664 99.1574 115.457C99.2798 115.327 99.7672 115.42 100.014 115.555C100.383 115.757 100.676 116.094 101.017 116.354C101.599 116.796 101.921 116.608 101.764 115.918C101.316 113.959 101.728 112.1 102.417 110.302C102.788 109.333 103.393 108.449 103.954 107.566C104.007 107.482 104.547 107.609 104.782 107.761C105.217 108.042 105.595 108.415 105.996 108.749C106.023 108.214 106.032 107.677 106.084 107.144C106.115 106.827 106.193 106.51 106.289 106.206C106.77 104.68 107.028 104.603 108.302 105.56C108.472 105.688 108.677 105.771 108.866 105.876C108.892 105.682 108.926 105.488 108.942 105.293C109.083 103.616 108.747 102.095 107.521 100.85C107.507 100.835 107.773 100.398 107.926 100.386C109.691 100.247 111.457 100.174 113.072 101.117C113.402 101.31 113.732 101.504 114.113 101.749C114.266 101.609 114.438 101.426 114.459 101.226Z" fill="white"/>
<path fill-rule="evenodd" clip-rule="evenodd" d="M140.641 39.552C135.427 43.8734 133.063 50.1296 133.548 58.3207C134.275 70.6073 148.569 79.3607 155.483 75.6556C162.397 71.9506 170.031 66.5532 170.942 55.0644C171.33 65.9968 172.476 71.3176 157.736 79.2459C142.996 87.1743 127.587 74.8722 125.358 69.8016C123.129 64.7311 117.764 53.5373 128.653 40.5511C130.144 38.8336 134.14 38.5006 140.641 39.552Z" fill="white"/>
<path fill-rule="evenodd" clip-rule="evenodd" d="M264.873 183.308C266.134 183.169 267.296 183.059 268.449 182.887C271.069 182.499 273.683 182.071 276.302 181.677C277.861 181.443 279.443 181.329 280.979 180.997C282.057 180.765 283.034 180.916 284.027 181.243C284.186 181.295 284.308 181.461 284.448 181.575C284.28 181.669 284.121 181.824 283.944 181.847C281.641 182.137 279.333 182.38 277.033 182.694C274.721 183.01 272.421 183.41 270.111 183.74C268.501 183.971 266.882 184.134 265.27 184.349C264.429 184.461 263.598 184.642 262.758 184.754C261.568 184.913 260.371 185.018 259.182 185.179C257.786 185.367 256.397 185.6 255.002 185.793C253.881 185.948 252.754 186.061 251.632 186.214C250.203 186.409 248.778 186.631 247.35 186.831C246.296 186.979 245.241 187.112 244.185 187.247C243.074 187.389 241.958 187.5 240.851 187.672C240.181 187.776 239.565 187.771 239.366 187C239.185 186.297 239.544 185.746 240.228 185.595C241.166 185.387 242.128 185.273 243.086 185.183C244.222 185.076 245.365 185.03 246.506 184.968C247.91 184.893 249.317 184.854 250.719 184.752C252.211 184.645 253.699 184.473 255.19 184.347C256.943 184.198 258.7 184.09 260.452 183.921C261.362 183.833 262.263 183.649 263.17 183.517C263.702 183.439 264.236 183.377 264.873 183.308Z" fill="#E7EAEE"/>
<path fill-rule="evenodd" clip-rule="evenodd" d="M237.512 173.595C238.774 173.527 239.934 173.479 241.091 173.385C242.32 173.286 243.543 173.12 244.772 173.025C246.152 172.918 247.536 172.875 248.916 172.772C250.481 172.655 252.043 172.491 253.608 172.371C254.765 172.282 255.927 172.25 257.084 172.157C258.535 172.041 259.982 171.874 261.433 171.758C262.59 171.665 263.752 171.636 264.909 171.543C266.438 171.421 267.962 171.193 269.492 171.142C271.238 171.084 272.992 170.54 274.736 171.143C274.944 171.214 275.133 171.341 275.33 171.442C275.143 171.477 274.956 171.526 274.766 171.546C273.443 171.686 272.117 171.806 270.795 171.961C269.189 172.15 267.589 172.397 265.981 172.561C264.805 172.681 263.616 172.673 262.439 172.785C260.825 172.939 259.218 173.171 257.605 173.333C256.434 173.451 255.256 173.5 254.083 173.598C252.553 173.725 251.023 173.864 249.494 174.006C248.101 174.136 246.708 174.266 245.316 174.417C243.54 174.61 241.768 174.846 239.99 175.022C238.304 175.189 236.609 175.282 234.922 175.445C233.748 175.558 232.584 175.774 231.409 175.866C230.95 175.902 230.44 175.803 230.019 175.616C229.719 175.483 229.529 175.101 229.29 174.83C229.594 174.623 229.883 174.265 230.203 174.234C232.15 174.048 234.105 173.943 236.056 173.795C236.51 173.761 236.959 173.664 237.512 173.595Z" fill="#E7EAEE"/>
<path fill-rule="evenodd" clip-rule="evenodd" d="M130.208 199.418C130.102 199.503 130.047 199.567 129.994 199.566C129.512 199.552 129.031 199.526 128.549 199.504C129.009 199.186 129.429 198.698 129.936 198.582C131.931 198.125 133.728 197.32 135.392 196.132C137.567 194.58 138.91 192.544 139.398 189.943C139.473 189.543 139.361 189.363 138.877 189.366C138.187 189.37 137.495 189.257 136.806 189.179C135.457 189.026 134.383 188.072 134.265 186.935C134.189 186.206 135.284 184.678 136.093 184.284C137.974 183.368 140.064 185.178 140.599 186.745C140.814 187.376 140.917 187.147 141.201 186.887C142.543 185.66 142.983 184.084 142.876 182.354C142.762 180.504 141.947 179.016 140.343 177.976C139.786 177.615 139.573 177.101 140.004 176.446C140.474 175.731 141.779 175.683 142.289 176.315C142.978 177.169 143.582 178.154 143.962 179.178C144.884 181.662 144.648 184.076 143.097 186.298C142.986 186.457 142.895 186.64 142.752 186.765C141.534 187.822 140.878 189.138 140.383 190.688C138.914 195.285 135.544 197.999 130.976 199.358C130.756 199.424 130.499 199.367 130.208 199.418ZM136.422 185.513C135.54 186.035 135.299 187.534 136.134 187.795C137.098 188.096 138.212 187.93 139.261 187.94C139.306 187.94 139.382 187.676 139.396 187.531C139.533 186.122 138.211 185.149 136.422 185.513Z" fill="#195BFF"/>
<path fill-rule="evenodd" clip-rule="evenodd" d="M253.27 178.09C256.181 177.814 258.986 177.516 261.796 177.268C263.788 177.093 265.786 177.003 267.779 176.84C269.008 176.739 270.233 176.577 271.459 176.431C273.151 176.229 274.843 175.855 276.532 175.874C277.494 175.885 278.614 176.198 279.271 177.173C279.321 177.248 279.379 177.32 279.433 177.393C279.306 177.418 279.169 177.487 279.053 177.462C276.851 176.995 274.685 177.447 272.5 177.648C270.977 177.789 269.428 177.622 267.895 177.691C266.356 177.76 264.823 177.957 263.287 178.088C261.59 178.233 259.891 178.345 258.197 178.513C257.287 178.603 256.388 178.805 255.479 178.913C254.128 179.073 252.771 179.176 251.421 179.338C249.876 179.524 248.33 179.709 246.796 179.965C244.972 180.268 243.165 180.671 241.343 180.984C239.538 181.293 237.729 181.623 235.909 181.784C235.079 181.857 234.201 181.598 233.372 181.385C232.734 181.221 232.879 180.772 233.285 180.477C233.613 180.24 234.015 180.033 234.408 179.972C235.593 179.786 236.79 179.675 237.982 179.541C239.243 179.399 240.502 179.242 241.765 179.131C243.564 178.973 245.367 178.869 247.165 178.704C248.257 178.605 249.342 178.418 250.433 178.303C251.342 178.207 252.255 178.159 253.27 178.09Z" fill="#E7EAEE"/>
<path fill-rule="evenodd" clip-rule="evenodd" d="M233.967 169.526C236.368 169.252 238.665 168.963 240.965 168.709C242.46 168.544 243.963 168.449 245.458 168.285C246.331 168.189 247.195 168.009 248.066 167.884C248.664 167.799 249.267 167.751 249.867 167.674C251.7 167.439 253.53 167.171 255.366 166.968C257.235 166.76 259.112 166.633 260.981 166.437C262.693 166.257 264.397 165.977 266.112 165.855C266.728 165.811 267.379 166.065 267.991 166.256C268.195 166.32 268.327 166.611 268.493 166.798C268.259 166.875 268.028 167.004 267.79 167.021C266.454 167.117 265.116 167.165 263.782 167.27C262.373 167.381 260.966 167.526 259.561 167.679C258.484 167.797 257.413 167.96 256.336 168.084C255.046 168.232 253.749 168.334 252.461 168.504C250.571 168.754 248.688 169.055 246.8 169.318C244.755 169.602 242.702 169.839 240.662 170.151C238.899 170.421 237.151 170.784 235.392 171.078C233.08 171.465 230.762 171.815 228.45 172.203C227.606 172.345 227.093 171.864 227.017 171.193C226.948 170.586 227.483 170.364 228.166 170.319C229.962 170.199 231.748 169.94 233.537 169.724C233.652 169.71 233.755 169.594 233.967 169.526Z" fill="#E7EAEE"/>
<path fill-rule="evenodd" clip-rule="evenodd" d="M260.791 191.062C258.551 191.342 256.413 191.616 254.277 191.905C253.368 192.028 252.463 192.264 251.554 192.276C251.259 192.279 250.672 191.672 250.717 191.451C250.811 191.003 251.195 190.334 251.546 190.273C253.043 190.013 254.572 189.947 256.088 189.8C257.455 189.667 258.822 189.516 260.189 189.383C261.705 189.236 263.222 189.095 264.74 188.963C266.439 188.815 268.139 188.672 269.839 188.544C271.004 188.457 272.174 188.423 273.338 188.325C274.707 188.21 276.071 188.035 277.44 187.916C278.535 187.821 279.637 187.797 280.731 187.693C281.86 187.586 282.984 187.419 284.11 187.283C284.246 187.266 284.395 187.248 284.521 187.287C284.957 187.42 285.384 187.579 285.815 187.728C285.435 187.859 285.065 188.058 284.675 188.11C282.369 188.413 280.057 188.673 277.75 188.964C276.214 189.158 274.685 189.402 273.148 189.585C271.738 189.754 270.32 189.851 268.91 190.02C268.167 190.109 267.439 190.328 266.697 190.41C265.116 190.584 263.529 190.701 261.946 190.857C261.593 190.892 261.245 190.992 260.791 191.062Z" fill="#E7EAEE"/>
<path fill-rule="evenodd" clip-rule="evenodd" d="M89.2686 123.575C91.7048 121.342 94.3283 119.518 97.2693 118.174C97.3834 118.122 97.5003 117.995 97.6016 118.009C98.0434 118.069 98.48 118.169 98.9185 118.255C98.6011 118.472 98.3058 118.736 97.963 118.898C94.5602 120.511 91.3909 122.467 88.8128 125.27C86.307 127.995 84.5105 131.052 84.1142 134.87C83.7498 138.378 84.1951 141.66 86.18 144.62C87.2453 146.208 88.6837 147.394 90.4314 148.18C90.5702 148.243 90.701 148.324 90.8355 148.396C90.6793 148.428 90.5241 148.465 90.3669 148.49C88.2073 148.825 87.0825 147.232 86.0023 145.875C84.2667 143.694 83.4417 141.112 83.075 138.303C82.729 135.652 83.217 133.189 84.1752 130.827C85.2946 128.067 87.0469 125.678 89.2686 123.575Z" fill="#00160A"/>
<path fill-rule="evenodd" clip-rule="evenodd" d="M224.394 168.91C224.027 168.103 224.559 167.209 225.403 167.217C226.846 167.231 228.287 167.327 229.729 167.4C230.832 167.455 231.934 167.528 233.037 167.593C233.169 167.601 233.337 167.559 233.429 167.621C233.735 167.828 234.015 168.072 234.305 168.301C234.025 168.439 233.754 168.674 233.465 168.696C232.571 168.762 231.663 168.827 230.775 168.746C229.202 168.604 227.716 168.957 226.264 169.402C225.474 169.644 224.975 169.391 224.394 168.91Z" fill="#E7EAEE"/>
<path fill-rule="evenodd" clip-rule="evenodd" d="M16.1141 102.393C15.9085 103.641 15.6808 104.784 15.5052 105.934C15.3939 106.663 15.369 107.405 15.2895 108.139C15.1599 109.337 14.932 110.532 14.8972 111.732C14.8129 114.639 14.8394 117.549 14.7774 120.457C14.7175 123.262 15.258 125.976 15.9118 128.677C16.0388 129.202 16.0772 129.821 16.3885 130.212C16.8662 130.813 16.4226 131.104 16.0872 131.196C15.7669 131.284 15.1417 131.127 15.0132 130.885C14.6612 130.224 14.4228 129.476 14.2785 128.736C13.9128 126.86 13.4696 124.979 13.341 123.081C13.167 120.513 13.2877 117.927 13.2274 115.35C13.1544 112.226 13.6146 109.159 14.0438 106.079C14.7522 100.995 15.765 95.9838 17.3714 91.1054C17.5653 90.5165 18.0007 89.9477 18.4643 89.5212C19.0305 89.0001 19.9029 89.4764 20.0277 90.2627C20.1753 91.1928 19.7514 91.9048 19.2402 92.6081C17.7014 94.7254 16.9321 97.1396 16.5256 99.6906C16.3875 100.557 16.2512 101.424 16.1141 102.393Z" fill="#E7EAEE"/>
<path fill-rule="evenodd" clip-rule="evenodd" d="M26.4906 124.559C26.4181 125.198 27.5668 125.963 26.2861 126.205C25.9397 126.27 25.182 125.578 25.0226 125.109C24.54 123.688 24.0728 122.22 23.9431 120.743C23.7639 118.704 23.8981 116.64 23.8981 114.586C23.8981 114.348 23.8981 114.11 23.8981 113.872C23.8981 110.639 23.9129 107.405 23.8882 104.173C23.8817 103.316 23.6812 102.457 23.7063 101.603C23.7247 100.975 23.855 100.301 24.1441 99.7446C24.3507 99.3469 24.8846 98.9065 25.3078 98.8718C25.5986 98.8479 26.182 99.4607 26.2294 99.8349C26.3535 100.815 26.3036 101.823 26.2303 102.813C26.1734 103.582 25.9033 104.338 25.8569 105.107C25.741 107.028 25.6904 108.953 25.6284 110.876C25.5482 113.366 25.3213 115.864 25.4604 118.344C25.5755 120.393 26.1305 122.42 26.4906 124.559Z" fill="#E7EAEE"/>
<path fill-rule="evenodd" clip-rule="evenodd" d="M36.2923 120.412C34.3462 117.403 32.8958 114.225 31.9881 110.814C31.8051 110.126 31.9641 109.254 32.2221 108.569C32.346 108.24 33.2068 107.871 33.4855 108.017C33.8635 108.216 34.1644 108.875 34.2166 109.368C34.418 111.271 34.5477 113.154 35.1752 115.006C35.9378 117.255 37.2457 119.133 38.5124 121.062C38.776 121.463 39.5647 121.86 39.0085 122.369C38.4542 122.877 37.891 122.288 37.473 121.822C37.0801 121.384 36.7179 120.917 36.2923 120.412Z" fill="#E7EAEE"/>
<path fill-rule="evenodd" clip-rule="evenodd" d="M45.2233 113.964C44.0528 112.825 42.8809 111.788 41.8331 110.63C41.288 110.028 41.3902 109.263 42.0453 108.689C42.6986 108.116 43.1073 108.651 43.4836 109.087C44.9075 110.736 46.3114 112.403 47.7164 114.07C47.7961 114.164 47.8804 114.402 47.8603 114.416C47.6305 114.575 47.3336 114.869 47.1452 114.811C46.5016 114.614 45.8944 114.291 45.2233 113.964Z" fill="#E7EAEE"/>
<path fill-rule="evenodd" clip-rule="evenodd" d="M106.88 252.407C109.527 253.069 112.081 253.696 114.603 254.427C115.065 254.561 115.394 255.12 115.785 255.483C115.237 255.518 114.654 255.686 114.147 255.565C111.528 254.937 108.905 254.308 106.329 253.54C103.801 252.786 101.327 251.865 98.8308 251.012C98.7118 250.972 98.6128 250.88 98.4986 250.823C97.8876 250.517 97.2365 250.207 97.7179 249.387C98.1619 248.631 98.8527 248.649 99.5365 249.036C100.539 249.602 101.463 250.318 102.507 250.793C103.886 251.42 105.35 251.877 106.88 252.407Z" fill="#E7EAEE"/>
<path fill-rule="evenodd" clip-rule="evenodd" d="M110.337 244.615C111.413 245.236 112.445 245.788 113.453 246.383C113.667 246.509 113.794 246.788 113.961 246.997C113.604 247.139 113.17 247.492 112.903 247.39C110.763 246.574 108.649 245.687 106.541 244.791C105.382 244.298 104.237 243.769 103.108 243.211C102.476 242.898 101.756 242.571 102.303 241.603C102.645 240.999 103.455 240.85 104.208 241.261C106.231 242.366 108.259 243.462 110.337 244.615Z" fill="#E7EAEE"/>
<path fill-rule="evenodd" clip-rule="evenodd" d="M104.39 233.147C104.348 231.662 105.3 231.035 106.536 231.768C108.638 233.015 110.686 234.354 112.74 235.682C113.352 236.077 113.931 236.536 114.476 237.021C114.68 237.202 114.745 237.541 114.873 237.809C114.517 237.802 114.112 237.905 113.814 237.77C112.055 236.976 110.316 236.139 108.582 235.292C107.193 234.613 105.822 233.898 104.39 233.147Z" fill="#E7EAEE"/>
<path fill-rule="evenodd" clip-rule="evenodd" d="M111.516 222.803C113.322 222.826 114.279 224.028 115.311 225.091C115.607 225.396 115.847 225.778 116.025 226.164C116.201 226.546 116.439 227.069 115.949 227.327C115.729 227.444 115.241 227.213 114.946 227.029C114.099 226.501 113.301 225.898 112.457 225.364C112.155 225.172 111.731 225.154 111.446 224.947C111.029 224.645 110.688 224.243 110.314 223.883C110.681 223.523 111.048 223.163 111.516 222.803Z" fill="#E7EAEE"/>
<path fill-rule="evenodd" clip-rule="evenodd" d="M117.291 193.468C118.78 196.56 119.975 199.749 120.373 203.188C120.587 205.032 120.831 206.874 120.977 208.724C121.11 210.404 121.212 212.095 121.175 213.777C121.13 215.79 120.913 217.799 120.789 219.81C120.703 221.209 120.689 222.613 120.57 224.009C120.404 225.972 120.137 227.927 119.975 229.89C119.852 231.376 119.77 232.871 119.774 234.362C119.777 236.059 119.899 237.755 119.963 239.451C120.036 241.388 119.872 243.367 120.223 245.25C120.748 248.069 121.468 250.878 122.402 253.589C123.775 257.574 126.152 261.037 128.774 264.298C130.393 266.313 132.262 268.101 134.894 268.795C134.927 268.804 134.957 269.121 134.89 269.18C133.919 270.029 132.711 269.684 131.687 269.547C129.398 269.241 127.133 268.701 124.884 268.151C119.17 266.753 113.464 265.323 107.767 263.856C104.991 263.141 102.246 262.309 99.4821 261.549C99.0754 261.437 98.551 261.252 98.2317 261.408C96.6201 262.198 95.3751 261.33 94.1905 260.527C91.5943 258.767 90.1216 256.211 89.358 253.208C88.3046 249.065 89.1514 245.111 90.6801 241.279C91.6881 238.753 92.8903 236.299 94.0976 233.858C95.3228 231.381 96.8607 229.091 98.7251 227.044C99.3551 226.352 100.121 225.786 100.805 225.141C101.744 224.258 101.793 223.046 101.87 221.891C101.96 220.553 101.757 219.183 101.949 217.866C102.602 213.39 104.577 209.372 106.653 205.438C107.689 203.476 109.004 201.613 110.464 199.943C111.548 198.704 112.972 197.701 114.65 197.226C115.165 197.08 115.31 196.962 114.927 196.321C114.371 195.392 113.59 194.312 114.572 193.069C115.747 191.893 116.595 192.025 117.291 193.468ZM118.852 202.801C118.812 202.841 118.745 202.876 118.736 202.922C118.66 203.315 118.651 203.73 118.516 204.101C117.923 205.737 117.464 207.454 116.642 208.971C114.994 212.014 112.89 214.754 110.405 217.18C108.238 219.295 106.04 221.378 103.891 223.511C102.667 224.727 101.406 225.932 100.351 227.289C98.6587 229.466 96.8804 231.635 95.5849 234.048C94.08 236.85 92.9518 239.874 91.8623 242.875C91.1781 244.76 90.7141 246.758 90.4275 248.746C90.1196 250.881 90.5312 253.011 91.497 254.958C92.209 256.393 93.2116 257.582 94.8538 258.1C96.8176 258.718 98.746 259.449 100.705 260.083C105.053 261.49 109.386 262.952 113.772 264.228C117.057 265.184 120.406 265.922 123.743 266.684C125.633 267.116 127.555 267.408 129.467 267.737C129.619 267.762 129.805 267.581 129.975 267.496C129.89 267.375 129.816 267.244 129.717 267.134C129.019 266.36 128.241 265.645 127.628 264.809C125.941 262.507 124.092 260.281 122.727 257.794C120.305 253.381 118.681 248.65 118.317 243.561C118.205 241.994 118.047 240.43 117.91 238.659C117.91 236.694 117.831 234.725 117.934 232.766C118.023 231.086 118.325 229.418 118.525 227.743C118.669 226.533 118.717 225.305 118.955 224.115C119.408 221.839 119.195 220.92 117.259 219.622C116.359 219.018 115.228 218.436 115.185 217.173C115.166 216.638 115.595 216.003 115.999 215.59C116.121 215.465 116.984 215.813 117.266 216.148C117.903 216.908 118.384 217.798 118.942 218.626C119.032 218.759 119.186 218.849 119.311 218.959C119.392 218.821 119.531 218.689 119.544 218.545C119.63 217.582 119.749 216.615 119.744 215.651C119.736 214.411 119.613 213.173 119.555 211.933C119.478 210.271 119.424 208.609 119.345 206.947C119.29 205.764 119.223 204.581 119.131 203.401C119.115 203.195 118.949 203.001 118.852 202.801ZM114.624 198.568C112.422 199.327 110.908 200.944 109.716 202.814C107.339 206.546 105.446 210.536 104.21 214.79C103.634 216.772 103.389 218.855 104.16 220.89C104.205 221.009 104.522 221.159 104.545 221.135C107.493 218.02 110.454 214.916 113.349 211.753C116.304 208.525 117.42 204.674 116.868 200.358C116.618 198.4 116.48 198.35 114.624 198.568ZM272.904 160.036C273.83 160.136 274.888 160.614 275.548 161.266C277.216 162.912 278.695 164.752 280.245 166.518C281.195 167.6 282.147 168.682 283.083 169.778C285.055 172.087 287.011 174.409 288.984 176.717C289.597 177.434 290.253 178.114 290.868 178.829C291.045 179.034 291.148 179.302 291.285 179.541C291.091 179.382 290.882 179.239 290.705 179.062C286.043 174.394 281.399 169.708 276.716 165.061C275.183 163.539 273.441 162.252 271.337 161.652C269.121 161.019 266.862 160.805 264.539 161.185C263.37 161.377 262.141 161.179 260.942 161.227C258.273 161.334 255.606 161.51 252.937 161.608C251.373 161.665 249.803 161.574 248.24 161.646C246.568 161.724 244.901 161.913 243.231 162.056C241.696 162.188 240.16 162.312 238.627 162.462C237.412 162.58 236.202 162.747 234.987 162.867C233.443 163.02 231.893 163.111 230.353 163.294C229.047 163.449 227.754 163.706 226.453 163.901C225.007 164.118 223.556 164.307 222.109 164.525C219.882 164.86 217.657 165.207 215.434 165.571C215.352 165.585 215.215 165.906 215.262 165.974C215.674 166.567 216.097 167.155 216.562 167.707C218.883 170.463 221.235 173.193 223.542 175.959C226.159 179.096 228.692 182.304 231.353 185.402C233.22 187.576 235.061 189.818 237.697 191.158C237.781 191.201 237.857 191.262 237.936 191.315C237.84 191.331 237.733 191.383 237.649 191.358C236.039 190.886 234.359 190.692 233.183 189.17C231.013 186.359 228.675 183.678 226.442 180.914C223.68 177.495 221.054 173.959 217.772 170.998C217.505 170.757 217.225 170.506 216.908 170.348C216.205 169.998 215.559 169.88 215.011 170.712C213.919 172.367 212.728 173.956 211.638 175.612C210.91 176.717 211.147 177.259 212.462 178.154C215.925 180.51 219.686 182.187 223.711 183.33C225.387 183.806 227.048 184.41 228.239 185.821C228.324 185.921 228.414 186.016 228.502 186.113C228.36 186.099 228.209 186.114 228.079 186.068C222.659 184.151 217.233 182.252 211.832 180.285C210.944 179.962 210.127 179.39 209.352 178.829C208.857 178.471 208.881 177.935 209.204 177.359C210.314 175.382 211.375 173.378 212.445 171.378C212.517 171.242 212.549 170.929 212.524 170.92C212.251 170.827 211.95 170.691 211.682 170.732C210.561 170.902 209.431 171.063 208.336 171.349C205.863 171.995 203.409 172.708 200.952 173.413C200.809 173.454 200.715 173.669 200.598 173.803C201.219 174.289 201.84 174.774 202.513 175.311C205.116 177.576 207.67 179.787 210.218 182.004C211.583 183.192 212.94 184.389 214.3 185.582C214.356 185.631 214.414 185.678 214.471 185.725C214.342 185.746 214.203 185.812 214.087 185.782C212.435 185.365 210.815 184.944 209.463 183.752C206.234 180.906 202.927 178.15 199.669 175.337C199 174.758 198.349 174.136 197.798 173.447C197.106 172.582 197.264 171.985 198.356 171.564C199.218 171.232 200.159 171.079 201.079 170.932C203.821 170.494 206.569 170.084 209.318 169.69C210.526 169.517 211.744 169.416 212.955 169.265C213.171 169.238 213.378 169.13 213.589 169.059C213.484 168.889 213.404 168.696 213.271 168.552C212.21 167.406 211.139 166.27 210.071 165.131C209.977 165.031 209.877 164.936 209.78 164.839C209.932 164.802 210.082 164.753 210.236 164.731C213.051 164.315 215.865 163.897 218.681 163.492C220.531 163.226 222.379 162.951 224.234 162.733C226.133 162.51 228.037 162.329 229.942 162.171C231.645 162.031 233.356 161.971 235.059 161.83C236.151 161.739 237.232 161.524 238.323 161.435C239.688 161.325 241.059 161.307 242.425 161.214C244.132 161.097 245.835 160.926 247.542 160.812C248.976 160.716 250.416 160.69 251.85 160.593C253.008 160.515 254.159 160.344 255.317 160.274C256.448 160.206 257.583 160.213 258.717 160.187C261.651 160.118 264.586 160.034 267.521 159.986C269.317 159.956 271.128 159.844 272.904 160.036ZM102.195 153.108C102.978 153.19 103.779 153.084 104.567 153.13C106.49 153.244 108.41 153.421 110.333 153.529C112.123 153.629 113.921 153.609 115.706 153.76C117.534 153.915 118.628 154.678 118.511 156.869C118.406 158.844 118.369 160.823 118.299 162.801C118.234 164.641 118.162 166.481 118.098 168.321C118.089 168.593 118.099 168.867 118.116 169.139C118.131 169.374 118.17 169.609 118.199 169.843C118.131 169.844 118.012 169.864 118.003 169.841C117.907 169.587 117.781 169.332 117.751 169.066C117.644 168.138 117.574 167.205 117.485 166.275C117.352 164.886 117.217 163.498 117.077 162.111C117.007 161.409 116.926 160.708 116.843 160.007C116.792 159.572 116.742 159.136 116.665 158.705C116.632 158.521 116.531 158.35 116.461 158.173C116.317 158.255 116.144 158.308 116.034 158.423C114.685 159.825 113.762 161.46 113.409 163.405C113.37 163.618 113.241 163.815 113.154 164.019C113.082 163.838 113.023 163.651 112.937 163.478C111.361 160.325 108.879 158.23 105.489 157.513C103.94 157.186 102.267 157.465 100.651 157.455C99.8372 157.45 99.7025 157.917 99.7733 158.612C99.9274 160.124 100.043 161.64 100.188 163.153C100.384 165.212 100.596 167.269 100.796 169.327C100.936 170.772 101.05 172.22 101.215 173.661C101.261 174.067 101.446 174.455 101.561 174.853C101.615 175.039 101.657 175.229 101.704 175.418C101.497 175.274 101.161 175.169 101.106 174.98C100.827 174.026 100.622 173.049 100.389 172.081C100.119 170.956 99.8468 169.833 99.5755 168.605C99.3041 166.691 98.9307 164.887 98.7859 163.066C98.5812 160.49 98.1874 157.887 98.7609 155.323C99.0856 153.872 100.742 152.957 102.195 153.108ZM96.6759 158.167C97.0993 158.317 97.4188 158.769 97.7837 159.089C97.5319 159.381 97.3223 159.733 97.0196 159.954C96.3565 160.438 95.5663 160.767 94.9713 161.318C93.5578 162.627 94.2265 165.229 95.6934 165.916C96.3702 166.233 97.046 166.556 97.6996 166.918C97.936 167.049 98.1061 167.303 98.3065 167.5C98.0627 167.507 97.8188 167.513 97.5749 167.52C96.0091 167.561 94.8345 166.837 93.9572 165.578C92.6353 163.68 93.3371 161.826 94.8934 160.341C95.04 160.201 95.1729 160.046 95.3227 159.911C95.5158 159.735 95.7197 159.572 95.9189 159.404C95.5316 159.355 95.1045 159.173 94.7641 159.279C93.4936 159.674 92.7725 160.735 92.3866 161.897C91.0617 165.886 94.1935 169.117 97.7466 168.701C98.1218 168.658 98.5271 168.878 98.9185 168.976C98.8243 169.035 98.7373 169.116 98.635 169.15C95.6601 170.12 93.1257 169.02 91.6887 166.147C91.5895 165.948 91.4538 165.769 91.3352 165.478C90.6478 161.954 92.116 159.326 95.338 158.276C95.7602 158.138 96.2868 158.03 96.6759 158.167ZM100.298 154.168C99.6677 154.313 99.4462 154.994 99.78 155.598C100.237 156.426 100.941 156.457 101.79 156.373C103.13 156.24 104.495 156.137 105.83 156.251C107.523 156.395 109.189 156.858 110.881 157.018C112.291 157.151 113.723 157.045 115.247 156.942C115.842 156.907 116.437 156.863 117.033 156.841C117.749 156.815 118.159 156.241 117.773 155.628C117.536 155.252 117.048 154.86 116.632 154.808C114.892 154.59 113.138 154.463 111.386 154.374C110.147 154.31 108.9 154.411 107.661 154.35C105.785 154.257 103.915 154.06 102.039 153.964C101.462 153.934 100.866 154.038 100.298 154.168ZM193.14 146.717C195.212 146.758 197.278 147.093 199.347 147.307C199.501 147.324 199.667 147.372 199.796 147.456C200.066 147.632 200.315 147.842 200.572 148.038C200.243 148.071 199.915 148.112 199.586 148.134C197.523 148.276 195.461 148.426 193.397 148.539C193.054 148.558 192.698 148.338 192.355 148.356C190.222 148.47 188.092 148.639 185.959 148.746C185.48 148.77 184.987 148.541 184.507 148.566C182.443 148.672 180.381 148.843 178.317 148.955C177.94 148.976 177.55 148.753 177.173 148.773C175.04 148.885 172.91 149.054 170.777 149.163C170.332 149.186 169.873 148.958 169.428 148.982C167.363 149.09 165.302 149.261 163.238 149.371C162.826 149.393 162.402 149.168 161.991 149.189C159.858 149.3 157.728 149.467 155.595 149.58C155.218 149.6 154.828 149.377 154.451 149.397C152.318 149.51 150.188 149.674 148.056 149.788C147.712 149.807 147.357 149.586 147.014 149.605C144.881 149.719 142.751 149.888 140.618 149.995C140.139 150.019 139.646 149.79 139.166 149.815C137.102 149.921 135.04 150.092 132.976 150.204C132.599 150.225 132.209 150.002 131.832 150.021C129.699 150.134 127.569 150.301 125.436 150.412C125.025 150.433 124.601 150.208 124.189 150.23C122.091 150.34 119.995 150.51 117.897 150.62C117.485 150.642 117.061 150.417 116.65 150.438C114.517 150.549 112.387 150.718 110.254 150.828C109.843 150.85 109.419 150.624 109.007 150.646C106.943 150.756 104.882 150.925 102.817 151.037C102.44 151.057 102.05 150.834 101.673 150.854C99.5401 150.967 97.41 151.13 95.2775 151.246C94.9685 151.262 94.6465 151.043 94.3382 151.062C92.5794 151.17 90.8239 151.334 89.0651 151.444C87.8679 151.519 86.6631 151.487 85.4691 151.59C83.7633 151.738 82.0537 151.901 80.3657 152.182C79.0451 152.401 77.7654 152.877 76.444 153.086C76.0717 153.145 75.5231 152.742 75.2434 152.394C75.1251 152.248 75.3915 151.572 75.6566 151.354C76.7438 150.46 78.052 150.308 79.5085 150.425C80.415 150.356 81.2192 150.291 82.0226 150.216C83.4822 150.081 84.9389 149.897 86.4012 149.811C88.3308 149.699 90.265 149.597 92.1967 149.607C95.4398 149.623 98.6824 149.777 101.925 149.786C104.336 149.792 106.747 149.666 109.157 149.591C111.192 149.528 113.227 149.452 115.261 149.385C117.398 149.314 119.536 149.247 121.673 149.176C123.708 149.108 125.743 149.059 127.777 148.963C130.194 148.848 132.609 148.674 135.027 148.565C135.542 148.542 136.066 148.767 136.582 148.748C139.649 148.634 142.714 148.479 145.781 148.347C146.339 148.323 146.9 148.376 147.456 148.338C149.281 148.215 151.103 148.048 152.929 147.941C153.339 147.917 153.764 148.146 154.175 148.122C156.035 148.014 157.891 147.844 159.75 147.732C160.093 147.712 160.45 147.936 160.792 147.915C162.617 147.803 164.439 147.632 166.264 147.525C166.675 147.501 167.1 147.73 167.511 147.706C169.371 147.598 171.227 147.424 173.086 147.317C173.497 147.293 173.922 147.522 174.333 147.497C176.124 147.391 177.912 147.214 179.703 147.109C180.148 147.083 180.607 147.315 181.052 147.289C182.844 147.185 184.631 147.013 186.422 146.899C186.73 146.88 187.053 147.101 187.361 147.083C189.289 146.968 191.217 146.678 193.14 146.717ZM193.105 44.7153C197.622 45.1332 201.878 46.5806 205.795 48.8167C208.098 50.131 210.239 51.7563 212.336 53.3901C215.588 55.9246 218.143 59.1002 220.349 62.5628C221.995 65.1452 223.433 67.8422 224.287 70.7787C225.064 73.4484 225.759 76.1624 226.192 78.9035C226.505 80.8833 226.32 82.9397 226.378 84.9613C226.438 87.0275 226.221 89.0652 226.001 91.1205C225.464 96.1374 224.523 101.052 223.113 105.9C222.502 108.004 222.943 110.18 223.344 112.31C223.695 114.176 224.342 115.92 225.336 117.541C225.456 117.737 225.446 118.011 225.496 118.248C225.242 118.232 224.974 118.261 224.735 118.191C223.012 117.688 222.454 116.284 222.043 114.746C221.749 113.642 221.482 112.516 221.032 111.473C220.518 110.28 220.318 110.393 219.188 110.956C216.863 112.113 214.499 113.213 212.086 114.173C208.816 115.473 205.378 116.147 201.9 116.692C200.013 116.988 198.106 117.563 196.684 118.941C196.023 119.582 195.511 120.491 195.229 121.373C194.877 122.477 194.796 123.641 195.453 124.784C195.842 125.462 196.251 125.577 196.898 125.399C200.04 124.535 203.159 123.575 206.33 122.838C208.766 122.273 211.277 122.036 213.737 121.564C216.29 121.074 218.861 120.954 221.448 120.965C221.642 120.966 221.837 121.017 222.031 121.045C221.855 121.086 221.68 121.13 221.503 121.166C219.098 121.658 216.692 122.141 214.29 122.642C212.114 123.097 209.943 123.58 207.766 124.036C205.333 124.546 202.892 125.016 200.465 125.55C199.281 125.811 198.096 126.112 196.955 126.515C195.361 127.077 194.861 128.065 194.773 129.871C194.674 131.905 195.026 133.808 195.515 135.695C196.393 139.082 197.898 142.171 200.332 144.783C202.378 146.979 204.684 148.757 207.617 149.515C209.198 149.923 210.852 150.181 212.483 150.243C214.516 150.32 216.493 149.939 218.422 149.129C220.839 148.113 222.705 146.516 224.09 144.38C225.612 142.033 226.613 139.438 226.974 136.659C227.273 134.352 227.586 132.021 227.568 129.704C227.542 126.362 226.849 123.101 225.557 119.99C225.476 119.796 225.163 119.524 225.779 119.506C227.409 119.459 229.027 120.944 229.048 122.638C229.068 124.187 229.12 125.741 229.038 127.286C228.889 130.086 231.88 133.747 234.346 134.378C234.885 134.517 234.933 134.326 234.801 134.047C233.298 130.868 234.221 127.759 235.113 124.687C236.837 118.756 239.2 113.056 241.565 107.356C243.879 101.783 246.1 96.1707 248.346 90.5694C250.252 85.8182 252.126 81.055 254.03 76.3033C255.863 71.7279 257.716 67.1602 259.563 62.5901C259.622 62.4438 259.719 62.3125 259.777 62.1658C259.887 61.8876 259.981 61.6034 260.081 61.3217C259.794 61.5157 259.439 61.6549 259.231 61.9121C256.763 64.9552 254.466 68.1507 251.826 71.0354C249.004 74.1183 245.94 76.9959 242.837 79.8042C240.621 81.8103 238.166 83.5561 235.813 85.412C235.593 85.5857 235.338 85.7164 235.1 85.8671C235.122 85.5895 235.173 85.311 235.163 85.0345C235.091 82.9133 237.062 82.7226 238.247 81.7962C240.031 80.4014 241.885 79.0906 243.61 77.6272C246.823 74.9003 249.381 71.5724 251.987 68.2938C252.691 67.4075 253.445 66.5605 254.228 65.6442C256.513 63.1644 258.662 60.6525 261.003 58.3326C263.056 56.2981 265.338 54.5194 268.22 53.6822C269.506 53.3089 271.842 54.1656 272.706 55.5204C273.608 56.934 273.968 58.4843 273.963 60.1696C273.954 63.6681 273.241 67.0575 272.501 70.4457C271.695 74.1426 270.912 77.8462 270.013 81.5212C269.486 83.677 268.866 85.8247 268.09 87.9026C266.243 92.8455 264.368 97.7822 262.326 102.647C261.164 105.416 259.727 108.08 258.266 110.709C257.455 112.167 256.259 113.278 254.333 113.191C253.545 113.155 253.038 114.072 252.929 115.192C252.771 116.821 252.637 118.464 252.301 120.061C251.62 123.294 250.17 126.233 248.432 129.018C247.118 131.123 245.658 133.136 244.303 135.215C243.364 136.655 242.12 137.817 240.417 137.907C239.35 137.963 238.24 137.287 237.157 136.916C236.981 136.855 236.826 136.691 236.697 136.544C236.167 135.937 235.758 135.04 235.096 134.783C234.477 134.542 233.577 135.148 232.832 135.073C231.558 134.945 230.493 134.285 229.714 133.221C229.562 133.013 229.389 132.53 229.224 133.324C228.775 135.477 228.207 137.608 227.601 139.724C226.496 143.579 224.45 146.894 221.324 149.418C219.387 150.982 217.154 152.018 214.538 152.162C211.886 152.307 209.508 151.589 207.134 150.534C203.775 149.041 200.823 147.007 198.064 144.592C194.107 141.128 191.107 136.978 189.048 132.215C187.896 129.551 187.22 126.673 186.44 123.861C185.654 121.028 184.665 118.31 183.039 115.825C181.565 113.573 180.491 111.112 180.083 108.446C179.948 107.558 180.25 106.57 180.492 105.664C180.975 103.862 181.24 102.043 180.833 100.219C180.63 99.3096 180.074 98.4846 179.751 97.5949C178.459 94.0259 177.099 90.4765 175.953 86.8604C175.163 84.3667 174.617 81.789 174.091 79.2225C173.755 77.5791 173.65 75.8883 173.451 74.2177C173.305 72.999 173.127 71.7815 173.048 70.5581C172.935 68.8002 172.959 67.0327 172.816 65.278C172.632 63.0148 172.967 60.7735 173.525 58.6463C174.069 56.5659 175.133 54.5934 176.152 52.67C177.334 50.4414 178.951 48.5281 181.139 47.1734C183.093 45.9636 185.178 45.0647 187.497 44.8947C189.363 44.7578 191.256 44.5443 193.105 44.7153ZM178.236 99.3275C178.106 99.5415 178.028 99.8492 177.838 99.9542C176.727 100.568 175.616 101.192 174.457 101.704C172.491 102.574 170.489 103.364 168.4 104.187C165.134 105.641 161.906 106.97 158.827 108.584C155.759 110.191 152.907 112.164 150.245 114.421C146.348 117.725 143.203 121.602 141.171 126.283C140.341 128.196 139.772 130.292 139.495 132.359C139.129 135.094 139.173 137.884 139.025 140.65C138.901 142.971 138.764 145.292 138.612 147.611C138.555 148.486 137.874 147.837 137.517 147.996C137.489 148.008 137.192 147.656 137.21 147.495C137.382 145.952 137.691 144.418 137.771 142.873C137.872 140.924 137.78 138.965 137.799 137.011C137.835 133.267 138.549 129.672 140.107 126.245C141.557 123.054 143.514 120.228 145.836 117.612C149.341 113.664 153.537 110.643 158.112 108.097C162.439 105.69 166.925 103.633 171.568 101.91C173.583 101.163 175.544 100.272 177.535 99.4597C177.751 99.3716 178.001 99.3695 178.236 99.3275ZM233.17 144.645C234.949 144.895 236.719 145.206 238.496 145.472C239.58 145.635 240.666 145.838 241.757 145.886C243.355 145.956 244.96 145.878 246.56 145.913C247.733 145.939 248.905 146.039 250.076 146.121C250.906 146.179 251.734 146.309 252.564 146.323C254.484 146.353 256.406 146.353 258.326 146.328C262.825 146.27 267.324 146.144 271.823 146.15C272.973 146.152 274.122 146.547 275.272 146.759C275.339 146.771 275.436 146.73 275.474 146.766C275.737 147.016 275.987 147.28 276.242 147.54C275.91 147.566 275.577 147.613 275.244 147.614C272.969 147.62 270.693 147.637 268.418 147.607C267.519 147.596 266.623 147.435 265.724 147.41C262.426 147.321 259.127 147.254 255.829 147.192C254.651 147.171 253.473 147.189 252.192 147.189C250.717 147.189 249.344 147.215 247.973 147.183C245.874 147.134 243.777 147.012 241.678 146.983C239.026 146.948 236.371 147.025 233.72 146.953C232.479 146.918 231.239 146.678 230.008 146.47C229.32 146.354 229.159 145.716 229.388 145.198C229.545 144.84 230.072 144.464 230.451 144.445C231.352 144.399 232.269 144.518 233.17 144.645ZM180.515 101.688C180.442 101.728 180.347 101.751 180.299 101.812C178.801 103.704 177.135 105.492 175.856 107.522C174.138 110.251 172.719 113.172 171.871 116.312C171.412 118.01 171.08 119.742 170.681 121.457C170.42 122.581 169.826 123.509 168.855 124.132C167.565 124.96 166.198 125.67 164.927 126.524C161.762 128.65 159.758 131.66 158.589 135.23C157.936 137.228 157.523 139.273 157.902 141.413C158.132 142.714 158.228 144.038 158.371 145.353C158.394 145.563 158.351 145.779 158.338 145.992C158.06 145.967 157.649 146.047 157.53 145.897C157.204 145.485 156.851 144.998 156.777 144.501C156.555 143.018 156.467 141.516 156.312 140.022C156.28 139.711 156.187 139.405 156.122 139.097C155.845 139.405 155.528 139.685 155.298 140.024C153.761 142.288 152.248 144.568 150.709 146.83C150.596 146.995 150.332 147.058 150.139 147.169C150.089 146.823 149.885 146.397 150.017 146.146C150.504 145.214 151.037 144.29 151.671 143.451C153.154 141.49 154.835 139.665 156.183 137.619C157.071 136.269 157.552 134.644 158.155 133.119C158.772 131.557 159.745 130.279 161.004 129.191C162.593 127.82 164.174 126.44 165.809 125.012C166.92 123.834 168.109 122.801 169.008 121.558C170.195 119.919 170.616 117.922 171.096 115.977C172.112 111.863 173.92 108.133 176.588 104.83C177.253 104.007 177.883 103.143 178.641 102.414C179.053 102.018 179.698 101.861 180.245 101.612C180.31 101.583 180.424 101.66 180.515 101.688ZM31.9249 65.2159C33.0737 65.5131 33.2398 66.5118 32.3611 67.2745C30.3657 69.0061 29.4162 71.2169 29.27 73.7844C29.1892 75.2026 29.322 76.6327 29.2433 78.051C28.9838 82.7268 30.3491 87.0307 32.3711 91.1363C34.3042 95.0615 37.119 98.294 41.1579 100.182C43.4754 101.266 45.9538 102.026 48.3943 102.828C50.5142 103.524 52.6864 104.062 54.8289 104.692C56.9308 105.31 59.0012 105.87 61.2282 105.128C62.3707 104.747 63.2279 105.768 62.7904 106.876C61.136 111.063 59.7263 115.409 56.8202 118.939C55.077 121.057 53.0601 123.017 50.9027 124.717C47.7353 127.213 44.0933 128.993 40.4554 130.746C36.9071 132.456 33.4388 134.332 29.8748 136.008C25.8598 137.895 21.7911 139.672 17.7196 141.438C14.4349 142.862 11.119 144.217 7.7997 145.56C7.006 145.882 6.15582 146.107 5.30994 146.247C4.46241 146.388 2.60048 145.059 2.26786 144.18C1.42375 141.951 0.849964 139.659 0.613006 137.283C0.468801 135.838 0.274701 134.397 0.051507 132.954C1.04308e-08 132.851 -1.39078e-08 132.749 0.0515063 132.595C0.13735 130.618 0.173354 128.692 0.197271 126.766C0.197929 126.713 0.0686746 126.658 0 126.604V125.836C0.0343303 125.785 0.0987163 125.786 0.0987614 125.785C0.16365 124.002 0.218815 122.219 0.288044 120.436C0.310411 119.86 0.375559 119.286 0.411121 118.71C0.706411 113.93 1.27432 109.18 2.4976 104.546C3.47377 100.848 4.76274 97.2511 6.32937 93.7377C8.11639 89.73 10.289 85.9614 12.7924 82.3782C14.0678 80.5525 15.4608 78.7932 16.943 77.1292C18.7264 75.1271 20.5587 73.1449 22.5572 71.3617C24.8389 69.326 27.2909 67.4706 29.7532 65.6497C30.3015 65.2442 31.2706 65.0466 31.9249 65.2159ZM28.9307 68.0254C28.8151 68.0773 28.6842 68.1095 28.5859 68.1841C25.49 70.5308 22.4128 72.9012 19.8492 75.8456C18.2566 77.6748 16.6287 79.4783 15.1251 81.3782C11.4708 85.9958 8.64291 91.0847 6.48977 96.7003C6.41668 96.9096 6.33185 97.1155 6.27225 97.3285C5.34705 100.634 4.36809 103.926 3.52852 107.253C3.15607 108.729 3.04914 110.273 2.85373 111.79C2.6387 113.46 2.39921 115.13 2.28536 116.808C2.19156 118.191 2.31793 119.586 2.25213 120.972C2.17039 122.693 1.93242 124.407 1.87475 126.128C1.83578 127.291 2.02344 128.459 2.05205 129.627C2.08663 131.037 2.03391 132.449 2.06847 133.86C2.09681 135.016 2.12455 136.181 2.28493 137.324C2.48132 138.723 2.83118 140.101 3.08667 141.493C3.45559 143.503 4.28142 144.281 6.24963 144.424C7.62908 144.524 8.67748 143.708 8.87057 142.416C8.89405 142.259 9.14135 141.986 9.17351 142.001C10.9125 142.817 12.422 141.995 13.9461 141.348C17.1845 139.974 20.4374 138.631 23.6434 137.185C28.4135 135.034 33.164 132.837 37.891 130.594C40.1026 129.545 42.2745 128.401 44.4035 127.193C48.5583 124.837 52.3564 122.043 55.4325 118.327C57.8165 115.447 59.2902 112.173 60.1442 108.59C60.3064 107.91 60.0675 107.319 59.2541 107.145C57.0491 106.671 54.8492 106.173 52.6408 105.716C48.1522 104.787 43.8134 103.492 39.7795 101.226C34.5999 98.317 31.2819 93.9229 29.2893 88.495C28.344 85.92 27.5848 83.2515 27.6044 80.4475C27.6191 78.3422 27.4337 76.2182 27.6581 74.1367C27.8655 72.213 28.5012 70.3351 28.9406 68.4353C28.9705 68.3062 28.9355 68.1623 28.9307 68.0254ZM115.299 98.4522C116.526 99.2955 117.741 100.16 118.93 101.056C119.253 101.299 119.278 101.54 119.424 100.905C119.653 99.9115 121.066 99.634 121.913 100.34C123.853 101.959 124.833 104.136 125.543 106.502C126.16 108.556 125.915 110.642 125.975 112.717C126.014 114.048 127.261 115.052 128.57 115.106C129.537 115.145 130.555 115.57 131.426 116.05C133.532 117.212 134.886 119.045 135.552 121.354C136.269 123.841 135.602 126.055 134.16 128.121C132.849 130 131.656 131.969 129.753 133.346C128.701 134.109 127.488 134.741 126.665 135.704C125.78 136.738 124.764 137.412 123.559 137.877C120.591 139.022 117.349 137.537 115.895 135.062C114.586 132.832 111.433 133.322 110.211 135.129C109.679 135.918 109.532 136.959 109.134 137.851C108.889 138.398 109.126 138.315 109.493 138.26C111.306 137.991 113.122 137.733 114.938 137.476C115.031 137.463 115.131 137.499 115.228 137.513C115.156 137.568 115.089 137.632 115.011 137.677C113.211 138.694 111.262 139.268 109.224 139.512C107.68 139.696 106.101 139.991 104.579 139.835C103.38 139.712 102.159 139.116 101.1 138.478C99.8502 137.726 99.475 136.448 99.4992 134.956C99.5461 132.057 100.658 129.611 102.494 127.491C103.023 126.88 103.956 126.623 104.699 126.195C104.982 126.032 105.393 126.012 104.894 125.487C102.713 123.197 100.777 120.717 99.4519 117.813C99.2427 117.355 99.0271 116.882 98.9356 116.393C98.8795 116.093 98.9632 115.664 99.1579 115.457C99.2803 115.327 99.7677 115.42 100.014 115.555C100.384 115.757 100.676 116.095 101.018 116.354C101.599 116.796 101.922 116.608 101.764 115.918C101.317 113.959 101.728 112.1 102.417 110.303C102.789 109.334 103.393 108.449 103.954 107.566C104.008 107.482 104.547 107.609 104.782 107.761C105.218 108.043 105.595 108.415 105.997 108.749C106.024 108.214 106.032 107.677 106.085 107.144C106.116 106.827 106.194 106.51 106.29 106.206C106.771 104.68 107.029 104.603 108.302 105.56C108.473 105.688 108.677 105.772 108.866 105.876L108.921 105.488C108.93 105.423 108.937 105.358 108.943 105.293C109.083 103.617 108.747 102.095 107.522 100.85C107.507 100.836 107.773 100.398 107.926 100.386C109.692 100.247 111.458 100.174 113.073 101.117C113.403 101.31 113.732 101.504 114.113 101.749C114.267 101.61 114.438 101.426 114.46 101.227C114.555 100.324 114.598 99.4152 114.703 98.5137C114.708 98.4652 115.167 98.3615 115.299 98.4522ZM103.535 127.649C103.496 127.724 103.47 127.812 103.414 127.871C101.405 129.992 100.468 132.511 100.543 135.432C100.583 137.019 101.429 138.187 103.015 138.476C104.024 138.66 105.07 138.652 106.1 138.68C106.225 138.684 106.428 138.393 106.476 138.208C106.779 137.028 106.758 135.712 108.023 134.808C108.375 134.671 108.729 134.536 109.081 134.397C109.241 134.334 109.525 134.277 109.532 134.198C109.547 134.03 109.466 133.769 109.337 133.689C108.991 133.475 108.612 133.239 108.222 133.184C106.425 132.935 105.15 131.988 104.419 130.357C104.071 129.582 103.882 128.735 103.621 127.921C103.592 127.831 103.564 127.74 103.535 127.649ZM108.33 135.525C108.193 136.042 108.037 136.555 107.94 137.079C107.923 137.167 108.199 137.419 108.279 137.395C108.605 137.295 108.71 135.728 108.33 135.525ZM115.78 99.5679C115.889 99.9443 116.045 100.314 116.1 100.699C116.226 101.57 116.151 102.404 115.294 102.918C114.609 103.328 114.097 102.835 113.631 102.475C112.574 101.657 111.325 101.55 110.084 101.395C109.406 101.31 109.375 101.588 109.596 102.172C109.922 103.03 110.328 103.941 110.302 104.818C110.286 105.369 109.583 105.936 109.114 106.425C108.677 106.881 108.257 106.665 107.911 106.215C107.858 106.146 107.687 106.168 107.571 106.148C107.579 106.333 107.555 106.526 107.6 106.701C107.872 107.744 107.483 108.751 106.39 109.35C105.634 109.764 105.101 109.132 104.641 108.642C104.295 108.273 104.263 108.497 104.117 108.778C102.84 111.221 102.694 113.776 103.372 116.402C103.54 117.054 103.24 117.379 102.701 117.354C102.073 117.325 101.458 117.079 100.832 116.953C100.542 116.895 100.239 116.899 99.9423 116.875C100.023 117.161 100.06 117.469 100.191 117.729C101.274 119.884 102.667 121.834 104.475 123.418C105.541 124.353 106.196 125.173 106.164 126.785C106.122 128.891 107.243 130.613 109.186 131.758C110.735 132.67 112.381 132.48 114.015 132.536C114.851 132.565 115.459 132.853 115.956 133.516L116.154 133.781C117.173 135.149 118.182 136.512 120.008 136.99C122.067 137.53 123.949 137.314 125.536 135.863C125.866 135.561 125.87 134.839 125.884 134.306C125.887 134.21 125.217 134.039 124.847 133.997C123.368 133.832 121.882 134.207 120.389 133.803C118.28 133.233 116.343 132.392 114.745 130.871C114.443 130.584 114.19 130.247 113.914 129.933C114.4 130.047 114.887 130.158 115.371 130.279C115.492 130.309 115.63 130.345 115.718 130.426C117.977 132.507 120.629 133.415 123.694 133.173C126.804 132.927 128.406 131.295 128.566 128.565C128.732 125.746 128.188 123.016 126.891 120.46C126.703 120.09 126.705 119.577 126.75 119.144C126.926 117.463 127.348 115.766 125.543 114.57C125.24 114.369 125.156 113.697 125.135 113.235C125.074 111.865 124.642 111.354 123.305 111.23C122.49 111.154 122.033 110.666 121.846 109.9C121.792 109.678 121.795 109.443 121.772 109.213C121.555 109.409 121.279 109.568 121.13 109.807C120.374 111.017 119.246 111.766 118.059 112.491C117.458 112.858 117.264 112.816 117.115 112.136C117.045 111.816 116.785 111.538 116.611 111.241C116.444 111.479 116.271 111.713 116.111 111.956C115.9 112.277 115.751 112.657 115.486 112.921C114.539 113.862 113.583 114.799 112.562 115.657C112.34 115.844 111.673 115.847 111.504 115.664C111.281 115.423 111.311 114.915 111.3 114.519C111.29 114.126 111.387 113.73 111.389 113.336C111.39 113.181 111.268 112.901 111.189 112.897C111.02 112.887 110.759 112.969 110.681 113.1L110.28 113.777C109.879 114.454 109.485 115.136 109.162 115.85C108.297 117.762 107.943 119.794 107.895 121.893C107.888 122.188 107.573 122.506 107.336 122.751C107.255 122.834 106.836 122.772 106.81 122.696C106.7 122.365 106.613 122 106.636 121.655C106.673 121.109 106.815 120.57 106.895 120.026C107.38 116.739 108.803 113.944 111.259 111.695C111.349 111.612 111.663 111.606 111.669 111.625C111.892 112.387 112.1 113.154 112.288 113.926C112.33 114.1 112.291 114.294 112.289 114.479C112.454 114.404 112.638 114.355 112.781 114.25C114.334 113.1 115.577 111.685 116.468 109.959C116.683 109.544 116.984 109.172 117.245 108.781L117.703 109.615C117.855 109.894 118.005 110.173 118.149 110.456C118.204 110.565 118.117 110.744 118.17 110.856C118.209 110.938 118.439 111.032 118.465 111.005C119.258 110.185 120.021 109.335 120.826 108.528C121.135 108.219 121.717 107.71 121.864 107.8C122.343 108.093 122.695 108.608 123.058 109.069C123.141 109.174 123.007 109.44 123.084 109.563C123.224 109.787 123.523 110.157 123.622 110.119C124.12 109.926 124.621 109.675 125.023 109.329C125.183 109.192 125.093 108.761 125.015 108.361C124.602 105.747 123.57 103.436 121.686 101.542C121.567 101.423 121.445 101.308 121.324 101.191C121.292 101.348 121.26 101.506 121.228 101.663C121.048 102.531 120.114 103.053 119.44 102.528C118.59 101.865 117.916 100.981 117.103 100.263C116.74 99.9423 116.225 99.7943 115.78 99.5679ZM187.745 120.978C187.672 121.051 187.549 121.115 187.536 121.197C187.488 121.491 187.417 121.8 187.463 122.086C187.716 123.651 188.035 125.206 188.269 126.773C188.678 129.507 189.363 132.161 190.775 134.554C191.276 135.402 192.089 136.069 192.771 136.809C192.849 136.893 193 136.909 193.117 136.956C193.112 136.883 193.115 136.81 193.101 136.739C192.936 135.884 192.871 134.994 192.581 134.184C191.889 132.252 191.091 130.357 190.233 128.344C189.718 126.95 189.174 125.566 188.698 124.159C188.371 123.191 188.14 122.19 187.862 121.204C187.84 121.124 187.785 121.053 187.745 120.978ZM242.837 116.386C242.833 116.48 242.638 116.558 242.547 116.657C242.3 116.927 242.012 117.176 241.828 117.485C239.8 120.888 238.734 124.636 237.91 128.466C237.691 129.482 237.496 130.504 237.29 131.728C237.221 132.314 237.083 132.903 237.102 133.486C237.124 134.164 237.118 134.924 237.416 135.497C238.253 137.103 240.498 137.058 241.876 136.212C243.151 135.429 243.763 134.167 244.454 132.975C245.63 130.944 246.613 128.799 247.835 126.798C249.498 124.076 251.138 121.365 251.888 118.222C252.113 117.276 251.631 116.632 250.622 116.661C248.247 116.729 245.939 116.261 243.627 115.827C242.849 115.682 242.868 115.641 242.837 116.386ZM127.955 115.961C127.545 117.728 127.808 119.416 128.317 121.084C129.058 123.514 129.866 125.926 129.618 128.523C129.444 130.34 128.628 131.775 127.067 132.778C126.827 132.933 126.719 133.293 126.55 133.558C126.867 133.624 127.185 133.746 127.498 133.734C127.691 133.727 127.9 133.54 128.061 133.39C129.216 132.316 130.51 131.348 131.466 130.118C132.427 128.88 133.048 127.378 133.921 125.89C134.121 124.938 134.357 123.992 134.513 123.033C134.864 120.881 133.787 118.81 131.823 118.079C130.538 117.6 129.13 117.422 128.584 115.861C128.495 115.606 128.162 115.07 127.955 115.961ZM65.7688 69.2838C68.2781 69.5818 70.8049 70.0469 73.2124 70.8007C75.7926 71.6086 78.0532 73.146 79.8828 75.1712C82.3771 77.9322 84.0043 81.141 84.7275 84.8262C85.0337 86.3868 85.13 87.9359 85.1004 89.5044C85.0817 90.5 84.979 91.4943 84.9038 92.4884C84.7429 94.6143 85.2764 96.6369 85.8039 98.6624C86.3443 100.737 86.1475 102.817 85.9572 104.924C85.6759 108.037 84.5048 110.854 83.2343 113.623C82.4163 115.406 81.3088 117.061 80.2767 118.74C79.4035 120.161 78.4521 121.533 77.4842 122.978C76.1787 125.033 74.9044 127.025 73.6791 129.046C73.139 129.937 72.6995 130.889 72.2117 131.812C72.1522 131.925 72.0927 132.045 72.0053 132.134C71.7026 132.444 71.3875 132.742 71.0772 133.044C71.0479 132.603 70.8735 132.108 71.0122 131.728C72.1226 128.685 73.8337 125.969 75.6893 123.333C77.936 120.142 80.3231 117.036 81.9162 113.433C82.9628 111.066 83.7887 108.631 84.0802 106.046C84.2491 104.548 84.4386 103.046 84.4731 101.542C84.5074 100.049 84.3611 98.5519 84.2848 97.057C84.281 96.9829 84.1519 96.847 84.1448 96.8511C83.9777 96.9466 83.7855 97.0286 83.6652 97.1703C83.0259 97.9233 82.4158 98.701 81.7758 99.4533C80.1496 101.365 78.1694 102.651 75.6702 103.208C73.2016 103.758 71.1262 103.039 69.3724 101.43C67.1498 99.3913 67.1833 96.8978 68.7124 94.5374C70.1113 92.3782 72.1385 91.233 74.7458 90.8664C77.2949 90.5079 79.609 91.216 81.9233 91.9713C82.7783 92.2504 83.305 92.5502 83.3456 91.3404C83.3917 89.9707 83.307 88.5828 83.5028 87.2352C83.7545 85.5027 83.1506 83.9902 82.6621 82.4174C81.6955 79.3053 79.8279 76.8695 77.3292 74.8088C75.4123 73.2279 73.2617 72.1412 70.9166 71.5042C68.4958 70.8465 66.0388 70.5453 63.4634 70.8065C59.2911 71.2298 55.6656 72.8268 52.3714 75.2693C50.0379 76.9996 48.2219 79.2399 46.6125 81.6505C46.3727 82.0097 45.9767 82.2645 45.6543 82.569C45.2515 82.9496 44.7143 83.0591 44.4267 82.6142C44.2083 82.2763 44.129 81.5557 44.3426 81.2808L44.8392 80.6405C45.8342 79.3583 46.849 78.0776 48.0312 76.9865C49.4792 75.65 51.1389 74.525 52.7831 73.4222C55.5313 71.5789 58.5424 70.3387 61.8343 69.8348C63.1488 69.6337 64.4972 69.1328 65.7688 69.2838ZM105.306 129.122C105.29 129.252 105.248 129.385 105.263 129.511C105.402 130.687 106.172 131.466 107.044 132.117C107.335 132.335 107.846 132.259 108.257 132.318C108.04 131.984 107.838 131.64 107.602 131.321C107.462 131.131 107.27 130.979 107.101 130.605C106.599 130.171 106.099 129.734 105.594 129.304C105.508 129.231 105.403 129.182 105.306 129.122ZM267.169 56.2526C266.07 57.1673 264.977 58.0932 263.933 59.0697C262.222 60.6716 261.138 62.7215 260.242 64.8214C258.357 69.2371 256.615 73.7133 254.831 78.1714C252.203 84.7416 249.589 91.3178 246.969 98.0965C246.832 98.3137 246.655 98.5156 246.563 98.7503C244.897 102.984 243.246 107.224 241.581 111.457C240.296 114.72 238.934 117.954 237.72 121.243C236.597 124.284 235.87 127.44 235.447 130.657C235.406 130.967 235.511 131.296 235.549 131.616C235.58 131.344 235.569 131.057 235.657 130.805C235.717 130.635 235.989 130.538 236.044 130.369C237.088 127.142 238.046 123.886 239.167 120.686C239.938 118.483 240.907 116.347 241.83 114.2C242.261 113.197 242.646 113.1 243.615 113.579C244.269 113.903 244.935 114.207 245.575 114.557C246.586 115.112 247.658 115.322 248.8 115.221C249.615 115.149 250.634 114.208 250.654 113.333C250.673 112.478 250.293 111.791 249.301 111.701C248.681 111.645 248.046 111.675 247.44 111.557C246.992 111.47 246.579 111.206 246.15 111.021C246.43 110.808 246.689 110.558 246.996 110.395C247.185 110.294 247.446 110.325 247.674 110.298C249.208 110.121 250.509 110.855 251.857 111.38C254.285 112.325 255.653 112.145 256.886 110.526C257.549 109.656 257.993 108.601 258.432 107.585C260.42 102.972 262.531 98.4029 264.293 93.7046C266.115 88.8442 267.814 83.9131 269.148 78.9026C270.584 73.5122 272.158 68.1142 272.435 62.4805C272.512 60.9291 272.379 59.4274 271.935 57.8954C271.221 55.4294 268.893 54.8179 267.169 56.2526ZM182.773 105.627C182.686 105.796 182.574 105.957 182.514 106.134C181.743 108.419 181.863 110.707 182.931 112.822C184.048 115.037 185.417 117.127 186.688 119.264C186.742 119.354 186.922 119.371 187.043 119.422C187.082 119.257 187.19 119.072 187.149 118.93C186.785 117.683 186.371 116.45 186.03 115.196C185.96 114.938 186.036 114.506 186.217 114.345C186.484 114.107 186.932 113.877 187.255 113.931C188.187 114.087 188.962 115.195 189.053 116.301C189.205 118.127 189.259 119.969 189.535 121.777C189.979 124.684 191.126 127.377 192.4 130.012C192.469 130.155 192.603 130.266 192.707 130.392C192.809 130.229 192.959 130.079 193.004 129.901C193.164 129.281 193.193 128.611 193.442 128.032C194.317 125.993 194.303 124.032 193.232 122.057C192.645 120.976 192.189 119.825 191.571 118.604C191.136 117.349 190.929 115.942 190.211 114.876C189.103 113.233 187.611 111.851 186.347 110.306C185.231 108.942 184.203 107.507 183.137 106.103L182.773 105.627ZM124.319 125.093C124.554 125.494 124.735 125.866 125.033 126.084C126.151 126.901 126.026 129.102 124.925 129.78C124.679 129.932 124.254 129.804 123.911 129.805C123.911 129.527 123.825 129.215 123.924 128.976C124.621 127.3 123.898 125.926 122.072 125.486C121.786 125.417 121.527 125.244 121.255 125.118C121.505 124.965 121.749 124.802 122.006 124.66C122.28 124.508 122.564 124.374 122.844 124.234C123.901 123.707 124.07 123.794 124.319 125.093ZM126.168 116.327C126.334 117.281 126.283 118.312 126.111 119.271C125.978 120.02 124.014 120.431 122.947 120.293C121.819 120.146 121.125 119.473 120.424 118.755C119.814 118.13 119.118 117.639 118.256 117.986C117.382 118.339 117.349 119.208 117.389 120.133C117.144 121.759 116.672 123.075 115.252 124.038C113.372 125.313 111.206 124.379 110.361 122.833C110.265 122.659 110.096 122.524 109.961 122.371C109.859 122.521 109.725 122.659 109.659 122.823C109.152 124.106 108.601 125.375 108.18 126.686C107.918 127.503 108.292 127.874 109.127 127.866C109.685 127.86 110.243 127.856 110.801 127.871C110.947 127.875 111.091 127.956 111.236 128.001C111.156 128.138 111.106 128.349 110.989 128.397C110.462 128.614 109.838 129.049 109.392 128.92C108.222 128.581 107.197 127.94 107.13 126.49C107.021 124.128 108.289 122.346 109.638 120.608C111.174 118.63 113.441 117.931 115.726 117.284C118.597 116.471 121.467 115.654 124.339 114.844C124.937 114.675 126.004 115.385 126.168 116.327ZM115.188 118.164C114.164 118.571 113.152 119.018 112.173 119.522C110.484 120.392 110.306 121.93 111.713 123.149C113.176 124.417 115.054 123.988 115.607 122.175C115.916 121.159 115.983 120.07 116.159 118.81C116.206 118.047 115.726 117.951 115.188 118.164ZM119.432 118.92C119.521 118.955 119.609 119.002 119.702 119.026C121.091 119.38 122.172 121.643 121.512 122.868C121.381 123.11 121.114 123.275 120.91 123.476C120.859 123.276 120.802 123.078 120.758 122.877C120.628 122.281 120.502 121.684 120.327 121.038C120.01 120.387 119.739 119.787 119.475 119.183C119.44 119.104 119.445 119.008 119.432 118.92ZM123.751 115.473C122.598 115.875 121.49 116.402 120.158 116.877C120.124 117.031 120.015 117.22 120.067 117.335C120.731 118.792 123.226 119.818 124.72 119.27C125.601 118.946 126.089 117.829 125.799 116.799C125.597 116.085 124.415 115.241 123.751 115.473ZM229.649 80.2012C231.634 80.3946 233.219 81.2618 234.427 82.9702C235.09 83.9088 234.586 84.6868 234.43 85.4751C233.867 88.3173 233.187 91.1355 232.542 93.9605C232.011 96.2866 231.47 98.6104 230.926 100.933C230.202 104.029 229.474 107.124 228.741 110.218C228.213 112.444 227.679 114.668 227.135 116.89C227.078 117.122 226.933 117.332 226.829 117.553C226.733 117.321 226.537 117.081 226.556 116.859C226.707 115.106 226.859 113.35 227.088 111.606C227.328 109.77 227.622 107.94 227.95 106.118C228.341 103.943 228.752 101.771 229.228 99.6147C230.306 94.732 231.697 89.9427 233.288 85.2058C233.921 83.3242 232.124 82.0819 230.671 82.1145C229.743 82.1353 228.942 82.3473 228.089 82.5558C227.948 82.5902 227.726 82.278 227.541 82.0238C227.541 81.8537 227.52 81.7758 227.545 81.7191C227.742 81.2695 227.025 80.4456 228.082 80.3472C228.606 80.2985 229.136 80.1512 229.649 80.2012ZM127.827 107.529C129.073 107.548 130.318 107.714 131.562 107.702C133.342 107.685 135.04 108.064 136.63 108.764C138.028 109.38 139.319 110.232 140.709 111.031C142.33 112.474 143.564 114.089 144.039 116.158C144.101 116.43 143.802 116.782 143.67 117.097C143.458 116.907 143.111 116.751 143.052 116.523C141.922 112.144 138.741 110.013 134.587 108.944C132.317 108.36 130.021 108.504 127.717 108.709C127.419 108.735 126.751 109.13 126.726 108.344C126.703 107.621 127.314 107.521 127.827 107.529ZM187.042 46.1642C182.996 46.7385 180.003 49.0607 177.735 52.3946C175.263 56.0281 174.436 60.1577 174.328 64.4014C174.25 67.4311 174.613 70.481 174.914 73.5085C175.139 75.7705 175.46 78.038 175.956 80.2543C176.583 83.0479 177.446 85.7883 178.182 88.5579C179.415 93.1888 180.966 97.7113 182.933 102.081C185.029 106.739 187.786 110.959 191.658 114.371C192.908 115.473 194.358 116.269 196.043 116.436C198.142 116.644 200.181 116.249 202.189 115.635C206.483 114.321 210.823 113.141 215.074 111.702C218.957 110.388 221.375 107.571 222.237 103.571C222.884 100.571 223.429 97.5449 223.881 94.5102C224.266 91.9279 224.578 89.3217 224.687 86.7163C224.77 84.7238 224.51 82.7144 224.358 80.7158C224.242 79.1925 224.058 77.6744 223.904 75.9489C223.403 72.9171 222.495 70.0154 221.3 67.1783C219.483 62.8674 216.98 59.0744 213.596 55.8013C209.908 52.2333 205.5 49.9637 200.706 48.4026C198 47.5216 195.2 46.8733 192.398 46.3627C190.653 46.0447 188.787 45.9165 187.042 46.1642ZM66.5534 73.9087C66.4331 74.0968 66.3259 74.295 66.1904 74.4713C63.6728 77.7454 61.0074 80.9171 58.6693 84.3147C55.9105 88.3234 53.6054 92.617 51.8158 97.2394C51.1189 98.6882 50.4811 100.09 49.8237 101.482C49.4756 102.219 48.752 102.127 48.2588 101.889C47.7248 101.632 47.7908 101.088 48.1106 100.516C50.7455 95.7996 53.2746 91.0232 55.9705 86.3429C57.6241 83.4722 59.4107 80.6636 61.3405 77.9729C62.3728 76.5335 63.8288 75.3966 65.1112 74.1413C65.2815 73.9745 65.5475 73.8567 65.7849 73.8209C66.0311 73.7839 66.2964 73.8742 66.5534 73.9087ZM73.3084 92.7326C70.4854 93.4814 69.0822 95.5479 69.3268 98.2656C69.4809 99.9783 70.1587 101.075 71.7823 101.537C73.6435 102.066 75.5017 101.823 77.2542 101.119C79.7682 100.108 81.8246 98.5792 82.4484 95.5116C82.5137 94.6853 82.2759 94.0811 81.5395 93.5428C78.9301 91.6353 76.1759 91.972 73.3084 92.7326ZM132.156 38.9291C132.087 39.0145 132.019 39.0487 131.95 39.1341C131.729 39.2337 131.456 39.2151 131.296 39.34C127.305 42.4583 124.801 46.532 123.486 51.3721C122.861 53.6706 122.578 56.0147 122.682 58.3793C122.864 62.5405 124.17 66.3436 126.537 69.8044C129.122 73.5855 132.558 76.368 136.659 78.3203C139.01 79.4391 141.505 80.2445 144.147 80.3852C145.336 80.4485 146.553 80.2529 147.72 80.4265C149.96 80.7599 152.046 80.1568 154.115 79.5547C158.284 78.3421 161.952 76.2475 165.094 73.22C167.413 70.9864 169.418 68.5583 170.742 65.6127C170.768 65.555 170.8 65.5001 170.829 65.4438C170.869 65.5201 170.951 65.602 170.941 65.6719C170.744 67.1672 170.84 68.6814 169.776 70.0159C166.485 74.1465 162.668 77.6264 157.722 79.6471C155.606 80.5116 153.347 81.0668 151.113 81.593C149.769 81.9095 148.343 82.0441 146.96 82.0077C143.463 81.9158 140.089 81.1777 136.861 79.7885C133.414 78.3054 130.396 76.2222 127.824 73.5169C124.833 70.3705 122.745 66.7083 121.863 62.4505C121.512 60.7545 121.233 59.0014 121.256 57.2789C121.331 51.8979 122.913 46.9367 126.046 42.5319C126.9 41.3316 128.048 40.3343 129.09 39.2716C129.581 38.7708 131.762 38.5293 132.156 38.9291ZM136.554 38.981C136.606 38.9871 136.651 39.0504 136.699 39.087C136.61 39.1188 136.522 39.1542 136.431 39.1819C132.919 40.254 130.418 42.5596 128.747 45.7519C127.722 47.7084 127.167 49.8344 126.855 52.0518C126.219 56.5593 127.26 60.7096 129.424 64.5773C132.097 69.3558 135.878 72.9925 141.111 74.8752C142.78 75.4756 144.505 76.1201 146.247 76.2775C150.428 76.6552 154.444 75.9059 158.167 73.8106C160.942 72.2487 163.222 70.1586 165.267 67.7323C167.639 64.918 168.988 61.6379 169.827 58.1321C170.121 56.9032 169.995 55.574 170.072 54.2913C170.086 54.0509 170.153 53.8137 170.196 53.5751C170.477 53.7202 170.911 53.7967 171.012 54.0228C171.372 54.8284 171.928 55.7172 171.845 56.5155C171.675 58.1566 171.263 59.802 170.73 61.3701C169.346 65.44 166.902 68.835 163.729 71.6935C160.776 74.353 157.373 76.2111 153.5 77.1435C152.189 77.4592 150.862 77.8219 149.528 77.8989C148.292 77.9703 147.025 77.754 145.791 77.5462C144.148 77.2693 142.469 77.0386 140.902 76.5054C136.572 75.0326 132.939 72.5299 130.01 68.9413C127.671 66.0742 126.319 62.8169 125.671 59.2448C124.908 55.0416 125.591 50.9692 127.147 47.0373C128.199 44.3768 129.733 42.0191 131.836 40.054C131.995 39.9053 132.083 39.6799 132.203 39.3876C132.272 39.2508 132.34 39.2166 132.408 39.1824C133.756 38.4134 135.161 38.8191 136.554 38.981ZM290.892 75.6347C292.3 75.6497 293.706 75.8412 295.114 75.9516C296.827 76.0859 298.54 76.2548 300.256 76.3208C301.898 76.384 303.547 76.2942 305.19 76.3516C305.999 76.3799 306.824 76.523 307.594 76.7519C307.856 76.8299 307.97 77.3293 308.152 77.6361C307.902 77.7104 307.656 77.8058 307.4 77.8535C307.104 77.9089 306.797 77.9225 306.444 77.9067C303.028 77.7955 299.664 77.7069 296.3 77.6807C294.938 77.6701 293.574 77.8454 292.211 77.8377C291.543 77.8338 290.874 77.6157 290.21 77.4749C289.518 77.328 289.311 76.7538 289.569 76.3344C289.79 75.9741 290.437 75.6299 290.892 75.6347ZM146.694 41.8216C147.464 45.493 148.177 49.177 148.932 52.8518C149.32 54.7384 148.859 55.5215 147.237 56.4375C145.093 57.6478 143.02 58.996 140.971 60.3711C139.945 61.0598 139.103 61.2995 138.541 60.7553C138.01 60.2414 137.923 59.7889 138.631 59.3069C140.847 57.7984 143.073 56.3003 145.216 54.687C145.682 54.3358 146.102 53.4972 146.054 52.9264C145.878 50.8418 145.507 48.7737 145.186 46.7032C145.052 45.8392 144.859 44.9847 144.694 44.0226C144.614 43.1739 144.387 42.4014 144.51 41.6928C144.587 41.2487 145.147 40.6423 145.568 40.5663C146.316 40.4314 146.569 41.2237 146.694 41.8216ZM287.949 33.2431C288.074 33.3737 288.143 33.7294 288.055 33.8592C287.633 34.482 287.148 35.0628 286.633 35.7099C284.975 37.9709 283.389 40.1959 281.737 42.3719C281.521 42.6568 280.821 42.9283 280.6 42.7938C280.039 42.4518 280.544 42.0869 280.777 41.6993C282.321 39.1269 283.815 36.5252 285.345 33.9448C286.05 32.7565 287.195 32.4549 287.949 33.2431ZM240.902 0.000813773C241.172 0.0234402 241.476 0.349625 241.658 0.618696C242.327 1.60588 241.975 2.71555 241.842 3.74113C241.61 5.53057 241.189 7.29443 240.862 9.07168C240.709 9.90171 240.589 10.738 240.453 11.6742C240.183 13.0672 239.89 14.3528 239.648 15.6486C239.21 18.0021 238.819 20.3646 238.379 22.7178C238.012 24.6808 237.615 26.6384 237.21 28.5938C236.544 31.8043 235.884 35.0161 235.172 38.2161C234.977 39.0941 234.293 39.4229 233.732 39.0028C233.543 38.8611 233.355 38.4981 233.4 38.2879C234.448 33.393 235.573 28.5145 236.59 23.6132C237.338 20.0096 237.874 16.3597 238.654 12.764C239.397 9.33848 239.78 5.90432 239.67 2.39893C239.651 1.79261 239.935 1.15224 240.182 0.572575C240.294 0.309977 240.671 -0.0185035 240.902 0.000813773ZM185.341 24.3094C185.539 24.6429 185.741 24.9731 185.941 25.4095C186.275 27.1828 186.619 28.8492 186.938 30.5209C187.099 31.3635 187.222 32.2143 187.343 33.0645C187.373 33.2757 187.325 33.499 187.313 33.7167C187.019 33.6673 186.544 33.7174 186.461 33.5519C186.032 32.6992 185.646 31.8113 185.356 30.8973C185.024 29.8502 184.885 28.7319 184.509 27.7053C184.304 27.1435 183.745 26.7343 183.42 26.2063C183.138 25.7497 182.808 25.2269 182.794 24.7246C182.786 24.4023 183.268 23.8608 183.61 23.7783C184.207 23.6339 184.918 23.5939 185.341 24.3094Z" fill="#00160A"/>
<path d="M117.161 126.633C118.376 126.308 119.256 125.649 119.126 125.163C118.996 124.677 117.905 124.547 116.689 124.873C115.473 125.199 114.593 125.857 114.723 126.343C114.853 126.829 115.945 126.959 117.161 126.633Z" fill="#195BFF"/>
<path fill-rule="evenodd" clip-rule="evenodd" d="M125.528 122.682C126.397 122.356 126.897 121.698 126.718 121.212C126.55 120.726 125.908 120.596 125.212 120.922C124.447 121.247 123.766 121.905 123.762 122.391C123.769 122.878 124.592 123.008 125.528 122.682Z" fill="#195BFF"/>
</svg>
