<svg width="411" height="402" viewBox="0 0 411 402" fill="none" xmlns="http://www.w3.org/2000/svg">
<g filter="url(#filter0_d_226_773)">
<path d="M353 18H60C42.8792 18 29 31.8792 29 49V335C29 352.121 42.8792 366 60 366H353C370.121 366 384 352.121 384 335V49C384 31.8792 370.121 18 353 18Z" fill="white"/>
</g>
<path d="M29 297C45.0163 297 58 284.016 58 268C58 251.984 45.0163 239 29 239C12.9837 239 0 251.984 0 268C0 284.016 12.9837 297 29 297Z" fill="white"/>
<path d="M29 295C43.9117 295 56 282.912 56 268C56 253.088 43.9117 241 29 241C14.0883 241 2 253.088 2 268C2 282.912 14.0883 295 29 295Z" stroke="#D5D5D5" stroke-width="4"/>
<path d="M18.1523 267.849L25.4854 275.182L35.1333 265.534L39.8513 260.816" stroke="white" stroke-width="6"/>
<path d="M330.5 246H108.5C104.91 246 102 248.91 102 252.5C102 256.09 104.91 259 108.5 259H330.5C334.09 259 337 256.09 337 252.5C337 248.91 334.09 246 330.5 246Z" fill="#B2DDCC"/>
<path d="M151.5 270H108.5C104.91 270 102 272.91 102 276.5C102 280.09 104.91 283 108.5 283H151.5C155.09 283 158 280.09 158 276.5C158 272.91 155.09 270 151.5 270Z" fill="#B2DDCC"/>
<path d="M337 276.5C337 272.91 334.09 270 330.5 270C326.91 270 324 272.91 324 276.5C324 280.09 326.91 283 330.5 283C334.09 283 337 280.09 337 276.5Z" fill="#B2DDCC"/>
<path d="M319 276.5C319 272.91 316.09 270 312.5 270C308.91 270 306 272.91 306 276.5C306 280.09 308.91 283 312.5 283C316.09 283 319 280.09 319 276.5Z" fill="#B2DDCC"/>
<path d="M29 219C45.0163 219 58 206.016 58 190C58 173.984 45.0163 161 29 161C12.9837 161 0 173.984 0 190C0 206.016 12.9837 219 29 219Z" fill="white"/>
<path d="M29 217C43.9117 217 56 204.912 56 190C56 175.088 43.9117 163 29 163C14.0883 163 2 175.088 2 190C2 204.912 14.0883 217 29 217Z" stroke="#D5D5D5" stroke-width="4"/>
<path d="M18.1523 189.849L25.4854 197.182L35.1333 187.534L39.8513 182.816" stroke="white" stroke-width="6"/>
<path d="M330.5 168H108.5C104.91 168 102 170.91 102 174.5C102 178.09 104.91 181 108.5 181H330.5C334.09 181 337 178.09 337 174.5C337 170.91 334.09 168 330.5 168Z" fill="#F9D5A5"/>
<path d="M151.5 192H108.5C104.91 192 102 194.91 102 198.5C102 202.09 104.91 205 108.5 205H151.5C155.09 205 158 202.09 158 198.5C158 194.91 155.09 192 151.5 192Z" fill="#F9D5A5"/>
<path d="M337 198.5C337 194.91 334.09 192 330.5 192C326.91 192 324 194.91 324 198.5C324 202.09 326.91 205 330.5 205C334.09 205 337 202.09 337 198.5Z" fill="#F9D5A5"/>
<path d="M319 198.5C319 194.91 316.09 192 312.5 192C308.91 192 306 194.91 306 198.5C306 202.09 308.91 205 312.5 205C316.09 205 319 202.09 319 198.5Z" fill="#F9D5A5"/>
<path d="M29 141C45.0163 141 58 128.016 58 112C58 95.9837 45.0163 83 29 83C12.9837 83 0 95.9837 0 112C0 128.016 12.9837 141 29 141Z" fill="#195BFF"/>
<path d="M18.1523 111.849L25.4854 119.182L35.1333 109.534L39.8513 104.816" stroke="white" stroke-width="6"/>
<path d="M330.5 90H108.5C104.91 90 102 92.9101 102 96.5C102 100.09 104.91 103 108.5 103H330.5C334.09 103 337 100.09 337 96.5C337 92.9101 334.09 90 330.5 90Z" fill="#E9D5F5"/>
<path d="M151.5 114H108.5C104.91 114 102 116.91 102 120.5C102 124.09 104.91 127 108.5 127H151.5C155.09 127 158 124.09 158 120.5C158 116.91 155.09 114 151.5 114Z" fill="#E9D5F5"/>
<path d="M337 120.5C337 116.91 334.09 114 330.5 114C326.91 114 324 116.91 324 120.5C324 124.09 326.91 127 330.5 127C334.09 127 337 124.09 337 120.5Z" fill="#E9D5F5"/>
<path d="M319 120.5C319 116.91 316.09 114 312.5 114C308.91 114 306 116.91 306 120.5C306 124.09 308.91 127 312.5 127C316.09 127 319 124.09 319 120.5Z" fill="#E9D5F5"/>
<defs>
<filter id="filter0_d_226_773" x="11" y="9" width="391" height="384" filterUnits="userSpaceOnUse" color-interpolation-filters="sRGB">
<feFlood flood-opacity="0" result="BackgroundImageFix"/>
<feColorMatrix in="SourceAlpha" type="matrix" values="0 0 0 0 0 0 0 0 0 0 0 0 0 0 0 0 0 0 127 0" result="hardAlpha"/>
<feOffset dy="9"/>
<feGaussianBlur stdDeviation="9"/>
<feColorMatrix type="matrix" values="0 0 0 0 0 0 0 0 0 0 0 0 0 0 0 0 0 0 0.09 0"/>
<feBlend mode="normal" in2="BackgroundImageFix" result="effect1_dropShadow_226_773"/>
<feBlend mode="normal" in="SourceGraphic" in2="effect1_dropShadow_226_773" result="shape"/>
</filter>
</defs>
</svg>
