<svg width="337" height="322" viewBox="0 0 337 322" fill="none" xmlns="http://www.w3.org/2000/svg">
<g filter="url(#filter0_d_248_672)">
<path d="M52.618 15.5H294.417C308.269 15.5 319.499 26.73 319.499 40.5828V276.605C319.499 290.458 308.269 301.688 294.417 301.688H52.618C38.7651 301.688 27.5352 290.458 27.5352 276.605V40.5828C27.5352 26.73 38.7651 15.5 52.618 15.5Z" fill="white" stroke="#ECECEC"/>
</g>
<path d="M27.03 245.242C40.2474 245.242 50.9622 234.527 50.9622 221.309C50.9622 208.092 40.2474 197.377 27.03 197.377C13.8125 197.377 3.09766 208.092 3.09766 221.309C3.09766 234.527 13.8125 245.242 27.03 245.242Z" fill="white"/>
<path d="M27.0318 243.591C39.3377 243.591 49.3136 233.615 49.3136 221.309C49.3136 209.003 39.3377 199.027 27.0318 199.027C14.7259 199.027 4.75 209.003 4.75 221.309C4.75 233.615 14.7259 243.591 27.0318 243.591Z" stroke="#ECECEC" stroke-width="4"/>
<path d="M18.0781 221.187L24.1297 227.238L32.0917 219.276L35.9852 215.383" stroke="white" stroke-width="6"/>
<path d="M275.843 203.156H92.6376C89.675 203.156 87.2734 205.558 87.2734 208.52C87.2734 211.483 89.675 213.885 92.6376 213.885H275.843C278.806 213.885 281.208 211.483 281.208 208.52C281.208 205.558 278.806 203.156 275.843 203.156Z" fill="#B2DDCC"/>
<path d="M128.123 222.961H92.6376C89.675 222.961 87.2734 225.363 87.2734 228.325C87.2734 231.288 89.675 233.689 92.6376 233.689H128.123C131.086 233.689 133.488 231.288 133.488 228.325C133.488 225.363 131.086 222.961 128.123 222.961Z" fill="#B2DDCC"/>
<path d="M281.209 228.325C281.209 225.363 278.807 222.961 275.845 222.961C272.882 222.961 270.48 225.363 270.48 228.325C270.48 231.288 272.882 233.689 275.845 233.689C278.807 233.689 281.209 231.288 281.209 228.325Z" fill="#B2DDCC"/>
<path d="M266.353 228.325C266.353 225.363 263.952 222.961 260.989 222.961C258.027 222.961 255.625 225.363 255.625 228.325C255.625 231.288 258.027 233.689 260.989 233.689C263.952 233.689 266.353 231.288 266.353 228.325Z" fill="#B2DDCC"/>
<path d="M27.03 180.872C40.2474 180.872 50.9622 170.158 50.9622 156.94C50.9622 143.723 40.2474 133.008 27.03 133.008C13.8125 133.008 3.09766 143.723 3.09766 156.94C3.09766 170.158 13.8125 180.872 27.03 180.872Z" fill="white"/>
<path d="M27.0318 179.222C39.3377 179.222 49.3136 169.246 49.3136 156.94C49.3136 144.634 39.3377 134.658 27.0318 134.658C14.7259 134.658 4.75 144.634 4.75 156.94C4.75 169.246 14.7259 179.222 27.0318 179.222Z" stroke="#ECECEC" stroke-width="4"/>
<path d="M18.0781 156.818L24.1297 162.869L32.0917 154.907L35.9852 151.014" stroke="white" stroke-width="6"/>
<path d="M275.843 138.785H92.6376C89.675 138.785 87.2734 141.187 87.2734 144.149C87.2734 147.112 89.675 149.513 92.6376 149.513H275.843C278.806 149.513 281.208 147.112 281.208 144.149C281.208 141.187 278.806 138.785 275.843 138.785Z" fill="#F9D5A5"/>
<path d="M128.123 158.592H92.6376C89.675 158.592 87.2734 160.993 87.2734 163.956C87.2734 166.918 89.675 169.32 92.6376 169.32H128.123C131.086 169.32 133.488 166.918 133.488 163.956C133.488 160.993 131.086 158.592 128.123 158.592Z" fill="#F9D5A5"/>
<path d="M281.209 163.956C281.209 160.993 278.807 158.592 275.845 158.592C272.882 158.592 270.48 160.993 270.48 163.956C270.48 166.918 272.882 169.32 275.845 169.32C278.807 169.32 281.209 166.918 281.209 163.956Z" fill="#F9D5A5"/>
<path d="M266.353 163.956C266.353 160.993 263.952 158.592 260.989 158.592C258.027 158.592 255.625 160.993 255.625 163.956C255.625 166.918 258.027 169.32 260.989 169.32C263.952 169.32 266.353 166.918 266.353 163.956Z" fill="#F9D5A5"/>
<path d="M3.3304 95.8999C5.16991 108.989 17.2717 118.108 30.3605 116.269C43.4493 114.429 52.5687 102.327 50.7292 89.2384C48.8897 76.1496 36.7879 67.0303 23.6991 68.8698C10.6102 70.7093 1.49088 82.8111 3.3304 95.8999Z" fill="#6100FF"/>
<path d="M18.0781 92.4485L24.1297 98.5001L32.0917 90.5381L35.9852 86.6445" stroke="white" stroke-width="6"/>
<path d="M275.847 74.418H92.6415C89.6789 74.418 87.2773 76.8196 87.2773 79.7821C87.2773 82.7446 89.6789 85.1462 92.6415 85.1462H275.847C278.81 85.1462 281.211 82.7446 281.211 79.7821C281.211 76.8196 278.81 74.418 275.847 74.418Z" fill="#E9D5F5"/>
<path d="M128.127 94.2227H92.6415C89.6789 94.2227 87.2773 96.6243 87.2773 99.5868C87.2773 102.549 89.6789 104.951 92.6415 104.951H128.127C131.09 104.951 133.491 102.549 133.491 99.5868C133.491 96.6243 131.09 94.2227 128.127 94.2227Z" fill="#E9D5F5"/>
<path d="M281.209 99.5868C281.209 96.6243 278.807 94.2227 275.845 94.2227C272.882 94.2227 270.48 96.6243 270.48 99.5868C270.48 102.549 272.882 104.951 275.845 104.951C278.807 104.951 281.209 102.549 281.209 99.5868Z" fill="#E9D5F5"/>
<path d="M266.353 99.5868C266.353 96.6243 263.952 94.2227 260.989 94.2227C258.027 94.2227 255.625 96.6243 255.625 99.5868C255.625 102.549 258.027 104.951 260.989 104.951C263.952 104.951 266.353 102.549 266.353 99.5868Z" fill="#E9D5F5"/>
<defs>
<filter id="filter0_d_248_672" x="10.0352" y="0" width="326.964" height="321.188" filterUnits="userSpaceOnUse" color-interpolation-filters="sRGB">
<feFlood flood-opacity="0" result="BackgroundImageFix"/>
<feColorMatrix in="SourceAlpha" type="matrix" values="0 0 0 0 0 0 0 0 0 0 0 0 0 0 0 0 0 0 127 0" result="hardAlpha"/>
<feOffset dy="2"/>
<feGaussianBlur stdDeviation="8.5"/>
<feColorMatrix type="matrix" values="0 0 0 0 0 0 0 0 0 0 0 0 0 0 0 0 0 0 0.05 0"/>
<feBlend mode="normal" in2="BackgroundImageFix" result="effect1_dropShadow_248_672"/>
<feBlend mode="normal" in="SourceGraphic" in2="effect1_dropShadow_248_672" result="shape"/>
</filter>
</defs>
</svg>
