<svg width="119" height="28" viewBox="0 0 119 28" fill="none" xmlns="http://www.w3.org/2000/svg">
<path d="M12.5 26C19.4036 26 25 20.4036 25 13.5C25 6.59644 19.4036 1 12.5 1C5.59644 1 -1.65164e-07 6.59644 -3.68904e-07 13.5C-5.72644e-07 20.4036 5.59644 26 12.5 26Z" fill="url(#paint0_linear_294_1412)"/>
<path d="M7.82324 13.4365L10.984 16.5973L15.1426 12.4386L17.1763 10.405" stroke="white" stroke-width="2"/>
<path d="M34.56 21V9.4H30.48V7H41.28V9.4H37.2V21H34.56ZM47.9514 21.28C46.1914 21.28 44.7914 20.8 43.7514 19.84C42.7114 18.8667 42.1914 17.48 42.1914 15.68V12.32C42.1914 10.52 42.7114 9.14 43.7514 8.18C44.7914 7.20667 46.1914 6.72 47.9514 6.72C49.7114 6.72 51.1114 7.20667 52.1514 8.18C53.1914 9.14 53.7114 10.52 53.7114 12.32V15.68C53.7114 17.48 53.1914 18.8667 52.1514 19.84C51.1114 20.8 49.7114 21.28 47.9514 21.28ZM47.9514 18.92C48.9381 18.92 49.7047 18.6333 50.2514 18.06C50.7981 17.4867 51.0714 16.72 51.0714 15.76V12.24C51.0714 11.28 50.7981 10.5133 50.2514 9.94C49.7047 9.36667 48.9381 9.08 47.9514 9.08C46.9781 9.08 46.2114 9.36667 45.6514 9.94C45.1047 10.5133 44.8314 11.28 44.8314 12.24V15.76C44.8314 16.72 45.1047 17.4867 45.6514 18.06C46.2114 18.6333 46.9781 18.92 47.9514 18.92ZM55.1778 21V18.68H57.0178V9.32H55.1778V7H62.3778C63.2311 7 63.9711 7.14667 64.5978 7.44C65.2378 7.72 65.7311 8.12667 66.0778 8.66C66.4378 9.18 66.6178 9.80667 66.6178 10.54V10.74C66.6178 11.38 66.4978 11.9067 66.2578 12.32C66.0178 12.72 65.7311 13.0333 65.3978 13.26C65.0778 13.4733 64.7711 13.6267 64.4778 13.72V14.08C64.7711 14.16 65.0911 14.3133 65.4378 14.54C65.7845 14.7533 66.0778 15.0667 66.3178 15.48C66.5711 15.8933 66.6978 16.4333 66.6978 17.1V17.3C66.6978 18.0733 66.5178 18.74 66.1578 19.3C65.7978 19.8467 65.2978 20.2667 64.6578 20.56C64.0311 20.8533 63.2978 21 62.4578 21H55.1778ZM59.6578 18.6H62.1378C62.7111 18.6 63.1711 18.46 63.5178 18.18C63.8778 17.9 64.0578 17.5 64.0578 16.98V16.78C64.0578 16.26 63.8845 15.86 63.5378 15.58C63.1911 15.3 62.7245 15.16 62.1378 15.16H59.6578V18.6ZM59.6578 12.76H62.0978C62.6445 12.76 63.0911 12.62 63.4378 12.34C63.7978 12.06 63.9778 11.6733 63.9778 11.18V10.98C63.9778 10.4733 63.8045 10.0867 63.4578 9.82C63.1111 9.54 62.6578 9.4 62.0978 9.4H59.6578V12.76ZM68.8591 21V7H77.8591V9.4H71.4991V12.74H77.2991V15.14H71.4991V18.6H77.9791V21H68.8591ZM79.9333 21V7H82.5733V18.6H88.9733V21H79.9333ZM90.7731 21V7H93.4131V21H90.7731ZM100.907 21.28C99.8266 21.28 98.8732 21.0867 98.0466 20.7C97.2199 20.3133 96.5732 19.76 96.1066 19.04C95.6399 18.32 95.4066 17.4533 95.4066 16.44V15.88H98.0066V16.44C98.0066 17.28 98.2666 17.9133 98.7866 18.34C99.3066 18.7533 100.013 18.96 100.907 18.96C101.813 18.96 102.487 18.78 102.927 18.42C103.38 18.06 103.607 17.6 103.607 17.04C103.607 16.6533 103.493 16.34 103.267 16.1C103.053 15.86 102.733 15.6667 102.307 15.52C101.893 15.36 101.387 15.2133 100.787 15.08L100.327 14.98C99.3666 14.7667 98.5399 14.5 97.8466 14.18C97.1666 13.8467 96.6399 13.4133 96.2666 12.88C95.9066 12.3467 95.7266 11.6533 95.7266 10.8C95.7266 9.94667 95.9266 9.22 96.3266 8.62C96.7399 8.00667 97.3132 7.54 98.0466 7.22C98.7932 6.88667 99.6666 6.72 100.667 6.72C101.667 6.72 102.553 6.89333 103.327 7.24C104.113 7.57333 104.727 8.08 105.167 8.76C105.62 9.42667 105.847 10.2667 105.847 11.28V11.88H103.247V11.28C103.247 10.7467 103.14 10.32 102.927 10C102.727 9.66667 102.433 9.42667 102.047 9.28C101.66 9.12 101.2 9.04 100.667 9.04C99.8666 9.04 99.2732 9.19333 98.8866 9.5C98.5132 9.79333 98.3266 10.2 98.3266 10.72C98.3266 11.0667 98.4132 11.36 98.5866 11.6C98.7732 11.84 99.0466 12.04 99.4066 12.2C99.7666 12.36 100.227 12.5 100.787 12.62L101.247 12.72C102.247 12.9333 103.113 13.2067 103.847 13.54C104.593 13.8733 105.173 14.3133 105.587 14.86C106 15.4067 106.207 16.1067 106.207 16.96C106.207 17.8133 105.987 18.5667 105.547 19.22C105.12 19.86 104.507 20.3667 103.707 20.74C102.92 21.1 101.987 21.28 100.907 21.28ZM110.966 21V9.4H106.886V7H117.686V9.4H113.606V21H110.966Z" fill="url(#paint1_linear_294_1412)"/>
<defs>
<linearGradient id="paint0_linear_294_1412" x1="15.0586" y1="30.6453" x2="-6.27682" y2="11.3258" gradientUnits="userSpaceOnUse">
<stop offset="0.0940751" stop-color="#070718"/>
<stop offset="1" stop-color="#40404F"/>
</linearGradient>
<linearGradient id="paint1_linear_294_1412" x1="83.6086" y1="33.2027" x2="68.7196" y2="-9.65126" gradientUnits="userSpaceOnUse">
<stop offset="0.0940751" stop-color="#070718"/>
<stop offset="1" stop-color="#40404F"/>
</linearGradient>
</defs>
</svg>
