<svg width="159" height="44" viewBox="0 0 159 44" fill="none" xmlns="http://www.w3.org/2000/svg">
<g filter="url(#filter0_dd_1407_5209)">
<rect x="6" y="2" width="32" height="32" rx="8" fill="url(#paint0_linear_1407_5209)"/>
<rect x="6" y="2" width="32" height="32" rx="8" fill="url(#paint1_linear_1407_5209)"/>
<g filter="url(#filter1_d_1407_5209)">
<path d="M17.1329 24.0513C17.0362 23.7056 17.2228 23.3049 17.5496 23.1565L29.1405 17.8914C29.4674 17.7429 29.8107 17.9028 29.9074 18.2485L30.3249 19.7409C30.4216 20.0867 30.2351 20.4873 29.9082 20.6357L18.3173 25.9008C17.9905 26.0493 17.6471 25.8894 17.5504 25.5437L17.1329 24.0513Z" fill="white" fill-opacity="0.9"/>
<path d="M15.9035 20.2388C15.8067 19.8931 15.9933 19.4924 16.3202 19.344L27.911 14.0789C28.2379 13.9304 28.5812 14.0903 28.6779 14.436L29.0954 15.9284C29.1921 16.2742 29.0056 16.6748 28.6787 16.8232L17.0879 22.0883C16.761 22.2368 16.4176 22.0769 16.3209 21.7312L15.9035 20.2388Z" fill="white" fill-opacity="0.9"/>
<path d="M14.6749 16.4341C14.5782 16.0884 14.7648 15.6878 15.0916 15.5393L26.6825 10.2742C27.0094 10.1257 27.3527 10.2856 27.4494 10.6314L27.8669 12.1238C27.9636 12.4695 27.7771 12.8701 27.4502 13.0185L15.8593 18.2836C15.5325 18.4321 15.1891 18.2722 15.0924 17.9265L14.6749 16.4341Z" fill="white" fill-opacity="0.9"/>
</g>
</g>
<path d="M53.0099 16.0909V18.3636H46.4403V16.0909H53.0099ZM47.9318 13.4773H50.9574V23.6477C50.9574 23.9271 51 24.1449 51.0852 24.3011C51.1705 24.4527 51.2888 24.5592 51.4403 24.6207C51.5966 24.6823 51.7765 24.7131 51.9801 24.7131C52.1222 24.7131 52.2642 24.7012 52.4062 24.6776C52.5483 24.6491 52.6572 24.6278 52.733 24.6136L53.2088 26.8651C53.0573 26.9124 52.8442 26.9669 52.5696 27.0284C52.295 27.0947 51.9612 27.1349 51.5682 27.1491C50.839 27.1776 50.1998 27.0805 49.6506 26.858C49.1061 26.6354 48.6823 26.2898 48.3793 25.821C48.0762 25.3523 47.9271 24.7604 47.9318 24.0455V13.4773ZM59.7926 27.2131C58.6894 27.2131 57.7353 26.9787 56.9304 26.5099C56.1302 26.0365 55.5123 25.3783 55.0767 24.5355C54.6411 23.688 54.4233 22.7055 54.4233 21.5881C54.4233 20.4612 54.6411 19.4763 55.0767 18.6335C55.5123 17.786 56.1302 17.1278 56.9304 16.6591C57.7353 16.1856 58.6894 15.9489 59.7926 15.9489C60.8958 15.9489 61.8475 16.1856 62.6477 16.6591C63.4527 17.1278 64.0729 17.786 64.5085 18.6335C64.9441 19.4763 65.1619 20.4612 65.1619 21.5881C65.1619 22.7055 64.9441 23.688 64.5085 24.5355C64.0729 25.3783 63.4527 26.0365 62.6477 26.5099C61.8475 26.9787 60.8958 27.2131 59.7926 27.2131ZM59.8068 24.8693C60.3087 24.8693 60.7277 24.7273 61.0639 24.4432C61.4001 24.1544 61.6534 23.7614 61.8239 23.2642C61.9991 22.767 62.0866 22.2012 62.0866 21.5668C62.0866 20.9323 61.9991 20.3665 61.8239 19.8693C61.6534 19.3722 61.4001 18.9792 61.0639 18.6903C60.7277 18.4015 60.3087 18.2571 59.8068 18.2571C59.3002 18.2571 58.8741 18.4015 58.5284 18.6903C58.1875 18.9792 57.9295 19.3722 57.7543 19.8693C57.5838 20.3665 57.4986 20.9323 57.4986 21.5668C57.4986 22.2012 57.5838 22.767 57.7543 23.2642C57.9295 23.7614 58.1875 24.1544 58.5284 24.4432C58.8741 24.7273 59.3002 24.8693 59.8068 24.8693ZM67.1861 27V12.4545H70.2116V17.9233H70.304C70.4366 17.6297 70.6283 17.3314 70.8793 17.0284C71.1349 16.7206 71.4664 16.465 71.8736 16.2614C72.2855 16.053 72.7969 15.9489 73.4077 15.9489C74.2031 15.9489 74.937 16.1572 75.6094 16.5739C76.2817 16.9858 76.8191 17.6084 77.2216 18.4418C77.6241 19.2704 77.8253 20.3097 77.8253 21.5597C77.8253 22.7765 77.6288 23.804 77.2358 24.642C76.8475 25.4754 76.3172 26.1075 75.6449 26.5384C74.9773 26.9645 74.2292 27.1776 73.4006 27.1776C72.8134 27.1776 72.3139 27.0805 71.902 26.8864C71.4948 26.6922 71.161 26.4484 70.9006 26.1548C70.6402 25.8565 70.4413 25.5559 70.304 25.2528H70.169V27H67.1861ZM70.1477 21.5455C70.1477 22.1941 70.2377 22.7599 70.4176 23.2429C70.5975 23.7259 70.858 24.1023 71.1989 24.3722C71.5398 24.6373 71.9541 24.7699 72.4418 24.7699C72.9342 24.7699 73.3509 24.6349 73.6918 24.3651C74.0327 24.0904 74.2907 23.7116 74.4659 23.2287C74.6458 22.741 74.7358 22.1799 74.7358 21.5455C74.7358 20.9157 74.6482 20.3617 74.473 19.8835C74.2978 19.4053 74.0398 19.0312 73.6989 18.7614C73.358 18.4915 72.9389 18.3565 72.4418 18.3565C71.9493 18.3565 71.5327 18.4867 71.1918 18.7472C70.8556 19.0076 70.5975 19.3769 70.4176 19.8551C70.2377 20.3333 70.1477 20.8968 70.1477 21.5455ZM84.8157 27.2131C83.6935 27.2131 82.7276 26.9858 81.918 26.5312C81.113 26.072 80.4928 25.4233 80.0572 24.5852C79.6216 23.7424 79.4038 22.7457 79.4038 21.5952C79.4038 20.473 79.6216 19.4882 80.0572 18.6406C80.4928 17.7931 81.1059 17.1326 81.8967 16.6591C82.6921 16.1856 83.6249 15.9489 84.695 15.9489C85.4147 15.9489 86.0846 16.0649 86.7049 16.2969C87.3299 16.5241 87.8744 16.8674 88.3384 17.3267C88.8072 17.786 89.1718 18.3636 89.4322 19.0597C89.6926 19.7509 89.8228 20.5606 89.8228 21.4886V22.3196H80.6112V20.4446H86.9748C86.9748 20.009 86.8801 19.6231 86.6907 19.2869C86.5013 18.9508 86.2385 18.688 85.9023 18.4986C85.5709 18.3045 85.185 18.2074 84.7447 18.2074C84.2854 18.2074 83.8782 18.3139 83.5231 18.527C83.1727 18.7353 82.8981 19.017 82.6992 19.3722C82.5004 19.7225 82.3986 20.1132 82.3938 20.544V22.3267C82.3938 22.8665 82.4933 23.3329 82.6921 23.7259C82.8957 24.1188 83.1822 24.4219 83.5515 24.6349C83.9208 24.848 84.3588 24.9545 84.8654 24.9545C85.2016 24.9545 85.5094 24.9072 85.7887 24.8125C86.0681 24.7178 86.3072 24.5758 86.506 24.3864C86.7049 24.197 86.8564 23.965 86.9606 23.6903L89.7589 23.875C89.6168 24.5473 89.3256 25.1345 88.8853 25.6364C88.4497 26.1335 87.8862 26.5218 87.195 26.8011C86.5084 27.0758 85.7153 27.2131 84.8157 27.2131ZM94.8228 12.4545V27H91.7972V12.4545H94.8228ZM97.2464 27V16.0909H100.272V27H97.2464ZM98.7663 14.6847C98.3165 14.6847 97.9306 14.5355 97.6087 14.2372C97.2914 13.9342 97.1328 13.572 97.1328 13.1506C97.1328 12.7339 97.2914 12.3764 97.6087 12.0781C97.9306 11.7751 98.3165 11.6236 98.7663 11.6236C99.2161 11.6236 99.5997 11.7751 99.9169 12.0781C100.239 12.3764 100.4 12.7339 100.4 13.1506C100.4 13.572 100.239 13.9342 99.9169 14.2372C99.5997 14.5355 99.2161 14.6847 98.7663 14.6847ZM111.772 19.2017L109.002 19.3722C108.955 19.1354 108.853 18.9223 108.697 18.733C108.541 18.5388 108.335 18.3849 108.079 18.2713C107.828 18.1529 107.528 18.0938 107.177 18.0938C106.708 18.0938 106.313 18.1932 105.991 18.392C105.669 18.5862 105.508 18.8466 105.508 19.1733C105.508 19.4337 105.612 19.6539 105.821 19.8338C106.029 20.0137 106.386 20.1581 106.893 20.267L108.868 20.6648C109.928 20.8826 110.719 21.233 111.24 21.7159C111.761 22.1989 112.021 22.8333 112.021 23.6193C112.021 24.3343 111.81 24.9616 111.389 25.5014C110.972 26.0412 110.399 26.4626 109.67 26.7656C108.946 27.0639 108.11 27.2131 107.163 27.2131C105.719 27.2131 104.568 26.9124 103.711 26.3111C102.859 25.705 102.359 24.8812 102.213 23.8395L105.189 23.6832C105.279 24.1236 105.496 24.4598 105.842 24.6918C106.188 24.919 106.63 25.0327 107.17 25.0327C107.7 25.0327 108.127 24.9309 108.449 24.7273C108.775 24.5189 108.941 24.2514 108.946 23.9247C108.941 23.6501 108.825 23.4252 108.598 23.25C108.37 23.0701 108.02 22.9328 107.547 22.8381L105.657 22.4616C104.592 22.2486 103.799 21.8793 103.278 21.3537C102.762 20.8281 102.504 20.1581 102.504 19.3438C102.504 18.643 102.693 18.0393 103.072 17.5327C103.456 17.026 103.993 16.6354 104.684 16.3608C105.38 16.0862 106.195 15.9489 107.127 15.9489C108.505 15.9489 109.59 16.2401 110.38 16.8224C111.176 17.4048 111.64 18.1979 111.772 19.2017ZM119.729 16.0909V18.3636H113.159V16.0909H119.729ZM114.651 13.4773H117.676V23.6477C117.676 23.9271 117.719 24.1449 117.804 24.3011C117.889 24.4527 118.008 24.5592 118.159 24.6207C118.315 24.6823 118.495 24.7131 118.699 24.7131C118.841 24.7131 118.983 24.7012 119.125 24.6776C119.267 24.6491 119.376 24.6278 119.452 24.6136L119.928 26.8651C119.776 26.9124 119.563 26.9669 119.288 27.0284C119.014 27.0947 118.68 27.1349 118.287 27.1491C117.558 27.1776 116.919 27.0805 116.369 26.858C115.825 26.6354 115.401 26.2898 115.098 25.821C114.795 25.3523 114.646 24.7604 114.651 24.0455V13.4773ZM123.468 27.1847C122.999 27.1847 122.597 27.0189 122.261 26.6875C121.929 26.3513 121.763 25.9489 121.763 25.4801C121.763 25.0161 121.929 24.6184 122.261 24.2869C122.597 23.9555 122.999 23.7898 123.468 23.7898C123.923 23.7898 124.32 23.9555 124.661 24.2869C125.002 24.6184 125.173 25.0161 125.173 25.4801C125.173 25.7926 125.092 26.0791 124.931 26.3395C124.775 26.5952 124.569 26.8011 124.313 26.9574C124.058 27.1089 123.776 27.1847 123.468 27.1847ZM130.682 20.6932V27H127.657V16.0909H130.54V18.0156H130.668C130.909 17.3812 131.314 16.8793 131.882 16.5099C132.451 16.1359 133.14 15.9489 133.949 15.9489C134.707 15.9489 135.367 16.1146 135.931 16.446C136.494 16.7775 136.932 17.2509 137.245 17.8665C137.557 18.4773 137.713 19.2064 137.713 20.054V27H134.688V20.5938C134.693 19.9261 134.522 19.4053 134.176 19.0312C133.831 18.6525 133.355 18.4631 132.749 18.4631C132.342 18.4631 131.982 18.5507 131.669 18.7259C131.362 18.901 131.12 19.1567 130.945 19.4929C130.775 19.8243 130.687 20.2244 130.682 20.6932ZM145.07 27.2131C143.947 27.2131 142.982 26.9858 142.172 26.5312C141.367 26.072 140.747 25.4233 140.311 24.5852C139.875 23.7424 139.658 22.7457 139.658 21.5952C139.658 20.473 139.875 19.4882 140.311 18.6406C140.747 17.7931 141.36 17.1326 142.151 16.6591C142.946 16.1856 143.879 15.9489 144.949 15.9489C145.669 15.9489 146.339 16.0649 146.959 16.2969C147.584 16.5241 148.128 16.8674 148.592 17.3267C149.061 17.786 149.426 18.3636 149.686 19.0597C149.946 19.7509 150.077 20.5606 150.077 21.4886V22.3196H140.865V20.4446H147.229C147.229 20.009 147.134 19.6231 146.945 19.2869C146.755 18.9508 146.492 18.688 146.156 18.4986C145.825 18.3045 145.439 18.2074 144.999 18.2074C144.539 18.2074 144.132 18.3139 143.777 18.527C143.427 18.7353 143.152 19.017 142.953 19.3722C142.754 19.7225 142.652 20.1132 142.648 20.544V22.3267C142.648 22.8665 142.747 23.3329 142.946 23.7259C143.15 24.1188 143.436 24.4219 143.805 24.6349C144.175 24.848 144.613 24.9545 145.119 24.9545C145.455 24.9545 145.763 24.9072 146.043 24.8125C146.322 24.7178 146.561 24.5758 146.76 24.3864C146.959 24.197 147.11 23.965 147.214 23.6903L150.013 23.875C149.871 24.5473 149.58 25.1345 149.139 25.6364C148.704 26.1335 148.14 26.5218 147.449 26.8011C146.762 27.0758 145.969 27.2131 145.07 27.2131ZM157.854 16.0909V18.3636H151.284V16.0909H157.854ZM152.776 13.4773H155.801V23.6477C155.801 23.9271 155.844 24.1449 155.929 24.3011C156.014 24.4527 156.133 24.5592 156.284 24.6207C156.44 24.6823 156.62 24.7131 156.824 24.7131C156.966 24.7131 157.108 24.7012 157.25 24.6776C157.392 24.6491 157.501 24.6278 157.577 24.6136L158.053 26.8651C157.901 26.9124 157.688 26.9669 157.413 27.0284C157.139 27.0947 156.805 27.1349 156.412 27.1491C155.683 27.1776 155.044 27.0805 154.494 26.858C153.95 26.6354 153.526 26.2898 153.223 25.821C152.92 25.3523 152.771 24.7604 152.776 24.0455V13.4773Z" fill="#313234"/>
<defs>
<filter id="filter0_dd_1407_5209" x="0" y="0" width="44" height="44" filterUnits="userSpaceOnUse" color-interpolation-filters="sRGB">
<feFlood flood-opacity="0" result="BackgroundImageFix"/>
<feColorMatrix in="SourceAlpha" type="matrix" values="0 0 0 0 0 0 0 0 0 0 0 0 0 0 0 0 0 0 127 0" result="hardAlpha"/>
<feMorphology radius="2" operator="erode" in="SourceAlpha" result="effect1_dropShadow_1407_5209"/>
<feOffset dy="2"/>
<feGaussianBlur stdDeviation="2"/>
<feColorMatrix type="matrix" values="0 0 0 0 0.0745098 0 0 0 0 0.101961 0 0 0 0 0.160784 0 0 0 0.04 0"/>
<feBlend mode="normal" in2="BackgroundImageFix" result="effect1_dropShadow_1407_5209"/>
<feColorMatrix in="SourceAlpha" type="matrix" values="0 0 0 0 0 0 0 0 0 0 0 0 0 0 0 0 0 0 127 0" result="hardAlpha"/>
<feMorphology radius="2" operator="erode" in="SourceAlpha" result="effect2_dropShadow_1407_5209"/>
<feOffset dy="4"/>
<feGaussianBlur stdDeviation="4"/>
<feColorMatrix type="matrix" values="0 0 0 0 0.0745098 0 0 0 0 0.101961 0 0 0 0 0.160784 0 0 0 0.12 0"/>
<feBlend mode="normal" in2="effect1_dropShadow_1407_5209" result="effect2_dropShadow_1407_5209"/>
<feBlend mode="normal" in="SourceGraphic" in2="effect2_dropShadow_1407_5209" result="shape"/>
</filter>
<filter id="filter1_d_1407_5209" x="11.6494" y="8.21875" width="21.7012" height="21.7344" filterUnits="userSpaceOnUse" color-interpolation-filters="sRGB">
<feFlood flood-opacity="0" result="BackgroundImageFix"/>
<feColorMatrix in="SourceAlpha" type="matrix" values="0 0 0 0 0 0 0 0 0 0 0 0 0 0 0 0 0 0 127 0" result="hardAlpha"/>
<feOffset dy="1"/>
<feGaussianBlur stdDeviation="1.5"/>
<feColorMatrix type="matrix" values="0 0 0 0 0.0745098 0 0 0 0 0.101961 0 0 0 0 0.160784 0 0 0 0.3 0"/>
<feBlend mode="normal" in2="BackgroundImageFix" result="effect1_dropShadow_1407_5209"/>
<feBlend mode="normal" in="SourceGraphic" in2="effect1_dropShadow_1407_5209" result="shape"/>
</filter>
<linearGradient id="paint0_linear_1407_5209" x1="29.5556" y1="2" x2="8.22222" y2="34" gradientUnits="userSpaceOnUse">
<stop offset="0.0833333" stop-color="#808BF7"/>
<stop offset="1" stop-color="#483DD0"/>
</linearGradient>
<linearGradient id="paint1_linear_1407_5209" x1="29.5556" y1="2" x2="8.22222" y2="34" gradientUnits="userSpaceOnUse">
<stop offset="0.0833333" stop-color="#2463FF"/>
<stop offset="1" stop-color="#195BFF"/>
</linearGradient>
</defs>
</svg>
