<svg width="149" height="30" viewBox="0 0 149 30" fill="none" xmlns="http://www.w3.org/2000/svg">
<path d="M42.0138 11.1065V13.3793H35.4442V11.1065H42.0138ZM36.9357 8.4929H39.9613V18.6634C39.9613 18.9427 40.0039 19.1605 40.0891 19.3168C40.1744 19.4683 40.2927 19.5748 40.4442 19.6364C40.6005 19.6979 40.7804 19.7287 40.984 19.7287C41.1261 19.7287 41.2681 19.7169 41.4102 19.6932C41.5522 19.6648 41.6611 19.6435 41.7369 19.6293L42.2127 21.8807C42.0612 21.928 41.8481 21.9825 41.5735 22.044C41.2989 22.1103 40.9651 22.1506 40.5721 22.1648C39.8429 22.1932 39.2037 22.0961 38.6545 21.8736C38.11 21.651 37.6862 21.3054 37.3832 20.8366C37.0801 20.3679 36.931 19.776 36.9357 19.0611V8.4929ZM48.7965 22.2287C47.6933 22.2287 46.7392 21.9943 45.9343 21.5256C45.1341 21.0521 44.5162 20.3939 44.0806 19.5511C43.645 18.7036 43.4272 17.7211 43.4272 16.6037C43.4272 15.4768 43.645 14.492 44.0806 13.6491C44.5162 12.8016 45.1341 12.1435 45.9343 11.6747C46.7392 11.2012 47.6933 10.9645 48.7965 10.9645C49.8997 10.9645 50.8514 11.2012 51.6516 11.6747C52.4566 12.1435 53.0768 12.8016 53.5124 13.6491C53.948 14.492 54.1658 15.4768 54.1658 16.6037C54.1658 17.7211 53.948 18.7036 53.5124 19.5511C53.0768 20.3939 52.4566 21.0521 51.6516 21.5256C50.8514 21.9943 49.8997 22.2287 48.7965 22.2287ZM48.8107 19.8849C49.3126 19.8849 49.7317 19.7429 50.0678 19.4588C50.404 19.17 50.6573 18.777 50.8278 18.2798C51.003 17.7827 51.0906 17.2169 51.0906 16.5824C51.0906 15.9479 51.003 15.3821 50.8278 14.8849C50.6573 14.3878 50.404 13.9948 50.0678 13.706C49.7317 13.4171 49.3126 13.2727 48.8107 13.2727C48.3041 13.2727 47.878 13.4171 47.5323 13.706C47.1914 13.9948 46.9334 14.3878 46.7582 14.8849C46.5877 15.3821 46.5025 15.9479 46.5025 16.5824C46.5025 17.2169 46.5877 17.7827 46.7582 18.2798C46.9334 18.777 47.1914 19.17 47.5323 19.4588C47.878 19.7429 48.3041 19.8849 48.8107 19.8849ZM56.19 22.0156V7.47017H59.2156V12.9389H59.3079C59.4405 12.6454 59.6322 12.3471 59.8832 12.044C60.1388 11.7363 60.4703 11.4806 60.8775 11.277C61.2894 11.0687 61.8008 10.9645 62.4116 10.9645C63.207 10.9645 63.9409 11.1728 64.6133 11.5895C65.2856 12.0014 65.823 12.6241 66.2255 13.4574C66.628 14.286 66.8292 15.3253 66.8292 16.5753C66.8292 17.7921 66.6327 18.8196 66.2397 19.6577C65.8514 20.491 65.3211 21.1231 64.6488 21.554C63.9812 21.9801 63.2331 22.1932 62.4045 22.1932C61.8174 22.1932 61.3178 22.0961 60.9059 21.902C60.4987 21.7079 60.1649 21.464 59.9045 21.1705C59.6441 20.8722 59.4452 20.5715 59.3079 20.2685H59.1729V22.0156H56.19ZM59.1516 16.5611C59.1516 17.2098 59.2416 17.7756 59.4215 18.2585C59.6014 18.7415 59.8619 19.1179 60.2028 19.3878C60.5437 19.6529 60.958 19.7855 61.4457 19.7855C61.9381 19.7855 62.3548 19.6506 62.6957 19.3807C63.0366 19.1061 63.2946 18.7273 63.4698 18.2443C63.6497 17.7566 63.7397 17.1955 63.7397 16.5611C63.7397 15.9313 63.6521 15.3774 63.4769 14.8991C63.3017 14.4209 63.0437 14.0469 62.7028 13.777C62.3619 13.5071 61.9428 13.3722 61.4457 13.3722C60.9532 13.3722 60.5366 13.5024 60.1957 13.7628C59.8595 14.0232 59.6014 14.3925 59.4215 14.8707C59.2416 15.349 59.1516 15.9124 59.1516 16.5611ZM73.8196 22.2287C72.6974 22.2287 71.7315 22.0014 70.9219 21.5469C70.117 21.0876 69.4967 20.4389 69.0611 19.6009C68.6255 18.758 68.4077 17.7614 68.4077 16.6108C68.4077 15.4886 68.6255 14.5038 69.0611 13.6562C69.4967 12.8087 70.1098 12.1482 70.9006 11.6747C71.696 11.2012 72.6288 10.9645 73.6989 10.9645C74.4186 10.9645 75.0885 11.0805 75.7088 11.3125C76.3338 11.5398 76.8783 11.883 77.3423 12.3423C77.8111 12.8016 78.1757 13.3793 78.4361 14.0753C78.6965 14.7666 78.8267 15.5762 78.8267 16.5043V17.3352H69.6151V15.4602H75.9787C75.9787 15.0246 75.884 14.6387 75.6946 14.3026C75.5052 13.9664 75.2424 13.7036 74.9062 13.5142C74.5748 13.3201 74.1889 13.223 73.7486 13.223C73.2893 13.223 72.8821 13.3295 72.527 13.5426C72.1766 13.7509 71.902 14.0327 71.7031 14.3878C71.5043 14.7382 71.4025 15.1288 71.3977 15.5597V17.3423C71.3977 17.8821 71.4972 18.3485 71.696 18.7415C71.8996 19.1345 72.1861 19.4375 72.5554 19.6506C72.9247 19.8636 73.3627 19.9702 73.8693 19.9702C74.2055 19.9702 74.5133 19.9228 74.7926 19.8281C75.072 19.7334 75.3111 19.5914 75.5099 19.402C75.7088 19.2126 75.8603 18.9806 75.9645 18.706L78.7628 18.8906C78.6207 19.563 78.3295 20.1501 77.8892 20.652C77.4536 21.1491 76.8902 21.5374 76.1989 21.8168C75.5123 22.0914 74.7192 22.2287 73.8196 22.2287ZM83.8267 7.47017V22.0156H80.8011V7.47017H83.8267ZM86.2504 22.0156V11.1065H89.2759V22.0156H86.2504ZM87.7702 9.70028C87.3204 9.70028 86.9345 9.55114 86.6126 9.25284C86.2953 8.94981 86.1367 8.58759 86.1367 8.16619C86.1367 7.74953 86.2953 7.39205 86.6126 7.09375C86.9345 6.79072 87.3204 6.6392 87.7702 6.6392C88.2201 6.6392 88.6036 6.79072 88.9208 7.09375C89.2428 7.39205 89.4038 7.74953 89.4038 8.16619C89.4038 8.58759 89.2428 8.94981 88.9208 9.25284C88.6036 9.55114 88.2201 9.70028 87.7702 9.70028ZM100.776 14.2173L98.0064 14.3878C97.959 14.151 97.8572 13.938 97.701 13.7486C97.5447 13.5545 97.3388 13.4006 97.0831 13.2869C96.8321 13.1686 96.5315 13.1094 96.1811 13.1094C95.7124 13.1094 95.317 13.2088 94.995 13.4077C94.6731 13.6018 94.5121 13.8622 94.5121 14.1889C94.5121 14.4493 94.6162 14.6695 94.8246 14.8494C95.0329 15.0294 95.3904 15.1738 95.897 15.2827L97.8714 15.6804C98.9321 15.8982 99.7228 16.2486 100.244 16.7315C100.764 17.2145 101.025 17.849 101.025 18.6349C101.025 19.3499 100.814 19.9773 100.393 20.517C99.9761 21.0568 99.4032 21.4782 98.674 21.7812C97.9496 22.0795 97.1139 22.2287 96.1669 22.2287C94.7228 22.2287 93.5722 21.928 92.7152 21.3267C91.8629 20.7206 91.3634 19.8968 91.2166 18.8551L94.1925 18.6989C94.2824 19.1392 94.5002 19.4754 94.8459 19.7074C95.1915 19.9347 95.6342 20.0483 96.174 20.0483C96.7043 20.0483 97.1304 19.9465 97.4524 19.7429C97.7791 19.5346 97.9448 19.267 97.9496 18.9403C97.9448 18.6657 97.8288 18.4408 97.6016 18.2656C97.3743 18.0857 97.0239 17.9484 96.5504 17.8537L94.6612 17.4773C93.5959 17.2642 92.8028 16.8949 92.282 16.3693C91.7659 15.8437 91.5078 15.1738 91.5078 14.3594C91.5078 13.6586 91.6972 13.0549 92.076 12.5483C92.4595 12.0417 92.9969 11.651 93.6882 11.3764C94.3842 11.1018 95.1986 10.9645 96.1314 10.9645C97.5092 10.9645 98.5935 11.2557 99.3842 11.8381C100.18 12.4205 100.644 13.2135 100.776 14.2173ZM108.733 11.1065V13.3793H102.163V11.1065H108.733ZM103.654 8.4929H106.68V18.6634C106.68 18.9427 106.723 19.1605 106.808 19.3168C106.893 19.4683 107.011 19.5748 107.163 19.6364C107.319 19.6979 107.499 19.7287 107.703 19.7287C107.845 19.7287 107.987 19.7169 108.129 19.6932C108.271 19.6648 108.38 19.6435 108.456 19.6293L108.931 21.8807C108.78 21.928 108.567 21.9825 108.292 22.044C108.018 22.1103 107.684 22.1506 107.291 22.1648C106.562 22.1932 105.922 22.0961 105.373 21.8736C104.829 21.651 104.405 21.3054 104.102 20.8366C103.799 20.3679 103.65 19.776 103.654 19.0611V8.4929ZM112.472 22.2003C112.003 22.2003 111.601 22.0346 111.265 21.7031C110.933 21.367 110.767 20.9645 110.767 20.4957C110.767 20.0317 110.933 19.634 111.265 19.3026C111.601 18.9711 112.003 18.8054 112.472 18.8054C112.926 18.8054 113.324 18.9711 113.665 19.3026C114.006 19.634 114.176 20.0317 114.176 20.4957C114.176 20.8082 114.096 21.0947 113.935 21.3551C113.779 21.6108 113.573 21.8168 113.317 21.973C113.061 22.1245 112.78 22.2003 112.472 22.2003ZM119.686 15.7088V22.0156H116.661V11.1065H119.544V13.0312H119.672C119.913 12.3968 120.318 11.8949 120.886 11.5256C121.455 11.1515 122.143 10.9645 122.953 10.9645C123.711 10.9645 124.371 11.1302 124.935 11.4616C125.498 11.7931 125.936 12.2666 126.249 12.8821C126.561 13.4929 126.717 14.2221 126.717 15.0696V22.0156H123.692V15.6094C123.696 14.9418 123.526 14.4209 123.18 14.0469C122.835 13.6681 122.359 13.4787 121.753 13.4787C121.346 13.4787 120.986 13.5663 120.673 13.7415C120.366 13.9167 120.124 14.1723 119.949 14.5085C119.778 14.84 119.691 15.2401 119.686 15.7088ZM134.074 22.2287C132.951 22.2287 131.985 22.0014 131.176 21.5469C130.371 21.0876 129.751 20.4389 129.315 19.6009C128.879 18.758 128.662 17.7614 128.662 16.6108C128.662 15.4886 128.879 14.5038 129.315 13.6562C129.751 12.8087 130.364 12.1482 131.154 11.6747C131.95 11.2012 132.883 10.9645 133.953 10.9645C134.672 10.9645 135.342 11.0805 135.963 11.3125C136.588 11.5398 137.132 11.883 137.596 12.3423C138.065 12.8016 138.43 13.3793 138.69 14.0753C138.95 14.7666 139.081 15.5762 139.081 16.5043V17.3352H129.869V15.4602H136.233C136.233 15.0246 136.138 14.6387 135.949 14.3026C135.759 13.9664 135.496 13.7036 135.16 13.5142C134.829 13.3201 134.443 13.223 134.002 13.223C133.543 13.223 133.136 13.3295 132.781 13.5426C132.431 13.7509 132.156 14.0327 131.957 14.3878C131.758 14.7382 131.656 15.1288 131.652 15.5597V17.3423C131.652 17.8821 131.751 18.3485 131.95 18.7415C132.154 19.1345 132.44 19.4375 132.809 19.6506C133.179 19.8636 133.617 19.9702 134.123 19.9702C134.459 19.9702 134.767 19.9228 135.047 19.8281C135.326 19.7334 135.565 19.5914 135.764 19.402C135.963 19.2126 136.114 18.9806 136.218 18.706L139.017 18.8906C138.875 19.563 138.583 20.1501 138.143 20.652C137.708 21.1491 137.144 21.5374 136.453 21.8168C135.766 22.0914 134.973 22.2287 134.074 22.2287ZM146.858 11.1065V13.3793H140.288V11.1065H146.858ZM141.779 8.4929H144.805V18.6634C144.805 18.9427 144.848 19.1605 144.933 19.3168C145.018 19.4683 145.136 19.5748 145.288 19.6364C145.444 19.6979 145.624 19.7287 145.828 19.7287C145.97 19.7287 146.112 19.7169 146.254 19.6932C146.396 19.6648 146.505 19.6435 146.581 19.6293L147.056 21.8807C146.905 21.928 146.692 21.9825 146.417 22.044C146.143 22.1103 145.809 22.1506 145.416 22.1648C144.687 22.1932 144.047 22.0961 143.498 21.8736C142.954 21.651 142.53 21.3054 142.227 20.8366C141.924 20.3679 141.775 19.776 141.779 19.0611V8.4929Z" fill="#313234"/>
<rect width="23.6817" height="4.80988" rx="0.3" transform="matrix(0.91047 -0.413576 0.269398 0.963029 4.14844 24.6406)" fill="#195BFF"/>
<rect width="23.6817" height="4.80988" rx="0.3" transform="matrix(0.91047 -0.413576 0.269398 0.963029 2.07422 17.2266)" fill="#195BFF"/>
<rect width="23.6817" height="4.80988" rx="0.3" transform="matrix(0.91047 -0.413576 0.269398 0.963029 0 9.8125)" fill="#195BFF"/>
</svg>
