<svg width="167" height="52" viewBox="0 0 167 52" fill="none" xmlns="http://www.w3.org/2000/svg">
<g filter="url(#filter0_dd_1171_4846)">
<rect x="6" y="2" width="40" height="40" rx="10" fill="url(#paint0_linear_1171_4846)"/>
<rect x="6" y="2" width="40" height="40" rx="10" fill="url(#paint1_linear_1171_4846)"/>
<g filter="url(#filter1_d_1171_4846)">
<path d="M19.9159 29.5563C19.7951 29.1241 20.0283 28.6234 20.4368 28.4378L34.9254 21.8564C35.334 21.6708 35.7632 21.8707 35.884 22.3029L36.4059 24.1684C36.5268 24.6005 36.2936 25.1013 35.885 25.2869L21.3964 31.8682C20.9879 32.0538 20.5587 31.8539 20.4378 31.4218L19.9159 29.5563Z" fill="white" fill-opacity="0.9"/>
<path d="M18.3791 24.7907C18.2582 24.3585 18.4914 23.8577 18.8999 23.6722L33.3885 17.0908C33.7971 16.9052 34.2263 17.1051 34.3472 17.5372L34.869 19.4027C34.9899 19.8349 34.7567 20.3356 34.3482 20.5212L19.8596 27.1026C19.451 27.2882 19.0218 27.0883 18.9009 26.6562L18.3791 24.7907Z" fill="white" fill-opacity="0.9"/>
<path d="M16.8434 20.0348C16.7225 19.6027 16.9557 19.1019 17.3643 18.9163L31.8529 12.3349C32.2615 12.1494 32.6907 12.3492 32.8115 12.7814L33.3334 14.6469C33.4543 15.079 33.2211 15.5798 32.8125 15.7654L18.3239 22.3467C17.9154 22.5323 17.4862 22.3324 17.3653 21.9003L16.8434 20.0348Z" fill="white" fill-opacity="0.9"/>
</g>
</g>
<path d="M61.0099 18.0909V20.3636H54.4403V18.0909H61.0099ZM55.9318 15.4773H58.9574V25.6477C58.9574 25.9271 59 26.1449 59.0852 26.3011C59.1705 26.4527 59.2888 26.5592 59.4403 26.6207C59.5966 26.6823 59.7765 26.7131 59.9801 26.7131C60.1222 26.7131 60.2642 26.7012 60.4062 26.6776C60.5483 26.6491 60.6572 26.6278 60.733 26.6136L61.2088 28.8651C61.0573 28.9124 60.8442 28.9669 60.5696 29.0284C60.295 29.0947 59.9612 29.1349 59.5682 29.1491C58.839 29.1776 58.1998 29.0805 57.6506 28.858C57.1061 28.6354 56.6823 28.2898 56.3793 27.821C56.0762 27.3523 55.9271 26.7604 55.9318 26.0455V15.4773ZM67.7926 29.2131C66.6894 29.2131 65.7353 28.9787 64.9304 28.5099C64.1302 28.0365 63.5123 27.3783 63.0767 26.5355C62.6411 25.688 62.4233 24.7055 62.4233 23.5881C62.4233 22.4612 62.6411 21.4763 63.0767 20.6335C63.5123 19.786 64.1302 19.1278 64.9304 18.6591C65.7353 18.1856 66.6894 17.9489 67.7926 17.9489C68.8958 17.9489 69.8475 18.1856 70.6477 18.6591C71.4527 19.1278 72.0729 19.786 72.5085 20.6335C72.9441 21.4763 73.1619 22.4612 73.1619 23.5881C73.1619 24.7055 72.9441 25.688 72.5085 26.5355C72.0729 27.3783 71.4527 28.0365 70.6477 28.5099C69.8475 28.9787 68.8958 29.2131 67.7926 29.2131ZM67.8068 26.8693C68.3087 26.8693 68.7277 26.7273 69.0639 26.4432C69.4001 26.1544 69.6534 25.7614 69.8239 25.2642C69.9991 24.767 70.0866 24.2012 70.0866 23.5668C70.0866 22.9323 69.9991 22.3665 69.8239 21.8693C69.6534 21.3722 69.4001 20.9792 69.0639 20.6903C68.7277 20.4015 68.3087 20.2571 67.8068 20.2571C67.3002 20.2571 66.8741 20.4015 66.5284 20.6903C66.1875 20.9792 65.9295 21.3722 65.7543 21.8693C65.5838 22.3665 65.4986 22.9323 65.4986 23.5668C65.4986 24.2012 65.5838 24.767 65.7543 25.2642C65.9295 25.7614 66.1875 26.1544 66.5284 26.4432C66.8741 26.7273 67.3002 26.8693 67.8068 26.8693ZM75.1861 29V14.4545H78.2116V19.9233H78.304C78.4366 19.6297 78.6283 19.3314 78.8793 19.0284C79.1349 18.7206 79.4664 18.465 79.8736 18.2614C80.2855 18.053 80.7969 17.9489 81.4077 17.9489C82.2031 17.9489 82.937 18.1572 83.6094 18.5739C84.2817 18.9858 84.8191 19.6084 85.2216 20.4418C85.6241 21.2704 85.8253 22.3097 85.8253 23.5597C85.8253 24.7765 85.6288 25.804 85.2358 26.642C84.8475 27.4754 84.3172 28.1075 83.6449 28.5384C82.9773 28.9645 82.2292 29.1776 81.4006 29.1776C80.8134 29.1776 80.3139 29.0805 79.902 28.8864C79.4948 28.6922 79.161 28.4484 78.9006 28.1548C78.6402 27.8565 78.4413 27.5559 78.304 27.2528H78.169V29H75.1861ZM78.1477 23.5455C78.1477 24.1941 78.2377 24.7599 78.4176 25.2429C78.5975 25.7259 78.858 26.1023 79.1989 26.3722C79.5398 26.6373 79.9541 26.7699 80.4418 26.7699C80.9342 26.7699 81.3509 26.6349 81.6918 26.3651C82.0327 26.0904 82.2907 25.7116 82.4659 25.2287C82.6458 24.741 82.7358 24.1799 82.7358 23.5455C82.7358 22.9157 82.6482 22.3617 82.473 21.8835C82.2978 21.4053 82.0398 21.0312 81.6989 20.7614C81.358 20.4915 80.9389 20.3565 80.4418 20.3565C79.9493 20.3565 79.5327 20.4867 79.1918 20.7472C78.8556 21.0076 78.5975 21.3769 78.4176 21.8551C78.2377 22.3333 78.1477 22.8968 78.1477 23.5455ZM92.8157 29.2131C91.6935 29.2131 90.7276 28.9858 89.918 28.5312C89.113 28.072 88.4928 27.4233 88.0572 26.5852C87.6216 25.7424 87.4038 24.7457 87.4038 23.5952C87.4038 22.473 87.6216 21.4882 88.0572 20.6406C88.4928 19.7931 89.1059 19.1326 89.8967 18.6591C90.6921 18.1856 91.6249 17.9489 92.695 17.9489C93.4147 17.9489 94.0846 18.0649 94.7049 18.2969C95.3299 18.5241 95.8744 18.8674 96.3384 19.3267C96.8072 19.786 97.1718 20.3636 97.4322 21.0597C97.6926 21.7509 97.8228 22.5606 97.8228 23.4886V24.3196H88.6112V22.4446H94.9748C94.9748 22.009 94.8801 21.6231 94.6907 21.2869C94.5013 20.9508 94.2385 20.688 93.9023 20.4986C93.5709 20.3045 93.185 20.2074 92.7447 20.2074C92.2854 20.2074 91.8782 20.3139 91.5231 20.527C91.1727 20.7353 90.8981 21.017 90.6992 21.3722C90.5004 21.7225 90.3986 22.1132 90.3938 22.544V24.3267C90.3938 24.8665 90.4933 25.3329 90.6921 25.7259C90.8957 26.1188 91.1822 26.4219 91.5515 26.6349C91.9208 26.848 92.3588 26.9545 92.8654 26.9545C93.2016 26.9545 93.5094 26.9072 93.7887 26.8125C94.0681 26.7178 94.3072 26.5758 94.506 26.3864C94.7049 26.197 94.8564 25.965 94.9606 25.6903L97.7589 25.875C97.6168 26.5473 97.3256 27.1345 96.8853 27.6364C96.4497 28.1335 95.8862 28.5218 95.195 28.8011C94.5084 29.0758 93.7153 29.2131 92.8157 29.2131ZM102.823 14.4545V29H99.7972V14.4545H102.823ZM105.246 29V18.0909H108.272V29H105.246ZM106.766 16.6847C106.317 16.6847 105.931 16.5355 105.609 16.2372C105.291 15.9342 105.133 15.572 105.133 15.1506C105.133 14.7339 105.291 14.3764 105.609 14.0781C105.931 13.7751 106.317 13.6236 106.766 13.6236C107.216 13.6236 107.6 13.7751 107.917 14.0781C108.239 14.3764 108.4 14.7339 108.4 15.1506C108.4 15.572 108.239 15.9342 107.917 16.2372C107.6 16.5355 107.216 16.6847 106.766 16.6847ZM119.772 21.2017L117.002 21.3722C116.955 21.1354 116.853 20.9223 116.697 20.733C116.541 20.5388 116.335 20.3849 116.079 20.2713C115.828 20.1529 115.528 20.0938 115.177 20.0938C114.708 20.0938 114.313 20.1932 113.991 20.392C113.669 20.5862 113.508 20.8466 113.508 21.1733C113.508 21.4337 113.612 21.6539 113.821 21.8338C114.029 22.0137 114.386 22.1581 114.893 22.267L116.868 22.6648C117.928 22.8826 118.719 23.233 119.24 23.7159C119.761 24.1989 120.021 24.8333 120.021 25.6193C120.021 26.3343 119.81 26.9616 119.389 27.5014C118.972 28.0412 118.399 28.4626 117.67 28.7656C116.946 29.0639 116.11 29.2131 115.163 29.2131C113.719 29.2131 112.568 28.9124 111.711 28.3111C110.859 27.705 110.359 26.8812 110.213 25.8395L113.189 25.6832C113.279 26.1236 113.496 26.4598 113.842 26.6918C114.188 26.919 114.63 27.0327 115.17 27.0327C115.7 27.0327 116.127 26.9309 116.449 26.7273C116.775 26.5189 116.941 26.2514 116.946 25.9247C116.941 25.6501 116.825 25.4252 116.598 25.25C116.37 25.0701 116.02 24.9328 115.547 24.8381L113.657 24.4616C112.592 24.2486 111.799 23.8793 111.278 23.3537C110.762 22.8281 110.504 22.1581 110.504 21.3438C110.504 20.643 110.693 20.0393 111.072 19.5327C111.456 19.026 111.993 18.6354 112.684 18.3608C113.38 18.0862 114.195 17.9489 115.127 17.9489C116.505 17.9489 117.59 18.2401 118.38 18.8224C119.176 19.4048 119.64 20.1979 119.772 21.2017ZM127.729 18.0909V20.3636H121.159V18.0909H127.729ZM122.651 15.4773H125.676V25.6477C125.676 25.9271 125.719 26.1449 125.804 26.3011C125.889 26.4527 126.008 26.5592 126.159 26.6207C126.315 26.6823 126.495 26.7131 126.699 26.7131C126.841 26.7131 126.983 26.7012 127.125 26.6776C127.267 26.6491 127.376 26.6278 127.452 26.6136L127.928 28.8651C127.776 28.9124 127.563 28.9669 127.288 29.0284C127.014 29.0947 126.68 29.1349 126.287 29.1491C125.558 29.1776 124.919 29.0805 124.369 28.858C123.825 28.6354 123.401 28.2898 123.098 27.821C122.795 27.3523 122.646 26.7604 122.651 26.0455V15.4773ZM131.468 29.1847C130.999 29.1847 130.597 29.0189 130.261 28.6875C129.929 28.3513 129.763 27.9489 129.763 27.4801C129.763 27.0161 129.929 26.6184 130.261 26.2869C130.597 25.9555 130.999 25.7898 131.468 25.7898C131.923 25.7898 132.32 25.9555 132.661 26.2869C133.002 26.6184 133.173 27.0161 133.173 27.4801C133.173 27.7926 133.092 28.0791 132.931 28.3395C132.775 28.5952 132.569 28.8011 132.313 28.9574C132.058 29.1089 131.776 29.1847 131.468 29.1847ZM138.682 22.6932V29H135.657V18.0909H138.54V20.0156H138.668C138.909 19.3812 139.314 18.8793 139.882 18.5099C140.451 18.1359 141.14 17.9489 141.949 17.9489C142.707 17.9489 143.367 18.1146 143.931 18.446C144.494 18.7775 144.932 19.2509 145.245 19.8665C145.557 20.4773 145.713 21.2064 145.713 22.054V29H142.688V22.5938C142.693 21.9261 142.522 21.4053 142.176 21.0312C141.831 20.6525 141.355 20.4631 140.749 20.4631C140.342 20.4631 139.982 20.5507 139.669 20.7259C139.362 20.901 139.12 21.1567 138.945 21.4929C138.775 21.8243 138.687 22.2244 138.682 22.6932ZM153.07 29.2131C151.947 29.2131 150.982 28.9858 150.172 28.5312C149.367 28.072 148.747 27.4233 148.311 26.5852C147.875 25.7424 147.658 24.7457 147.658 23.5952C147.658 22.473 147.875 21.4882 148.311 20.6406C148.747 19.7931 149.36 19.1326 150.151 18.6591C150.946 18.1856 151.879 17.9489 152.949 17.9489C153.669 17.9489 154.339 18.0649 154.959 18.2969C155.584 18.5241 156.128 18.8674 156.592 19.3267C157.061 19.786 157.426 20.3636 157.686 21.0597C157.946 21.7509 158.077 22.5606 158.077 23.4886V24.3196H148.865V22.4446H155.229C155.229 22.009 155.134 21.6231 154.945 21.2869C154.755 20.9508 154.492 20.688 154.156 20.4986C153.825 20.3045 153.439 20.2074 152.999 20.2074C152.539 20.2074 152.132 20.3139 151.777 20.527C151.427 20.7353 151.152 21.017 150.953 21.3722C150.754 21.7225 150.652 22.1132 150.648 22.544V24.3267C150.648 24.8665 150.747 25.3329 150.946 25.7259C151.15 26.1188 151.436 26.4219 151.805 26.6349C152.175 26.848 152.613 26.9545 153.119 26.9545C153.455 26.9545 153.763 26.9072 154.043 26.8125C154.322 26.7178 154.561 26.5758 154.76 26.3864C154.959 26.197 155.11 25.965 155.214 25.6903L158.013 25.875C157.871 26.5473 157.58 27.1345 157.139 27.6364C156.704 28.1335 156.14 28.5218 155.449 28.8011C154.762 29.0758 153.969 29.2131 153.07 29.2131ZM165.854 18.0909V20.3636H159.284V18.0909H165.854ZM160.776 15.4773H163.801V25.6477C163.801 25.9271 163.844 26.1449 163.929 26.3011C164.014 26.4527 164.133 26.5592 164.284 26.6207C164.44 26.6823 164.62 26.7131 164.824 26.7131C164.966 26.7131 165.108 26.7012 165.25 26.6776C165.392 26.6491 165.501 26.6278 165.577 26.6136L166.053 28.8651C165.901 28.9124 165.688 28.9669 165.413 29.0284C165.139 29.0947 164.805 29.1349 164.412 29.1491C163.683 29.1776 163.044 29.0805 162.494 28.858C161.95 28.6354 161.526 28.2898 161.223 27.821C160.92 27.3523 160.771 26.7604 160.776 26.0455V15.4773Z" fill="#313234"/>
<defs>
<filter id="filter0_dd_1171_4846" x="0" y="0" width="52" height="52" filterUnits="userSpaceOnUse" color-interpolation-filters="sRGB">
<feFlood flood-opacity="0" result="BackgroundImageFix"/>
<feColorMatrix in="SourceAlpha" type="matrix" values="0 0 0 0 0 0 0 0 0 0 0 0 0 0 0 0 0 0 127 0" result="hardAlpha"/>
<feMorphology radius="2" operator="erode" in="SourceAlpha" result="effect1_dropShadow_1171_4846"/>
<feOffset dy="2"/>
<feGaussianBlur stdDeviation="2"/>
<feColorMatrix type="matrix" values="0 0 0 0 0.0745098 0 0 0 0 0.101961 0 0 0 0 0.160784 0 0 0 0.04 0"/>
<feBlend mode="normal" in2="BackgroundImageFix" result="effect1_dropShadow_1171_4846"/>
<feColorMatrix in="SourceAlpha" type="matrix" values="0 0 0 0 0 0 0 0 0 0 0 0 0 0 0 0 0 0 127 0" result="hardAlpha"/>
<feMorphology radius="2" operator="erode" in="SourceAlpha" result="effect2_dropShadow_1171_4846"/>
<feOffset dy="4"/>
<feGaussianBlur stdDeviation="4"/>
<feColorMatrix type="matrix" values="0 0 0 0 0.0745098 0 0 0 0 0.101961 0 0 0 0 0.160784 0 0 0 0.12 0"/>
<feBlend mode="normal" in2="effect1_dropShadow_1171_4846" result="effect2_dropShadow_1171_4846"/>
<feBlend mode="normal" in="SourceGraphic" in2="effect2_dropShadow_1171_4846" result="shape"/>
</filter>
<filter id="filter1_d_1171_4846" x="13.8115" y="10.2656" width="25.626" height="25.6719" filterUnits="userSpaceOnUse" color-interpolation-filters="sRGB">
<feFlood flood-opacity="0" result="BackgroundImageFix"/>
<feColorMatrix in="SourceAlpha" type="matrix" values="0 0 0 0 0 0 0 0 0 0 0 0 0 0 0 0 0 0 127 0" result="hardAlpha"/>
<feOffset dy="1"/>
<feGaussianBlur stdDeviation="1.5"/>
<feColorMatrix type="matrix" values="0 0 0 0 0.0745098 0 0 0 0 0.101961 0 0 0 0 0.160784 0 0 0 0.3 0"/>
<feBlend mode="normal" in2="BackgroundImageFix" result="effect1_dropShadow_1171_4846"/>
<feBlend mode="normal" in="SourceGraphic" in2="effect1_dropShadow_1171_4846" result="shape"/>
</filter>
<linearGradient id="paint0_linear_1171_4846" x1="35.4444" y1="2" x2="8.77777" y2="42" gradientUnits="userSpaceOnUse">
<stop offset="0.0833333" stop-color="#808BF7"/>
<stop offset="1" stop-color="#483DD0"/>
</linearGradient>
<linearGradient id="paint1_linear_1171_4846" x1="35.4444" y1="2" x2="8.77777" y2="42" gradientUnits="userSpaceOnUse">
<stop offset="0.0833333" stop-color="#2463FF"/>
<stop offset="1" stop-color="#195BFF"/>
</linearGradient>
</defs>
</svg>
