<svg width="280" height="206" viewBox="0 0 280 206" fill="none" xmlns="http://www.w3.org/2000/svg">
<path fill-rule="evenodd" clip-rule="evenodd" d="M123.929 184.752C124.031 184.673 124.139 184.588 124.184 184.466C124.327 184.077 123.765 183.818 123.35 183.827C122.747 183.841 121.975 184.247 122.16 184.82C122.266 185.152 122.675 185.306 123.018 185.245C123.361 185.183 123.652 184.964 123.929 184.752H123.929ZM125.719 177.924C126.174 178.067 126.622 178.243 127.018 178.508C127.762 179.006 128.268 179.779 128.754 180.53C129.102 181.069 129.454 181.619 129.628 182.236C129.816 182.905 129.783 183.619 129.657 184.303C129.264 186.431 127.951 188.373 126.121 189.53C124.292 190.687 121.974 191.041 119.883 190.483C119.476 190.374 119.066 190.226 118.752 189.944C118.489 189.707 118.312 189.392 118.15 189.077C117.298 187.426 116.724 185.591 116.789 183.734C116.855 181.877 117.618 179.997 119.064 178.83C120.879 177.365 123.494 177.226 125.719 177.924" fill="white"/>
<path fill-rule="evenodd" clip-rule="evenodd" d="M221.758 76.8956C220.761 76.8831 219.826 77.7192 219.727 78.7114C219.687 79.1169 219.859 79.621 220.263 79.6769C220.565 79.7187 220.831 79.485 221.034 79.2572C221.464 78.7752 221.833 78.2391 222.131 77.6656C222.23 77.4732 222.318 77.2263 222.187 77.0537C222.092 76.9279 221.916 76.8976 221.758 76.8956ZM221.327 72.446C222.743 72.94 224.026 73.8088 225.011 74.9401C225.857 75.9123 226.501 77.1744 226.323 78.4509C226.258 78.9195 226.085 79.3664 225.888 79.7965C225.141 81.4255 223.857 82.9865 222.093 83.302C221.167 83.4675 220.213 83.2692 219.323 82.9664C218.294 82.6162 217.313 82.1251 216.416 81.511C215.94 81.1853 215.467 80.7987 215.258 80.2611C215.115 79.8905 215.11 79.4825 215.116 79.0851C215.129 78.1022 215.194 77.1027 215.537 76.1813C215.97 75.0156 216.819 74.0534 217.718 73.1946C218.08 72.8493 218.464 72.509 218.928 72.3239C219.689 72.021 220.554 72.1764 221.327 72.446Z" fill="white"/>
<path fill-rule="evenodd" clip-rule="evenodd" d="M221.76 1.53258C227.619 7.57431 232.243 14.7988 235.27 22.6391C235.478 23.1776 235.679 23.7758 235.481 24.3179C233.954 28.4915 231.007 31.971 228.117 35.3544C226.271 37.5163 224.424 39.6782 222.578 41.8401C220.815 43.9039 219.052 45.9681 217.23 47.9801C207.952 58.2241 196.989 67.1816 184.292 72.6931C183.813 72.9011 183.299 73.1085 182.783 73.0253C182.267 72.9422 181.783 72.4432 181.918 71.9401C183.488 66.0944 185.068 59.9826 183.808 54.0628C183.505 52.6349 183.166 50.8371 184.35 49.9778C193.94 43.0214 200.844 33.078 207.46 23.2697C209.124 20.8034 210.784 18.3303 212.256 15.7461C214.87 11.1578 216.883 6.23022 218.228 1.12753C218.413 0.427309 219.3 0.112 220.003 0.295503C220.706 0.479006 221.255 1.01188 221.76 1.53258" fill="white"/>
<path fill-rule="evenodd" clip-rule="evenodd" d="M39.0571 25.0051C40.0096 33.6159 42.6606 42.0354 46.8132 49.6386C49.3844 54.3462 52.5117 58.7233 55.6308 63.0872C57.8012 66.1238 60.1222 69.2884 63.5088 70.8578C64.4092 71.2751 64.2836 72.5733 64.0419 73.5359C62.9973 77.6965 62.5099 81.9967 62.5968 86.2856C62.605 86.6908 62.6157 87.1107 62.4565 87.4835C61.916 88.7487 60.0644 88.5378 58.7896 88.0204C50.9023 84.8186 44.8469 78.3797 39.1901 72.0187C31.8457 63.7599 24.6105 55.1384 20.2718 44.9735C19.9769 44.2825 19.6906 43.5552 19.74 42.8055C19.7902 42.0416 20.1827 41.3472 20.5808 40.6933C24.514 34.2332 29.9857 28.7169 36.4137 24.7315C36.8665 24.4508 37.3499 24.1695 37.8823 24.1511C38.4147 24.1327 38.9986 24.4757 39.0571 25.0051Z" fill="white"/>
<path fill-rule="evenodd" clip-rule="evenodd" d="M220.611 176.061C221.29 174.909 222.133 173.641 223.452 173.422C223.972 173.336 224.247 172.771 224.424 172.274C226.605 166.156 226.815 159.353 225.016 153.113C224.502 151.331 225.134 149.443 225.76 147.698C227.374 143.194 228.989 138.69 230.603 134.187C229.678 132.587 227.24 132.634 225.99 131.272C224.382 129.52 225.595 126.734 226.855 124.717C234.213 112.932 241.572 101.148 248.93 89.3631C249.832 87.9193 251.81 87.4668 253.468 87.8515C255.127 88.2362 256.543 89.2797 257.906 90.2984C263.273 94.3069 268.64 98.3154 274.007 102.324C276.887 104.475 280.067 107.224 279.901 110.815C279.809 112.802 278.672 114.569 277.572 116.226C273.319 122.636 269.065 129.045 264.812 135.454C262.416 139.065 263.078 143.807 262.353 148.079C261.209 154.83 256.58 160.375 252.293 165.714C248.006 171.053 243.717 177.015 243.476 183.858C243.189 192.014 239.314 199.979 233.075 205.24C234.885 200.849 223.452 202.601 210.374 197.397C212.526 189.784 216.589 182.874 220.611 176.061Z" fill="white"/>
<path fill-rule="evenodd" clip-rule="evenodd" d="M77.005 195.154C76.1896 194.487 75.9295 193.361 75.7855 192.314C74.12 180.205 81.2728 168.252 79.9987 156.094C79.3421 149.829 76.4633 143.983 72.8407 138.842C70.3391 135.291 70.1988 130.534 71.1321 126.286C72.0654 122.038 73.9482 118.066 75.218 113.906C80.8651 95.4106 73.9937 75.6516 67.2002 57.5495C80.7374 51.0033 96.5344 52.2712 111.531 53.158C126.528 54.0449 142.657 54.1078 155.156 45.7324C156.87 63.8507 153.092 81.9891 149.336 99.7932C168.395 97.9364 187.454 96.0796 206.514 94.2228C207.06 94.1695 207.658 94.1284 208.112 94.4388C208.718 94.8528 208.811 95.6972 208.846 96.4327C209.737 115.275 210.277 134.134 210.466 152.997C210.471 153.47 210.454 153.998 210.122 154.333C209.838 154.62 209.405 154.68 209.004 154.725C182.301 157.701 155.599 160.677 128.896 163.652C126.587 163.91 123.298 163.308 123.433 160.977C124.036 150.584 123.684 140.135 122.383 129.806C115.286 129.538 108.142 130.62 101.439 132.978C99.9186 133.513 98.0902 134.952 98.9103 136.346C104.336 145.566 97.6018 159.425 104.971 167.165C107.505 169.826 107.329 174.012 106.827 177.661C105.751 185.482 103.922 193.197 101.375 200.666C102.607 192.069 77.7575 199.764 77.005 195.154Z" fill="white"/>
<path fill-rule="evenodd" clip-rule="evenodd" d="M0.628007 0.0124755C0.65082 0.196034 0.551497 0.388779 0.388775 0.47673C0.259183 0.347076 0.129592 0.217422 0 0.0877675C0.194274 0.00279628 0.414603 -0.0214399 0.622702 0.0192705L0.628007 0.0124755Z" fill="#00160A"/>
<path fill-rule="evenodd" clip-rule="evenodd" d="M125.252 177.924C125.707 178.067 126.156 178.243 126.552 178.508C127.295 179.006 127.801 179.779 128.287 180.53C128.635 181.069 128.988 181.619 129.161 182.236C129.349 182.905 129.316 183.619 129.19 184.303C128.797 186.431 127.484 188.373 125.654 189.53C123.825 190.687 121.507 191.041 119.416 190.483C119.009 190.374 118.599 190.226 118.286 189.944C118.023 189.707 117.845 189.392 117.683 189.077C116.831 187.426 116.257 185.591 116.322 183.734C116.388 181.877 117.152 179.997 118.597 178.83C120.412 177.365 123.027 177.226 125.252 177.924M122.702 188.981C123.839 188.808 124.84 188.065 125.494 187.118C126.148 186.172 126.483 185.036 126.644 183.897C126.736 183.246 126.745 182.501 126.285 182.031C126.011 181.75 125.618 181.624 125.241 181.512C123.827 181.088 122.212 180.729 120.946 181.487C120.023 182.039 119.509 183.061 119.043 184.03C118.497 185.164 118.632 186.596 119.38 187.608C120.128 188.621 121.457 189.17 122.702 188.981V188.981Z" fill="#00160A"/>
<path fill-rule="evenodd" clip-rule="evenodd" d="M177.211 126.833C177.231 126.592 177.26 126.333 177.42 126.151C177.576 125.973 177.822 125.909 178.052 125.855C183.995 124.472 190.133 123.93 196.226 124.252C197.002 124.293 198 124.556 198.051 125.331C198.346 129.777 198.64 134.222 198.934 138.668C198.949 138.892 198.957 139.142 198.813 139.315C198.695 139.457 198.506 139.512 198.328 139.558C191.991 141.21 185.311 141.536 178.843 140.508C178.677 140.481 178.502 140.45 178.372 140.342C178.216 140.211 178.161 139.998 178.117 139.799C177.163 135.556 176.857 131.168 177.211 126.833ZM178.613 134.207C178.73 135.886 179.082 137.548 179.656 139.13C180.228 139.213 180.795 139.331 181.365 139.428C186.281 140.26 191.308 139.423 196.222 138.587C196.571 138.527 196.953 138.448 197.168 138.168C197.388 137.881 197.359 137.482 197.319 137.123C197.15 135.591 196.981 134.059 196.812 132.527C196.798 132.404 196.78 132.271 196.697 132.179C196.595 132.068 196.429 132.05 196.279 132.04C192.787 131.81 189.283 132.07 185.792 132.331C183.863 132.475 181.934 132.619 180.005 132.763C179.551 132.797 179.036 132.864 178.776 133.236C178.583 133.511 178.59 133.873 178.613 134.207ZM178.667 127.801C178.362 128.78 178.307 129.836 178.509 130.841C178.546 131.022 178.597 131.212 178.734 131.335C178.937 131.518 179.247 131.488 179.517 131.448C182.804 130.967 186.127 130.727 189.448 130.733C189.917 130.734 190.061 130.103 190.056 129.634C190.048 128.948 190.041 128.261 190.033 127.575C190.029 127.177 190.009 126.74 189.737 126.45C189.41 126.102 188.864 126.113 188.388 126.149C187.287 126.233 186.187 126.317 185.086 126.401C184.56 126.442 183.164 126.799 182.522 126.841C181.405 127.02 180.287 127.198 179.17 127.376C179.051 127.395 178.925 127.417 178.833 127.495C178.744 127.572 178.702 127.688 178.667 127.801ZM193.403 130.787C194.276 130.798 195.151 130.711 196.005 130.527C196.208 130.483 196.422 130.428 196.567 130.279C196.78 130.06 196.778 129.717 196.762 129.412C196.717 128.527 196.672 127.641 196.626 126.756C196.61 126.44 196.575 126.085 196.328 125.887C196.111 125.713 195.804 125.724 195.527 125.742C194.556 125.809 193.585 125.875 192.613 125.941C192.46 125.951 192.298 125.964 192.17 126.049C191.934 126.205 191.899 126.53 191.893 126.812C191.871 127.75 191.909 128.69 192.007 129.623C192.036 129.894 192.075 130.178 192.242 130.392C192.503 130.726 192.98 130.781 193.403 130.787Z" fill="#195BFF"/>
<path fill-rule="evenodd" clip-rule="evenodd" d="M192.42 107.406C193.718 106.845 195.311 107.033 196.443 107.882C197.574 108.731 198.201 110.207 198.024 111.611C198.82 111.181 199.829 110.757 200.571 111.274C201.409 111.857 201.218 113.112 201.092 114.126C200.872 115.896 201.157 117.726 201.905 119.346C202.215 120.015 202.48 121.03 201.794 121.3C201.679 121.345 201.552 121.356 201.428 121.366C193.388 122.014 185.347 122.662 177.307 123.31C177.086 123.327 176.839 123.337 176.672 123.192C176.502 123.043 176.481 122.791 176.472 122.566C176.395 120.674 176.318 118.783 176.241 116.892C176.22 116.385 176.21 115.837 176.496 115.418C176.971 114.725 177.964 114.727 178.794 114.594C179.623 114.461 180.589 113.761 180.269 112.984C179.913 112.117 181.127 111.484 182.053 111.343C182.979 111.202 184.207 110.65 183.927 109.756C183.62 108.78 184.964 108.174 185.978 108.039C186.694 107.944 187.443 107.852 188.122 108.098C188.801 108.343 189.374 109.043 189.222 109.748C189.046 110.556 190.03 111.309 190.806 111.023C191.582 110.738 191.896 109.678 191.504 108.95C191.183 108.356 191.801 107.675 192.42 107.406ZM196.572 119.869C196.272 119.312 196.269 118.648 196.267 118.014C196.254 115.04 196.071 112.066 195.72 109.112C195.702 108.963 195.674 108.796 195.552 108.709C195.446 108.634 195.305 108.642 195.176 108.654C194.548 108.713 193.803 108.852 193.555 109.432C193.449 109.679 193.462 109.959 193.476 110.228C193.635 113.209 193.795 116.191 193.954 119.172C193.969 119.45 194.006 119.768 194.237 119.924C194.362 120.008 194.521 120.024 194.672 120.032C195.309 120.067 195.951 120.012 196.572 119.869ZM185.758 115.286C185.68 115.783 185.571 116.276 185.541 116.778C185.493 117.616 185.669 118.45 185.845 119.272C185.958 119.799 186.639 120.058 187.138 119.855C187.637 119.652 187.938 119.119 188.021 118.587C188.104 118.055 188.007 117.513 187.922 116.981C187.589 114.891 187.444 112.771 187.491 110.655C187.503 110.119 186.981 109.636 186.448 109.689C185.915 109.741 185.498 110.318 185.615 110.841C185.94 112.296 185.989 113.813 185.758 115.286ZM191.046 112.43C190.732 112.02 190.014 112.238 189.769 112.693C189.524 113.148 189.599 113.7 189.66 114.213C189.818 115.553 189.833 116.909 189.705 118.252C189.667 118.648 189.625 119.08 189.844 119.413C190.18 119.924 190.917 119.919 191.526 119.857C191.717 119.838 191.936 119.801 192.032 119.635C192.099 119.519 192.083 119.376 192.065 119.243C191.785 117.16 191.504 115.076 191.223 112.993C191.197 112.795 191.166 112.588 191.046 112.43ZM198.011 113.326C197.774 113.648 197.725 114.067 197.704 114.466C197.634 115.834 197.815 117.2 197.996 118.558C198.067 119.093 198.311 119.78 198.85 119.744C199.395 119.707 199.538 118.977 199.525 118.43C199.492 116.982 199.458 115.534 199.424 114.087C199.416 113.706 199.375 113.265 199.059 113.052C198.728 112.829 198.247 113.004 198.011 113.326ZM181.529 112.984C181.529 112.984 181.769 114.873 181.852 115.836C181.957 117.045 182.091 118.251 182.253 119.453C182.277 119.628 182.308 119.817 182.437 119.937C182.66 120.146 183.522 120.007 183.681 119.746C183.839 119.485 183.831 119.159 183.817 118.854C183.773 117.889 183.729 116.924 183.686 115.959C183.639 114.924 183.393 112.693 183.393 112.693M178.404 119.826C178.473 120.042 178.554 120.269 178.729 120.414C179.071 120.696 179.625 120.521 179.894 120.169C180.163 119.817 180.224 119.353 180.275 118.913C180.338 118.373 180.4 117.811 180.225 117.296C180.05 116.781 179.565 116.328 179.023 116.376C178.525 116.42 178.139 116.875 178.023 117.362C177.906 117.848 178.005 118.358 178.126 118.844C178.208 119.174 178.301 119.502 178.404 119.826Z" fill="#E7EAEE"/>
<path fill-rule="evenodd" clip-rule="evenodd" d="M210.999 42.4485C210.35 43.423 209.646 44.4101 208.641 45.0117C207.637 45.6134 206.25 45.7306 205.348 44.9847C204.352 44.1618 204.29 42.6783 204.369 41.3889C204.399 40.8925 204.439 40.3921 204.581 39.9155C204.828 39.0889 205.367 38.3835 205.929 37.7295C206.611 36.936 207.367 36.1705 208.314 35.724C209.26 35.2774 210.436 35.199 211.323 35.7546C212.384 36.4196 212.777 37.8343 212.576 39.0706C212.375 40.307 211.693 41.4061 210.999 42.4485M208.937 43.479C209.756 42.6071 210.458 41.626 211.019 40.5698C211.388 39.8748 211.703 39.1194 211.688 38.3325C211.673 37.5456 211.258 36.7231 210.527 36.4311C209.575 36.0508 208.53 36.6592 207.735 37.3056C207.168 37.7658 206.62 38.2706 206.257 38.9035C206.027 39.3037 205.878 39.744 205.73 40.1811C205.45 41.0081 205.166 41.8697 205.273 42.7361C205.379 43.6026 205.999 44.4724 206.868 44.5622C207.671 44.6452 208.384 44.0681 208.937 43.479Z" fill="#195BFF"/>
<path fill-rule="evenodd" clip-rule="evenodd" d="M43.7725 53.4611C44.7895 54.4912 45.629 55.696 46.2431 57.0069C46.8603 58.3243 46.238 60.0174 45.0268 60.8233C43.8156 61.6293 42.1781 61.6187 40.85 61.0247C39.522 60.4308 38.4784 59.3223 37.7097 58.0871C37.1303 57.1559 36.6809 56.1122 36.6328 55.0165C36.5846 53.9208 36.988 52.7676 37.8548 52.0957C38.7316 51.416 39.9644 51.319 41.0246 51.6451C42.0849 51.9712 42.9932 52.6716 43.7725 53.4611M39.8047 52.8351C38.9247 52.7445 38.143 53.5521 37.9921 54.4238C37.8411 55.2954 38.1734 56.1797 38.6033 56.9528C39.5357 58.6292 41.1992 60.1183 43.1151 60.0256C44.1001 59.9779 45.1796 59.2956 45.1621 58.3097C45.1546 57.8834 44.9442 57.49 44.7342 57.119C44.1761 56.1332 43.5734 55.1575 42.7684 54.3605C41.9635 53.5635 40.9315 52.9511 39.8047 52.8351Z" fill="#195BFF"/>
<path fill-rule="evenodd" clip-rule="evenodd" d="M120.667 183.144C121.374 182.607 122.252 182.26 123.138 182.317C124.023 182.374 124.899 182.882 125.27 183.688C125.667 184.553 125.419 185.628 124.799 186.351C124.179 187.073 123.245 187.472 122.302 187.604C121.658 187.694 120.891 187.613 120.539 187.067C120.369 186.803 120.33 186.479 120.296 186.167C120.234 185.608 120.173 185.048 120.112 184.489C120.086 184.252 120.061 184.006 120.137 183.78C120.227 183.514 120.444 183.313 120.667 183.144M123.462 184.753C123.565 184.674 123.672 184.589 123.717 184.467C123.86 184.078 123.298 183.819 122.883 183.828C122.281 183.842 121.508 184.248 121.693 184.821C121.799 185.153 122.208 185.307 122.551 185.245C122.894 185.184 123.185 184.965 123.462 184.753H123.462Z" fill="#00160A"/>
<path fill-rule="evenodd" clip-rule="evenodd" d="M220.728 4.25999C226.232 9.95768 230.576 16.7708 233.42 24.1646C233.615 24.6725 233.804 25.2366 233.618 25.7478C232.183 29.6838 229.415 32.9651 226.7 36.1558L221.496 42.2722C219.84 44.2185 218.184 46.1652 216.472 48.0625C207.755 57.7232 197.456 66.1706 185.527 71.3682C185.077 71.5644 184.594 71.76 184.109 71.6816C183.624 71.6032 183.17 71.1326 183.297 70.6582C184.772 65.1453 186.256 59.3816 185.073 53.7989C184.787 52.4523 184.469 50.7568 185.582 49.9465C194.591 43.3862 201.077 34.009 207.293 24.7593C208.856 22.4334 210.415 20.1012 211.798 17.6641C214.254 13.3371 216.146 8.69012 217.409 3.87801C217.583 3.21766 218.417 2.92031 219.077 3.09336C219.738 3.26641 220.253 3.76894 220.728 4.25999ZM216.876 11.3351C216.316 11.1038 215.801 11.7294 215.516 12.2634C215.215 12.8273 214.914 13.3921 214.613 13.9573L214.603 13.9767L214.595 13.9909L214.59 13.9999C208.888 24.7114 203.098 35.5872 194.408 44.024C193.587 44.8212 192.669 45.7841 192.82 46.9185C193.305 50.5545 191.364 54.3943 188.149 56.1595C186.689 56.961 186.706 59.0289 186.92 60.6806C187.005 61.3418 187.255 62.1706 187.92 62.2266C189.868 62.3909 191.738 63.3501 193.009 64.8371C193.41 65.3062 194.169 65.013 194.691 64.6846C207.838 56.4198 217.939 44.212 227.802 32.2176C228.142 31.8038 228.504 31.2824 228.327 30.7769C226.834 26.5254 227.074 21.6939 228.979 17.6106C227.855 15.3738 226.515 13.2455 224.984 11.2646C222.437 12.3704 219.442 12.3964 216.876 11.3351ZM185.693 69.1847C186.212 69.4562 186.84 69.1981 187.358 68.9272C188.722 68.2155 190.035 67.4076 191.286 66.5116C191.616 66.2749 191.714 65.802 191.597 65.4126C191.481 65.0233 191.188 64.7094 190.865 64.4637C189.854 63.6965 188.441 63.4947 187.255 63.9483C187.037 64.0321 186.819 64.1415 186.668 64.3209C186.491 64.531 186.427 64.8107 186.37 65.0793C186.084 66.4368 185.858 67.8071 185.693 69.1847ZM222.612 8.50457C221.719 6.75795 220.341 5.2622 218.674 4.22858C218.094 4.73987 217.981 5.51679 217.866 6.30885C217.787 6.85235 217.708 7.40298 217.475 7.8798C217.399 8.03493 217.307 8.18332 217.214 8.33138L217.214 8.33152L217.214 8.33165L217.214 8.33183C217.038 8.614 216.863 8.89496 216.806 9.21901C216.72 9.71326 217.139 10.3333 217.613 10.1698C217.998 10.0368 218.403 10.1222 218.81 10.2083C219.025 10.2538 219.242 10.2995 219.456 10.3133C220.708 10.3942 221.747 9.41328 222.612 8.50457ZM229.692 18.9736C228.735 20.8771 228.887 23.1252 229.061 25.2485L229.31 28.2936C229.338 28.6285 229.52 29.0804 229.843 28.9876C230.043 28.4267 230.425 27.964 230.808 27.5C231.142 27.0942 231.478 26.6874 231.694 26.2132C232.424 24.6072 231.613 22.7563 230.814 21.1831L229.692 18.9736ZM186.857 52.7708C186.897 53.3664 187.515 53.8123 188.112 53.7956C188.709 53.7788 189.246 53.3926 189.595 52.9081C189.943 52.4235 190.135 51.8464 190.321 51.2793L190.936 49.4064C191.108 48.8842 191.118 48.0859 190.572 48.0245C190.375 48.0023 190.187 48.1067 190.025 48.2216C189.413 48.6568 188.967 49.2819 188.533 49.8948L187.351 51.5646C187.095 51.9268 186.827 52.3281 186.857 52.7708ZM45.8796 47.7715C41.727 40.1684 39.076 31.7488 38.1235 23.1381C38.065 22.6086 37.4811 22.2656 36.9487 22.284C36.4163 22.3024 35.9329 22.5837 35.4801 22.8644C29.0521 26.8498 23.5804 32.3661 19.6473 38.8262C19.2491 39.4801 18.8566 40.1745 18.8064 40.9384C18.757 41.6881 19.0433 42.4154 19.3382 43.1064C23.6769 53.2713 30.9121 61.8928 38.2565 70.1516C43.9133 76.5126 49.9687 82.9515 57.856 86.1533C59.1308 86.6708 60.9824 86.8816 61.5229 85.6164C61.6801 85.2483 61.6717 84.8341 61.6635 84.4336L61.6632 84.4185C61.5763 80.1296 62.0637 75.8294 63.1083 71.6688C63.35 70.7063 63.4756 69.408 62.5752 68.9908C59.1886 67.4214 56.8676 64.2567 54.6972 61.2201C51.5781 56.8562 48.4508 52.4791 45.8796 47.7715ZM53.2109 81.0059C52.7444 81.1303 52.2785 80.8361 51.889 80.5507C44.7105 75.2912 39.1475 68.1727 33.6817 61.1498L24.0361 48.7564C25.6643 47.7195 25.871 45.4665 25.9065 43.5366C25.9526 41.0279 25.9863 38.445 25.0801 36.1053C24.8786 35.5853 25.1409 35.0089 25.4217 34.5271C26.626 32.4606 28.2962 30.6674 30.2721 29.3195C30.4634 29.189 30.6658 29.0594 30.8951 29.027C31.5002 28.9415 31.9644 29.53 32.2877 30.0485C33.5648 32.0963 35.3199 34.4123 37.7274 34.2437C38.6441 34.1795 39.1525 35.2593 39.4199 36.1384C42.7455 47.0714 48.9894 56.9326 56.3117 65.7061C57.2633 66.8462 57.502 68.3849 57.7386 69.9097C58.0024 71.61 58.2635 73.2929 59.5074 74.3861C60.5693 75.3195 60.3722 76.9959 60.0857 78.3804C60.027 78.6638 59.9572 78.9673 59.742 79.1606C59.5821 79.3043 59.3661 79.3641 59.1585 79.4194L53.2109 81.0059ZM36.1922 31.7119C34.8753 30.7918 33.7378 29.616 32.8618 28.2694C32.6723 27.9781 32.4882 27.6517 32.5215 27.3058C32.5577 26.9297 32.8406 26.6287 33.1222 26.3767C33.8175 25.7545 34.6033 25.2336 35.4471 24.8355C35.7561 24.6897 36.1551 24.5713 36.4118 24.7968C36.563 24.9295 36.6107 25.1416 36.6502 25.3389L37.8664 31.422C37.9384 31.7816 37.5612 32.1055 37.1946 32.1159C36.828 32.1264 36.4928 31.922 36.1922 31.7119ZM24.1562 43.477C24.1304 44.6212 24.043 45.9053 23.1855 46.6633C23.0061 46.6846 22.8869 46.4877 22.8166 46.3212C22.1988 44.8587 21.5724 43.361 21.4751 41.7763C21.3778 40.1917 21.9089 38.4757 23.2038 37.5571C23.3791 37.4328 23.6361 37.3302 23.7907 37.4793C23.8529 37.5392 23.8795 37.6262 23.9021 37.7095C24.254 39.0029 24.2263 40.3651 24.1961 41.7052L24.1562 43.477ZM59.0997 81.5365C59.3077 81.7067 59.3298 82.0111 59.3355 82.2797L59.3973 85.2207C58.1909 84.5519 57.035 83.7918 55.943 82.949C55.7359 82.7892 55.5084 82.5305 55.6352 82.3017C55.6981 82.1883 55.8288 82.1336 55.9505 82.0887C56.7312 81.8009 57.5383 81.585 58.3584 81.4446C58.6119 81.4012 58.9007 81.3736 59.0997 81.5365ZM59.1693 69.952C59.1582 69.8193 59.1582 69.6745 59.2372 69.5672C59.4455 69.284 59.8976 69.5404 60.0888 69.8355C60.5491 70.5463 60.6507 71.4772 60.3546 72.2706C59.6786 71.6911 59.2431 70.8393 59.1693 69.952ZM238.872 47.6204C240.075 46.1061 242.267 45.8882 244.2 45.9354C244.652 45.9464 245.116 45.9683 245.528 46.1557C246.671 46.6769 246.914 48.1713 246.953 49.4276C246.988 50.5706 246.981 51.7286 246.704 52.8379C246.426 53.9473 245.851 55.016 244.932 55.6968C244.519 56.0028 244.04 56.2258 243.533 56.3107C242.75 56.4419 241.948 56.2407 241.204 55.9636C240.211 55.5944 239.271 55.0874 238.417 54.4617C237.999 54.156 237.569 53.7558 237.555 53.2388C237.524 52.0466 237.658 50.8502 237.951 49.6941C238.138 48.9553 238.398 48.2174 238.872 47.6204ZM241.991 55.1625C243.535 55.6057 245.177 54.4113 245.762 52.9153C246.347 51.4194 246.131 49.7392 245.809 48.1655C245.686 47.5613 245.04 47.2238 244.445 47.0623C243.524 46.8122 242.544 46.779 241.608 46.9662C241.143 47.0592 240.667 47.2186 240.341 47.5628C240.163 47.7504 240.04 47.982 239.919 48.2105L239.015 49.9199C238.856 50.2205 238.695 50.5239 238.602 50.8509C238.322 51.829 238.692 52.9152 239.375 53.6691C240.058 54.4231 241.013 54.8818 241.991 55.1625ZM221.327 72.4469C222.743 72.941 224.026 73.8098 225.011 74.9411C225.857 75.9133 226.501 77.1754 226.323 78.4519C226.258 78.9205 226.085 79.3674 225.888 79.7975C225.141 81.4264 223.857 82.9875 222.093 83.303C221.167 83.4684 220.213 83.2701 219.323 82.9674C218.294 82.6172 217.313 82.1261 216.416 81.512C215.94 81.1863 215.467 80.7997 215.258 80.262C215.115 79.8915 215.11 79.4834 215.116 79.086C215.129 78.1031 215.194 77.1036 215.537 76.1823C215.97 75.0166 216.819 74.0544 217.718 73.1956C218.08 72.8503 218.464 72.51 218.928 72.3249C219.689 72.022 220.554 72.1774 221.327 72.4469ZM222.775 81.0145C223.798 80.0021 224.393 78.5345 224.231 77.1042C224.069 75.674 223.101 74.3319 221.747 73.8435C221.185 73.6406 220.561 73.584 219.984 73.7435C219.673 73.8296 219.382 73.9761 219.109 74.1492C217.944 74.8904 217.126 76.1549 216.927 77.5217C216.728 78.8885 217.153 80.3335 218.059 81.3759C218.639 82.0434 219.586 82.3295 220.464 82.2187C221.341 82.1078 222.146 81.6366 222.775 81.0145ZM93.5599 64.0153C93.5123 63.341 92.6107 63.1642 91.9349 63.1841C88.3871 63.2884 84.8441 63.5542 81.3204 63.9804C80.7416 64.0505 80.6948 64.9836 81.1593 65.3361C81.6238 65.6886 82.2708 65.6231 82.8481 65.5409L93.5599 64.0153ZM82.2185 68.5755C82.249 68.2282 82.6855 68.1025 83.0319 68.0633L103.928 65.6968C104.306 65.654 104.709 65.6153 105.049 65.7855C105.389 65.9557 105.608 66.4213 105.386 66.73C105.222 66.9577 104.908 67.0039 104.629 67.031L83.2563 69.105C82.8118 69.1481 82.1795 69.0203 82.2185 68.5755ZM129.064 72.0952C127.895 72.3522 126.696 71.9303 125.574 71.5112C121.949 70.1563 118.337 68.7639 114.741 67.3344C113.289 66.7574 111.696 67.6215 110.39 68.4793C106.611 70.9618 102.973 73.6583 99.4981 76.5516C98.6057 77.2947 97.2324 76.7734 96.3323 76.0393C96.1424 75.8844 95.9554 75.7192 95.7678 75.5534L95.7667 75.5525L95.7667 75.5524C95.0656 74.9329 94.3556 74.3054 93.4489 74.1767C92.0549 73.979 90.8287 75.0356 89.8187 76.0164L83.3054 82.342C82.4294 83.1928 81.5074 84.5551 82.287 85.4949C82.8014 86.115 83.7458 86.0835 84.5461 85.9907C88.7246 85.5063 92.8826 84.8271 97.0391 84.1482C103.909 83.026 110.775 81.9046 117.723 81.6642C119.262 81.6109 120.803 81.6011 122.344 81.5913C123.309 81.5851 124.273 81.579 125.238 81.5622C129.589 81.4864 133.936 81.1932 138.257 80.6842C138.466 80.6596 138.704 80.6165 138.812 80.4362C138.894 80.2999 138.874 80.1281 138.851 79.9709L137.02 67.5162C136.927 66.8834 136.765 66.1519 136.186 65.8786C135.602 65.6024 134.914 65.9584 134.434 66.3916C133.684 67.0696 133.105 67.9699 132.535 68.858C131.6 70.3149 130.685 71.739 129.064 72.0952ZM99.3385 78.9099C103.248 75.6955 107.324 72.6842 111.545 69.8921C112.412 69.3188 113.466 68.7318 114.435 69.1082L124.671 73.0858C126.379 73.7496 128.247 74.4221 130.001 73.8899C132.04 73.2712 133.259 71.2426 134.285 69.3757C134.485 69.0126 135.066 69.0543 135.354 69.3526C135.641 69.651 135.714 70.09 135.773 70.5002L136.522 75.6941C136.637 76.4916 136.751 77.3192 136.52 78.0913C136.29 78.8634 135.613 79.5647 134.807 79.5491C121.631 79.2948 108.429 80.3812 95.4722 82.7864C95.0709 82.8609 94.6694 82.9367 94.2677 83.0125L94.2677 83.0125C91.1723 83.5969 88.0656 84.1835 84.9199 84.194C86.4389 82.0424 88.3637 80.2151 90.275 78.4031C91.3244 77.4082 92.6366 76.3351 94.0455 76.6606C94.8063 76.8363 95.3898 77.3829 95.9704 77.9268L95.9705 77.9269C96.1567 78.1013 96.3425 78.2754 96.5339 78.4369C97.3218 79.1021 98.542 79.5648 99.3385 78.9099ZM268.377 115.141C268.028 115.271 267.638 115.182 267.282 115.071C264.873 114.313 262.916 112.619 260.993 110.955L260.991 110.953C260.731 110.728 260.472 110.504 260.212 110.282C257.026 107.564 253.568 105.165 249.906 103.131C249.534 102.924 249.143 102.707 248.915 102.347C248.687 101.987 248.694 101.439 249.046 101.199C250.687 100.078 251.752 98.1541 251.83 96.1676C251.851 95.6382 252.449 95.2853 252.978 95.3277C253.506 95.3701 253.966 95.6874 254.398 95.9941L271.129 107.87C271.454 108.102 271.805 108.37 271.885 108.761C271.95 109.08 271.816 109.403 271.681 109.7C270.96 111.292 270.13 112.836 269.2 114.315C268.989 114.65 268.748 115.003 268.377 115.141ZM251.64 101.053C251.443 101.4 251.273 101.901 251.591 102.141L265.244 112.421C265.992 112.984 267.154 113.511 267.742 112.784C268.418 111.948 269.05 111.077 269.633 110.174C269.793 109.927 269.955 109.645 269.898 109.357C269.845 109.093 269.624 108.902 269.415 108.733C264.405 104.67 259.1 100.971 253.556 97.6738L251.64 101.053ZM244.844 107.339C245.064 106.961 245.332 106.547 245.76 106.455C246.087 106.384 246.42 106.524 246.721 106.67C248.365 107.468 249.871 108.551 251.152 109.854C251.46 110.168 251.498 110.673 251.361 111.09C251.224 111.508 250.941 111.86 250.664 112.201C250.219 112.75 249.744 113.321 249.087 113.581C248.378 113.862 247.552 113.727 246.881 113.365C246.209 113.003 245.67 112.437 245.195 111.841C244.575 111.062 244.02 110.128 244.116 109.138C244.179 108.489 244.516 107.903 244.844 107.339ZM247.719 111.698C248.753 112.101 249.414 111.782 249.442 111.104C249.459 110.676 249.085 110.346 248.746 110.085L247.719 109.295C247.38 109.034 247.005 108.761 246.577 108.764C246.149 108.766 245.713 109.208 245.888 109.599C245.862 109.787 246.685 111.296 247.719 111.698ZM243.639 120.045C243.891 120.183 244.158 120.318 244.445 120.324C244.733 120.33 245.044 120.167 245.115 119.889C245.281 119.235 245.713 118.692 246.137 118.161L246.138 118.16L246.139 118.159L246.14 118.158C246.185 118.101 246.23 118.045 246.275 117.988C246.739 117.401 247.187 116.735 247.199 115.987C247.212 115.239 246.592 114.441 245.851 114.543C245.266 114.624 244.723 114.241 244.299 113.831L244.246 113.78L244.183 113.718L244.097 113.632C243.742 113.278 243.381 112.918 242.909 112.764C242.349 112.581 241.585 112.872 241.541 113.46C241.451 114.644 240.467 115.536 239.554 116.296C239.281 116.523 239.528 116.959 239.783 117.206C240.934 118.319 242.235 119.276 243.639 120.045ZM243.821 117.788L242.023 116.572C241.566 116.262 241.603 115.505 242.01 115.132C242.418 114.76 243.052 114.732 243.571 114.918C244.091 115.104 244.523 115.47 244.943 115.828C245.221 116.065 245.259 116.497 245.132 116.84C245.005 117.182 244.746 117.457 244.494 117.721C244.407 117.812 244.311 117.907 244.187 117.923C244.055 117.94 243.932 117.863 243.821 117.788ZM258.077 117.868L258.956 116C259.225 115.428 259.486 114.72 259.123 114.203C258.997 114.023 258.81 113.896 258.628 113.774L255.43 111.618C255.085 111.386 254.71 111.144 254.294 111.151C253.802 111.158 253.389 111.51 253.039 111.857C252.514 112.377 252.024 112.931 251.572 113.515C251.228 113.96 250.946 114.691 251.416 114.999L256.311 118.211C256.697 118.464 257.187 118.725 257.593 118.504C257.831 118.375 257.961 118.113 258.077 117.868ZM256.992 116.546C256.786 116.593 256.572 116.541 256.37 116.48C255.134 116.108 254.003 115.394 253.134 114.44C252.845 114.122 253.009 113.562 253.376 113.339C253.743 113.117 254.22 113.168 254.616 113.334C254.872 113.441 255.106 113.591 255.34 113.741C255.468 113.823 255.597 113.905 255.729 113.98C255.871 114.061 256.019 114.135 256.167 114.21C256.588 114.42 257.009 114.632 257.296 114.996C257.684 115.49 257.604 116.405 256.992 116.546ZM258.646 118.632C259.21 118.498 259.382 117.923 259.561 117.325C259.709 116.831 259.862 116.321 260.244 116.032C260.902 115.535 261.835 115.951 262.544 116.373L264.799 117.714C265.158 117.928 265.526 118.149 265.784 118.478C266.041 118.808 266.168 119.274 265.988 119.651C265.867 119.903 265.64 120.07 265.411 120.238C265.223 120.376 265.034 120.515 264.902 120.702C264.732 120.942 264.669 121.243 264.607 121.541C264.529 121.914 264.452 122.282 264.167 122.516C263.648 122.944 262.876 122.601 262.302 122.251L259.125 120.309C258.805 120.113 258.467 119.899 258.309 119.558C258.152 119.217 258.28 118.719 258.646 118.632ZM262.811 120.56C263.266 120.405 263.631 120.068 263.982 119.739C264.237 119.501 263.896 119.11 263.593 118.939L261.646 117.843C261.443 117.728 261.161 117.624 261.004 117.796C260.497 118.349 260.423 119.252 260.833 119.88C261.244 120.508 262.101 120.803 262.811 120.56ZM240.478 120.492C240.043 120.37 239.599 120.245 239.243 120.002C238.69 119.625 237.921 119.716 237.341 120.049C236.761 120.383 236.329 120.916 235.91 121.438C235.678 121.728 235.439 122.03 235.35 122.39C235.262 122.751 235.368 123.187 235.692 123.368L239.086 125.26C239.343 125.403 239.63 125.551 239.917 125.488C240.203 125.424 240.4 125.17 240.573 124.933L241.446 123.732C241.932 123.063 242.44 122.21 242.085 121.464C241.8 120.865 241.148 120.681 240.478 120.492ZM239.404 123.605C239.227 123.652 239.044 123.566 238.881 123.483L236.568 122.306C237.013 121.677 237.859 121.435 238.625 121.512C239.392 121.588 240.104 121.929 240.797 122.264L239.734 123.368C239.639 123.467 239.537 123.57 239.404 123.605ZM223.385 76.5495C223.743 77.0954 223.631 77.8248 223.393 78.4329C223.08 79.2343 222.551 79.9768 221.804 80.4032C221.056 80.8295 220.075 80.8918 219.347 80.4336C218.618 79.9754 218.253 78.9564 218.643 78.1896C218.733 78.0123 218.856 77.8552 218.98 77.6981L218.98 77.6979C219.097 77.5476 219.215 77.3972 219.304 77.229C219.363 77.1183 219.409 77.0008 219.454 76.8835C219.52 76.7143 219.586 76.5454 219.69 76.3978C220.061 75.873 220.791 75.7698 221.433 75.7789C222.162 75.7892 222.985 75.9399 223.385 76.5495ZM221.757 76.8966C220.76 76.8841 219.825 77.7202 219.726 78.7124C219.686 79.1179 219.858 79.622 220.262 79.6778C220.564 79.7197 220.83 79.486 221.033 79.2582C221.463 78.7762 221.832 78.2401 222.13 77.6666C222.229 77.4742 222.317 77.2273 222.186 77.0546C222.091 76.9289 221.915 76.8986 221.757 76.8966ZM245.604 50.8921C245.528 49.9791 244.917 49.0812 244.029 48.8525C242.903 48.5619 241.81 49.3554 240.916 50.0998C240.651 50.32 240.375 50.5568 240.263 50.8823C240.072 51.4346 240.415 52.0166 240.751 52.4938C241.137 53.0402 241.55 53.5896 242.113 53.9507C242.676 54.3119 243.427 54.4521 244.017 54.1383C244.319 53.9783 244.553 53.717 244.756 53.4434C245.303 52.7084 245.681 51.8051 245.604 50.8921ZM243.105 53.2329C242.723 53.2902 242.327 53.1359 242.045 52.8712C241.624 52.4745 241.457 51.8369 241.604 51.2774C241.759 50.6882 242.254 50.2016 242.845 50.0563C243.437 49.911 244.101 50.1131 244.511 50.5634C244.495 50.6861 244.483 50.8096 244.47 50.9331C244.426 51.3529 244.383 51.7735 244.237 52.1679C244.049 52.6784 243.643 53.1523 243.105 53.2329ZM212.771 195.641C214.848 188.29 218.771 181.619 222.654 175.04C223.31 173.928 224.124 172.704 225.398 172.493C225.9 172.41 226.165 171.864 226.336 171.384C228.442 165.478 228.645 158.909 226.907 152.883C226.412 151.163 227.022 149.34 227.626 147.655L232.302 134.61C231.816 133.769 230.896 133.399 229.965 133.025C229.185 132.712 228.398 132.395 227.848 131.796C226.296 130.105 227.467 127.414 228.683 125.467L249.998 91.3319C250.868 89.9379 252.778 89.5009 254.379 89.8724C255.98 90.2438 257.347 91.2514 258.664 92.2349L274.209 103.846C276.991 105.923 280.061 108.577 279.901 112.044C279.812 113.963 278.714 115.669 277.652 117.269L265.332 135.834C263.739 138.234 263.546 141.153 263.351 144.084C263.264 145.41 263.176 146.739 262.958 148.024C261.896 154.292 257.721 159.483 253.722 164.456C253.616 164.588 253.51 164.72 253.404 164.852L253.244 165.05C249.105 170.205 244.964 175.962 244.731 182.569C244.454 190.443 240.713 198.134 234.689 203.213L239.931 190.497C241.178 187.472 242.332 183.71 240.246 181.19C239.302 180.05 237.875 179.447 236.506 178.886L228.365 175.545C227.803 175.315 227.225 175.081 226.618 175.077C224.726 175.066 223.602 177.117 222.835 178.846C220.182 184.827 216.793 190.481 212.771 195.641ZM239.54 178.371C240.936 178.888 242.901 179.202 243.562 177.868C246.764 171.415 250.053 164.837 255.149 159.745C258.086 156.81 259.887 152.894 260.905 148.869C261.924 144.843 262.212 140.674 262.497 136.532C261.26 136.982 261.153 138.651 261.158 139.967C261.169 142.868 260.662 145.771 259.667 148.496C259.459 149.066 259.18 149.683 258.622 149.923C258.065 150.164 257.243 149.68 257.431 149.103C258.869 144.67 259.405 139.946 258.997 135.304C258.87 133.864 258.602 132.325 257.578 131.305C257.69 133.577 257.8 135.86 257.57 138.124C257.172 142.041 255.767 145.775 254.375 149.458C254.195 149.936 253.976 150.457 253.517 150.682C253.058 150.906 252.345 150.55 252.465 150.053L254.55 141.437C255.696 136.699 256.823 131.603 255.049 127.063C254.155 127.003 253.945 128.28 254.025 129.173C254.571 135.282 252.882 141.347 251.21 147.248C251.014 147.937 250.324 148.799 249.787 148.325C249.555 148.121 249.544 147.769 249.563 147.46C249.669 145.725 250.144 144.045 250.62 142.366C250.767 141.845 250.915 141.325 251.051 140.802C252.308 135.989 252.628 130.933 251.989 126C250.888 127.411 250.421 129.201 249.98 130.936L247.364 141.234C246.181 145.89 244.67 151.008 240.569 153.509C240.243 153.708 239.864 153.893 239.491 153.805C239.029 153.695 238.767 153.217 238.574 152.783C235.957 146.887 235.63 140.009 237.676 133.892C237.8 133.521 237.422 133.133 237.032 133.103C236.642 133.072 236.277 133.284 235.957 133.51C232.599 135.879 231.313 140.171 230.245 144.14L228.825 149.416C228.617 150.187 228.408 150.964 228.365 151.761C228.299 152.972 228.616 154.158 228.93 155.337C229.003 155.61 229.076 155.883 229.144 156.155C230.51 161.637 229.893 167.591 227.432 172.676C227.069 173.426 228.027 174.108 228.808 174.397L239.54 178.371ZM244.845 128.013C244.285 127.628 243.685 127.187 243.512 126.53C243.247 125.522 244.207 124.509 245.24 124.373C246.274 124.238 247.285 124.737 248.142 125.331C249.349 126.168 250.876 124.892 251.779 123.734C250.561 123.005 249.398 121.873 249.35 120.453C249.302 119.034 251.028 117.682 252.176 118.517C252.622 118.842 253.161 119.04 253.694 119.236C254.493 119.53 255.278 119.819 255.717 120.518C256.215 121.314 256.038 122.39 255.53 123.18C255.023 123.97 254.242 124.537 253.48 125.085C254.574 125.193 255.64 125.584 256.545 126.208L257.532 123.332C257.609 123.109 257.692 122.876 257.867 122.718C258.205 122.415 258.732 122.509 259.165 122.646C260.301 123.007 261.416 123.57 262.166 124.496C262.916 125.423 263.228 126.769 262.704 127.84C262.18 128.911 260.701 129.482 259.699 128.836C259.491 128.702 259.282 128.523 259.073 128.344L259.073 128.344C258.514 127.865 257.956 127.387 257.416 127.77C259.063 129.052 260.194 130.978 260.511 133.041C265.695 125.145 270.823 117.213 275.895 109.245C276.379 108.484 276.77 107.285 275.981 106.848C272.613 104.979 269.636 102.477 266.666 99.98C262.917 96.8286 259.179 93.6869 254.68 91.8419C254.395 91.7248 254.083 91.6115 253.784 91.6902C253.472 91.7726 253.252 92.0447 253.055 92.3015C244.678 103.235 237.16 114.827 230.592 126.934C229.676 128.623 230.902 130.637 232.075 132.159C232.662 132.919 233.793 133.723 234.432 133.006C235.238 132.103 236.559 131.587 237.7 131.99C238.84 132.393 239.55 133.877 238.93 134.916C238.481 135.668 239.36 136.503 240.127 136.923C241.661 137.763 243.234 138.531 244.84 139.223C245.063 139.32 245.323 139.414 245.54 139.305C245.747 139.202 245.831 138.955 245.896 138.733L247.675 132.612C247.967 131.605 248.163 130.299 247.3 129.704L244.845 128.013ZM276.668 110.855C276.432 110.774 276.216 111.011 276.077 111.218L262.757 131.157C262.399 131.693 262.032 132.251 261.928 132.887C261.823 133.524 262.057 134.264 262.636 134.547C263.595 135.017 264.599 134.031 265.215 133.158L277.59 115.618C278.509 114.316 277.731 112.535 276.945 111.149C276.877 111.029 276.798 110.9 276.668 110.855ZM239.165 137.48C238.931 137.309 238.58 137.411 238.384 137.624C238.187 137.838 238.107 138.13 238.033 138.411C237.851 139.101 237.668 139.798 237.641 140.512C237.614 141.225 237.744 141.934 237.873 142.637L239.149 149.57C239.202 149.861 239.265 150.17 239.471 150.381C239.677 150.593 240.079 150.639 240.245 150.395C242.133 147.634 244.048 144.819 245.035 141.624C245.158 141.226 245.194 140.668 244.805 140.521C242.8 139.767 240.897 138.741 239.165 137.48ZM253.896 120.373C253.257 119.764 252.411 119.375 251.533 119.285C250.732 119.204 250.27 120.329 250.636 121.046C251.001 121.763 251.809 122.118 252.556 122.418C253.083 122.629 253.723 122.828 254.183 122.494C254.844 122.015 254.487 120.936 253.896 120.373ZM248.637 128.408C248.897 128.222 248.931 127.843 248.858 127.532C248.583 126.358 247.297 125.758 246.141 125.415C245.694 125.282 245.138 125.189 244.823 125.533C244.56 125.82 244.616 126.295 244.843 126.612C245.07 126.928 245.425 127.123 245.768 127.308L247.552 128.269C247.891 128.452 248.323 128.631 248.637 128.408ZM258.791 124.177C258.413 124.683 258.451 125.419 258.767 125.966C259.082 126.513 259.628 126.893 260.204 127.152C260.401 127.24 260.618 127.318 260.83 127.276C261.013 127.24 261.169 127.116 261.281 126.967C261.693 126.417 261.493 125.587 261.02 125.086C260.548 124.586 259.876 124.335 259.229 124.101C259.118 124.06 258.988 124.021 258.886 124.082C258.847 124.106 258.818 124.141 258.791 124.177ZM79.8213 170.036C80.0684 168.21 80.4146 166.2 81.8493 165.044C82.9932 164.122 84.5637 163.974 86.0327 163.946C90.8451 163.854 95.673 164.635 100.211 166.241C101.646 166.749 103.148 167.418 103.933 168.723C104.783 170.136 104.576 171.917 104.341 173.549L100.696 198.867C103.209 191.535 105.013 183.96 106.075 176.282C106.571 172.701 106.744 168.59 104.244 165.978C100.341 161.899 100.448 156.09 100.556 150.184C100.649 145.086 100.744 139.915 98.2643 135.722C97.4552 134.354 99.2591 132.942 100.759 132.416C107.372 130.101 114.421 129.038 121.423 129.302C122.706 139.442 123.054 149.7 122.459 159.903C122.325 162.192 125.571 162.782 127.849 162.53L206.885 153.766C207.28 153.722 207.708 153.663 207.988 153.381C208.316 153.051 208.332 152.533 208.327 152.069C208.141 133.551 207.608 115.036 206.729 96.5384C206.695 95.8164 206.603 94.9874 206.005 94.581C205.557 94.2762 204.967 94.3166 204.428 94.3689L148.015 99.8375C151.721 82.3587 155.448 64.5519 153.758 46.7646C141.426 54.9869 125.513 54.9253 110.716 54.0546C110.102 54.0184 109.485 53.9816 108.868 53.9447C94.6286 53.0937 79.7795 52.2062 66.9785 58.3658C73.6811 76.1371 80.4606 95.535 74.8891 113.693C74.3962 115.299 73.8097 116.877 73.2234 118.454C72.3196 120.886 71.4164 123.317 70.8578 125.846C69.937 130.017 70.0754 134.687 72.5436 138.172C76.1177 143.22 78.9579 148.959 79.6057 155.11C80.2205 160.947 78.8469 166.735 77.4748 172.518C76.0412 178.559 74.6093 184.593 75.449 190.668C75.591 191.696 75.8476 192.801 76.6522 193.456L79.8213 170.036ZM85.413 96.6893C86.9076 96.7421 87.5017 98.6185 87.6928 100.102L89.2061 111.848C86.2514 110.316 82.0949 112.916 82.1797 116.243C79.69 111.437 79.3117 105.93 78.9373 100.478C78.8558 99.292 78.7745 98.1086 78.6717 96.9357C77.5725 84.3929 73.7924 72.2611 70.0356 60.2438C69.5 58.5302 71.8138 57.4189 73.5902 57.1585C85.2472 55.4494 97.0452 55.6854 108.849 55.9215C114.199 56.0285 119.55 56.1355 124.89 56.0615C134.378 55.9298 144.417 55.0318 152.114 49.4814C153.844 61.0136 151.493 72.6489 149.171 84.1375C148.857 85.6916 148.544 87.243 148.241 88.7911C145.7 101.784 143.97 115.633 148.832 127.946C149.037 128.465 148.338 128.856 147.792 128.97C143.794 129.804 139.659 129.984 135.603 129.5C133.863 129.292 132.142 128.964 130.42 128.636C129.123 128.389 127.826 128.141 126.521 127.946C116.697 126.471 106.442 128.001 97.4756 132.279C97.1162 132.451 96.6888 132.371 96.3125 132.24C94.4966 131.612 93.2012 129.934 92.5548 128.124C91.9085 126.315 91.8159 124.361 91.7297 122.442L91.3681 114.39C91.3551 114.101 91.4308 113.708 91.7203 113.699C107.427 113.209 123.116 112.15 138.746 110.525C138.085 106.827 138.02 103.023 138.553 99.3047C138.889 96.9572 136.682 94.8168 134.331 94.5026C131.98 94.1885 129.656 95.2533 127.704 96.6004C126.974 97.1044 126.272 97.6518 125.572 98.1989C124.399 99.1142 123.228 100.029 121.924 100.737C121.07 101.201 120.044 101.575 119.148 101.201C118.05 100.742 117.683 99.4371 117.354 98.2722C117.334 98.199 117.313 98.1263 117.293 98.0544C116.865 96.5541 116.159 95.061 114.916 94.1175C113.674 93.1739 111.799 92.9388 110.573 93.9032C109.524 94.7278 109.193 96.1556 109.017 97.4778C109.001 97.5954 108.986 97.7136 108.971 97.8323C108.815 99.048 108.654 100.304 107.929 101.279C107.132 102.349 105.355 102.808 104.482 101.8C102.755 99.8062 99.7237 99.3881 97.1803 100.088C94.6368 100.787 92.4605 102.404 90.3503 103.986C89.0773 101.994 88.972 99.3117 90.0849 97.2259L90.1035 97.1911C90.3127 96.7996 90.5531 96.3499 90.3681 95.951C90.2535 95.704 90.0008 95.5525 89.7506 95.4452C88.254 94.8035 86.3419 95.3519 85.413 96.6893ZM130.386 130.357C131.223 130.524 132.251 130.897 132.303 131.749C132.797 139.872 139.252 147.171 147.189 148.969C155.125 150.767 163.921 147.131 168.549 140.437C173.177 133.744 173.539 124.445 169.744 117.246C165.675 109.526 155.785 105.426 147.447 108.002C147.06 106.296 147.103 104.494 147.572 102.809C147.659 102.496 147.773 102.169 148.025 101.964C148.272 101.765 148.606 101.719 148.921 101.682L172.409 98.8524C174.474 98.6037 176.544 98.3547 178.624 98.3375C187.568 98.2638 196.506 97.372 205.288 95.6768C206.652 114.001 207.294 132.379 207.212 150.753C207.208 151.625 206.943 152.783 206.071 152.808C191.289 153.239 176.623 155.184 161.951 157.129C152.094 158.436 142.234 159.743 132.334 160.592C130.128 160.781 127.906 160.947 125.702 160.737C125.302 160.699 124.851 160.618 124.634 160.28C124.503 160.076 124.488 159.822 124.477 159.58L123.159 130.19C123.142 129.81 123.165 129.353 123.494 129.162C123.712 129.035 123.985 129.081 124.232 129.13L130.386 130.357ZM89.9425 123.554C89.7089 125.08 89.4461 126.798 90.4461 127.952C94.1762 132.26 98.0512 136.863 99.0427 142.474C99.5057 145.095 99.3068 147.791 99.1087 150.477C98.8592 153.861 98.611 157.226 99.6884 160.4C99.7165 160.483 99.7455 160.566 99.7746 160.649C99.9726 161.215 100.174 161.792 100.11 162.382C100.037 163.06 99.4485 163.742 98.7768 163.626L90.9789 162.281C88.3965 161.836 85.6683 161.402 83.2154 162.324C82.7411 162.502 82.1952 162.19 81.9411 161.751C81.6869 161.313 81.6535 160.785 81.6315 160.279C81.6049 159.668 81.5849 159.053 81.5649 158.436C81.4389 154.554 81.3106 150.599 79.5138 147.197L73.7808 136.345C72.9345 134.743 72.0684 133.07 72.01 131.259C71.971 130.049 72.2975 128.861 72.6211 127.696L75.4811 117.394C76.0833 115.225 76.7203 112.987 78.1462 111.245C81.6103 117.122 81.9521 124.725 79.0294 130.889C78.759 131.46 79.5849 132.047 80.1737 131.819C80.7625 131.592 81.0614 130.947 81.2689 130.351C82.1003 127.964 82.3919 125.447 82.6838 122.927C82.92 120.888 83.1565 118.846 83.6794 116.869C83.9998 115.658 84.4619 114.421 85.3972 113.588C86.3325 112.754 87.858 112.469 88.8381 113.249C89.5882 113.846 89.832 114.867 89.9747 115.815C90.3511 118.317 90.3494 120.875 89.9696 123.376C89.9606 123.435 89.9516 123.494 89.9425 123.554ZM103.398 103.215C104.547 104.095 105.673 104.956 107.052 104.797C108.805 104.594 109.897 102.789 110.407 101.1C110.518 100.73 110.617 100.351 110.716 99.9722C111.071 98.6184 111.428 97.2541 112.357 96.2355C112.627 95.9395 113.016 95.664 113.399 95.7801C113.71 95.8741 113.891 96.1887 114.035 96.4793C114.239 96.8912 114.433 97.3102 114.626 97.7291C115.172 98.9109 115.718 100.093 116.51 101.12C117.583 102.511 119.253 103.605 120.999 103.413C122.561 103.242 123.781 102.136 124.97 101.059C125.214 100.838 125.457 100.618 125.701 100.408C128.565 97.9375 132.296 96.4924 136.076 96.3882C135.567 97.6628 135.907 99.0529 136.24 100.417C136.321 100.746 136.401 101.073 136.468 101.396C137.002 103.948 136.732 106.662 135.706 109.058L110.453 111.002C104.558 111.456 98.6477 111.911 92.7385 111.703C92.3652 111.69 91.9824 111.672 91.6391 111.525C90.9905 111.247 90.6052 110.555 90.4656 109.863C90.1526 108.313 90.8675 106.698 91.9502 105.545C93.033 104.392 94.4471 103.615 95.8359 102.858C97.2811 102.07 98.8857 101.255 100.497 101.592C101.569 101.816 102.491 102.521 103.398 103.215ZM151.218 140.002C147.392 139.923 144.078 136.802 142.942 133.147C142.71 132.401 143.192 131.583 143.857 131.173C144.523 130.764 145.328 130.667 146.104 130.58L151.71 129.95C150.005 126.637 148.791 123.071 148.119 119.406C148.058 119.074 148.002 118.725 148.108 118.403C148.292 117.839 148.9 117.542 149.462 117.353C154.017 115.823 159.486 117.681 162.164 121.67C164.842 125.659 164.491 131.425 161.347 135.059C159.987 136.632 158.203 137.793 156.325 138.687C154.723 139.449 152.992 140.038 151.218 140.002ZM169.372 120.307C170.053 122.555 170.249 124.919 170.343 127.266C168.814 127.035 167.27 126.903 165.724 126.873C165.422 122.926 162.795 119.359 159.341 117.425C155.887 115.49 151.718 115.072 147.815 115.734C147.782 115.178 147.68 114.597 147.579 114.017C147.311 112.484 147.044 110.952 148.034 109.865C148.633 109.208 149.544 108.945 150.418 108.782C154.397 108.041 158.64 108.818 162.099 110.921C165.557 113.023 168.199 116.433 169.372 120.307ZM141.314 132.749C141.307 132.822 141.301 132.894 141.298 132.962C141.272 133.508 141.526 134.008 141.778 134.503C141.845 134.636 141.913 134.768 141.974 134.901C142.266 135.529 142.407 136.357 141.92 136.849C140.741 138.039 139.698 139.365 138.821 140.792C138.604 141.145 138.069 141.174 137.712 140.964C137.355 140.753 137.134 140.378 136.928 140.018C135.623 137.743 134.286 135.364 134.123 132.746C134.103 132.421 134.138 132.027 134.427 131.875C134.554 131.808 134.704 131.806 134.848 131.806L140.683 131.788C140.823 131.788 140.969 131.789 141.091 131.858C141.377 132.021 141.344 132.399 141.314 132.749Z" fill="#00160A"/>
</svg>
