<svg width="50" height="50" viewBox="0 0 50 50" fill="none" xmlns="http://www.w3.org/2000/svg">
<path d="M28.011 46.4243C16.1787 48.0872 5.23864 39.8433 3.57572 28.011C1.9128 16.1787 10.1567 5.23863 21.989 3.57571C33.8213 1.91279 44.7614 10.1567 46.4243 21.989C48.0872 33.8213 39.8433 44.7614 28.011 46.4243Z" fill="url(#paint0_linear_248_639)"/>
<path d="M28.011 46.4243C16.1787 48.0872 5.23864 39.8433 3.57572 28.011C1.9128 16.1787 10.1567 5.23863 21.989 3.57571C33.8213 1.91279 44.7614 10.1567 46.4243 21.989C48.0872 33.8213 39.8433 44.7614 28.011 46.4243Z" fill="white"/>
<path d="M28.011 46.4243C16.1787 48.0872 5.23864 39.8433 3.57572 28.011C1.9128 16.1787 10.1567 5.23863 21.989 3.57571C33.8213 1.91279 44.7614 10.1567 46.4243 21.989C48.0872 33.8213 39.8433 44.7614 28.011 46.4243Z" stroke="black"/>
<path d="M16.7206 24.8876L22.3176 30.4847L29.6816 23.1206L33.2828 19.5195" stroke="#00160A" stroke-width="2.5"/>
<defs>
<linearGradient id="paint0_linear_248_639" x1="15.4607" y1="7.82947" x2="43.0534" y2="37.7272" gradientUnits="userSpaceOnUse">
<stop stop-color="#FFC83A"/>
<stop offset="0.58187" stop-color="#FF008A"/>
<stop offset="1" stop-color="#853AFF"/>
</linearGradient>
</defs>
</svg>
