<svg width="239" height="208" viewBox="0 0 239 208" fill="none" xmlns="http://www.w3.org/2000/svg">
<path fill-rule="evenodd" clip-rule="evenodd" d="M231.105 114.194C231.571 114.605 231.73 115.248 231.846 115.864L232.555 119.731C232.653 120.268 233.105 120.523 233.278 120.217C233.462 119.893 233.953 120.027 234.282 120.202L238.389 122.388C236.992 123.391 235.343 124.041 233.637 124.261C232.796 124.37 232.66 125.521 232.75 126.365L232.993 128.659C233.069 129.374 231.944 129.617 231.383 129.168C230.821 128.72 230.608 127.969 230.165 127.402C229.45 126.487 228.186 126.146 227.03 126.252C225.873 126.358 224.791 126.843 223.732 127.321C223.05 127.629 222.3 126.813 222.353 126.066C222.4 125.407 222.821 124.855 223.251 124.341L223.423 124.137C223.905 123.564 224.387 122.886 224.306 122.142C224.238 121.522 223.795 121.023 223.352 120.577L223.092 120.317C222.68 119.896 222.29 119.429 222.218 118.853C222.135 118.196 222.735 117.44 223.365 117.643C225.793 118.428 228.716 116.898 229.454 114.456C229.646 113.822 230.608 113.755 231.105 114.194Z" fill="white"/>
<path fill-rule="evenodd" clip-rule="evenodd" d="M231.105 114.194C231.571 114.605 231.73 115.248 231.846 115.864L232.555 119.731C232.653 120.268 232.437 121.1 231.924 120.912C231.193 119.363 230.804 117.653 230.793 115.94C230.514 115.672 230.099 116.07 229.926 116.416L228.193 119.869C227.887 120.477 226.976 120.343 226.375 120.025L226.053 119.854C225.531 119.584 224.962 119.344 224.468 119.611C224.215 120.367 225.338 120.744 225.92 121.288C226.585 121.91 226.546 123.026 226.081 123.808C225.616 124.591 224.83 125.118 224.07 125.619C225.162 125.799 226.327 125.48 227.174 124.769C227.557 124.447 227.908 124.035 228.397 123.933C229.154 123.774 229.834 124.431 230.227 125.097C230.62 125.763 230.931 126.543 231.602 126.927C231.939 126.398 231.759 125.733 231.547 125.121L231.447 124.835C231.204 124.151 231.095 123.244 231.69 122.829C231.914 122.673 232.192 122.627 232.466 122.597L235.395 122.304L233.708 121.074C233.424 120.867 233.105 120.523 233.278 120.217C233.462 119.893 233.953 120.027 234.282 120.202L238.389 122.388C236.992 123.391 235.343 124.041 233.637 124.261C232.796 124.37 232.66 125.521 232.75 126.365L232.993 128.659C233.069 129.374 231.944 129.617 231.383 129.168C230.821 128.72 230.608 127.969 230.165 127.402C229.45 126.487 228.186 126.146 227.03 126.252C225.873 126.358 224.791 126.843 223.732 127.321C223.05 127.629 222.3 126.813 222.353 126.066C222.4 125.407 222.821 124.855 223.251 124.341L223.423 124.137C223.905 123.564 224.387 122.886 224.306 122.142C224.238 121.522 223.795 121.023 223.352 120.577L223.092 120.317C222.68 119.896 222.29 119.429 222.218 118.853C222.135 118.196 222.735 117.44 223.365 117.643C225.793 118.428 228.716 116.898 229.454 114.456C229.646 113.822 230.608 113.755 231.105 114.194Z" fill="#195BFF"/>
<path fill-rule="evenodd" clip-rule="evenodd" d="M69.4991 44.8595C67.7415 37.0483 72.5301 24.0821 81.086 18.8688C89.6418 13.6554 100.586 13.2982 110.115 16.3942C109.811 7.18915 119.146 -0.709774 128.324 0.0507341C137.503 0.811243 145.119 9.05186 146.352 18.179C147.313 25.2906 143.662 33.7616 136.602 35.0497C139.098 43.9659 140.485 53.3471 139.116 62.5041C137.746 71.6611 133.388 80.606 126.034 86.2312C124.004 88.9622 125.537 93.0821 128.21 95.1885C130.883 97.2949 134.343 98.0353 137.541 99.1977C150.943 104.069 160.379 117.291 162.578 131.38C164.778 145.469 160.385 160.08 152.445 171.925C147.007 180.038 139.61 187.243 130.355 190.363C117.364 194.743 103.12 190.479 90.5059 185.111C85.6974 183.064 80.8004 180.739 77.4061 176.765C73.7672 172.506 66.8898 174.806 61.9302 177.412C65.228 178.78 68.5257 180.148 71.8235 181.517C72.5321 181.811 73.3009 182.16 73.6295 182.853C74.3212 184.312 72.6172 185.717 71.1748 186.443C69.6248 187.224 68.0749 188.004 66.5249 188.785C57.0111 193.575 47.1027 198.47 36.4548 198.766C24.8134 199.09 13.8169 193.886 3.33982 188.801C2.17528 188.236 0.940855 187.607 0.30765 186.478C-0.325555 185.349 0.0283905 183.588 1.27984 183.257C13.0333 180.149 24.161 174.693 33.8166 167.306C33.078 162.707 33.252 157.964 34.3258 153.431C34.4811 152.776 34.7044 152.057 35.2886 151.721C36.7248 150.896 37.9723 153.07 38.2261 154.707C38.8666 158.838 39.5072 162.97 40.1477 167.101C47.8392 166.251 55.3041 163.425 61.6314 158.97C56.6964 154.996 51.7614 151.021 46.8264 147.047C43.979 144.754 41.2305 143.382 39.6926 138.892C38.6674 135.898 39.4949 132.823 42.175 129.667C39.1831 114.757 37.874 103.517 38.2477 95.9482C38.3474 93.9278 38.5735 91.7468 39.9334 90.2494C42.3338 87.6061 47.0472 88.7459 49.2382 91.5652C51.4292 94.3845 51.7959 98.168 52.0792 101.727C60.4217 100.708 68.7642 99.6888 77.1067 98.6695C80.159 98.2966 83.3197 97.9323 86.2574 98.8407C89.943 99.9804 92.9031 103.208 93.72 106.979C97.2403 106.027 101.075 104.855 103.063 101.798C105.051 98.7413 103.367 93.4243 99.7237 93.5819C88.3275 94.0751 77.1821 85.6185 74.5883 74.5104C73.9286 71.6853 73.6722 68.5458 71.6889 66.4285C68.5462 63.0733 66.1516 58.7478 66.1669 54.1507C66.1823 49.5535 68.1084 49.005 69.4991 44.8595ZM1.47246 186.337C1.72905 186.72 2.17688 186.921 2.60104 187.102C6.95292 188.965 11.3048 190.827 15.6567 192.69C17.6369 193.537 19.6234 194.387 21.6942 194.979C27.4694 196.632 33.6925 196.229 39.4346 197.993C40.1311 198.207 40.8787 197.986 41.5722 197.763C46.5803 196.149 51.5294 194.353 56.4066 192.379C61.509 190.314 66.5654 188.036 71.0957 184.909C71.5078 184.625 71.9355 184.309 72.1236 183.844C72.3117 183.38 72.1384 182.735 71.6567 182.598C68.5993 181.73 65.5863 180.705 62.6331 179.531C61.6837 179.153 60.6149 178.614 60.4135 177.613C57.8119 177.717 55.5368 179.358 53.6178 181.118C51.6988 182.878 49.8961 184.865 47.5316 185.955C45.167 187.045 41.9934 186.951 40.3554 184.927C40.1804 184.711 40.0047 184.462 39.7357 184.392C39.4667 184.322 39.1211 184.59 39.2465 184.838C39.5713 185.481 38.8737 186.294 38.1548 186.249C37.4359 186.204 36.8738 185.55 36.6969 184.851C36.5199 184.153 35.5593 185.4 34.1672 185.608C32.7751 185.816 31.2982 184.922 30.8358 183.593C30.4547 182.497 28.9605 182.478 27.8188 182.273C25.2228 181.807 23.2514 179.086 23.6165 176.474C16.1557 178.962 8.83024 181.856 1.68311 185.138C1.26384 185.331 1.21587 185.953 1.47246 186.337Z" fill="white"/>
<path d="M106.215 78.8669C108.405 78.8669 110.181 77.091 110.181 74.9003C110.181 72.7095 108.405 70.9336 106.215 70.9336C104.024 70.9336 102.248 72.7095 102.248 74.9003C102.248 77.091 104.024 78.8669 106.215 78.8669Z" fill="#195BFF"/>
<path d="M78.6811 75.6004C79.8409 75.6004 80.7811 74.6602 80.7811 73.5004C80.7811 72.3406 79.8409 71.4004 78.6811 71.4004C77.5213 71.4004 76.5811 72.3406 76.5811 73.5004C76.5811 74.6602 77.5213 75.6004 78.6811 75.6004Z" fill="#195BFF"/>
<path fill-rule="evenodd" clip-rule="evenodd" d="M125.157 90.8198C125.52 92.7053 126.6 94.5318 128.038 95.6646C130.71 97.771 136.719 99.9398 139.917 101.102C140.208 101.208 138.567 102.135 136.449 104.184C130.713 109.733 118.173 119.668 105.921 114.675C104.489 114.092 103.292 113.42 102.316 112.708C101.418 112.052 109.666 112.997 117.377 111.535C125.131 110.065 132.344 106.181 130.413 103.103C128.598 100.209 123.494 95.307 123.096 92.4238C122.566 88.5826 124.844 89.1994 125.157 90.8198Z" fill="#E7EAEE"/>
<path fill-rule="evenodd" clip-rule="evenodd" d="M1.31543 185.245C1.31543 183.707 6.16735 182.462 14.4617 179.342C20.1665 177.196 31.286 170.987 36.7569 170.697C40.3973 170.505 54.9456 175.831 64.4401 179.656C69.2141 181.58 72.8967 182.784 72.8967 183.401C72.8967 184.641 62.7601 190.624 52.4001 194.557C47.3433 196.477 42.599 198.196 38.2481 198.08C24.9831 197.726 1.31543 189.141 1.31543 185.245Z" fill="white"/>
<path fill-rule="evenodd" clip-rule="evenodd" d="M188.713 57.4436C169.691 65.5679 153.8 79.4501 138.66 93.5671L137.734 94.4317C136.85 95.2572 135.51 96.1204 134.557 95.3766L137.499 92.6984C152.892 78.7125 168.808 64.8446 187.854 56.6053C202.497 50.2705 202.342 51.6225 188.713 57.4436ZM106.778 192.769L115.701 202.489C116.138 202.965 116.594 203.476 116.716 204.111C116.838 204.746 116.47 205.521 115.827 205.589L97.4552 207.51C94.4036 207.829 91.2916 205.713 90.4129 202.773C89.5342 199.834 90.9406 196.39 93.5984 194.857C96.2562 193.324 99.9017 193.808 102.108 195.94C102.654 196.468 103.614 196.019 104.002 195.366C104.39 194.712 104.474 193.911 104.875 193.265C105.276 192.619 106.264 192.209 106.778 192.769ZM91.9623 198.379C90.823 200.542 91.5434 203.47 93.4934 204.944C94.449 205.665 95.6221 206.053 96.8044 206.243C98.4744 206.512 100.412 206.309 101.485 205.001C101.877 204.524 102.118 203.939 102.281 203.344C102.827 201.362 102.55 199.167 101.528 197.384C101.25 196.898 100.822 196.392 100.263 196.416C99.9977 196.427 99.7511 196.562 99.4866 196.589C99.0464 196.634 98.639 196.383 98.2379 196.196C96.0224 195.164 93.1015 196.217 91.9623 198.379ZM105.985 194.719C105.634 196.182 104.908 197.553 103.896 198.665C103.611 198.979 103.681 199.463 103.738 199.882C104.02 201.926 103.555 204.065 102.449 205.807C104.261 205.378 106.113 205.121 107.972 205.042C110.522 204.934 113.181 205.138 115.518 204.113C114.27 203.57 113.21 202.603 112.555 201.41C112.169 200.708 111.636 200.101 111.107 199.5L107.044 194.883C106.75 194.55 106.089 194.287 105.985 194.719ZM59.8453 194.631C60.4279 196.451 62.6192 197.074 64.5175 197.402L77.1865 199.517C80.1159 200.006 83.1226 200.495 86.0358 199.917C86.5854 199.808 86.8762 200.681 86.5135 201.108C86.1509 201.535 85.5199 201.586 84.9595 201.588C82.4214 201.596 79.8983 201.259 77.3862 200.882L74.7107 200.474C69.9752 199.746 65.242 198.971 60.6069 197.765C59.8135 197.558 58.9917 197.322 58.3843 196.772C57.777 196.221 57.4611 195.259 57.8885 194.56C58.3159 193.86 59.5952 193.851 59.8453 194.631ZM128.324 0.0507341C137.503 0.811243 145.119 9.05186 146.352 18.179C147.313 25.2906 143.662 33.7616 136.602 35.0497C139.098 43.9659 140.485 53.3471 139.116 62.5041C137.746 71.6611 133.388 80.606 126.034 86.2312C124.004 88.9622 125.537 93.0821 128.21 95.1885C130.883 97.2949 134.343 98.0353 137.541 99.1977C150.943 104.069 160.379 117.291 162.578 131.38C164.778 145.469 160.385 160.08 152.445 171.925C147.007 180.038 139.61 187.243 130.355 190.364C117.494 194.699 103.405 190.563 90.8849 185.271L90.506 185.111C85.7976 183.107 81.0044 180.836 77.6202 177.012L77.4061 176.766C73.7672 172.506 66.8898 174.807 61.9302 177.412L71.8235 181.517C72.5321 181.811 73.3009 182.16 73.6295 182.853C74.3212 184.312 72.6172 185.717 71.1748 186.443L65.3659 189.367C56.2065 193.965 46.671 198.482 36.4548 198.766C24.9488 199.086 14.0727 194.007 3.70551 188.979L3.04762 188.658C1.97372 188.128 0.888088 187.513 0.30765 186.478C-0.325555 185.349 0.0283905 183.588 1.27984 183.257C13.0333 180.149 24.161 174.693 33.8166 167.306C33.078 162.707 33.2521 157.964 34.3258 153.431L34.3805 153.211C34.5352 152.621 34.7694 152.02 35.2886 151.721C36.7248 150.896 37.9723 153.07 38.2261 154.707L40.1477 167.101C47.8392 166.251 55.3041 163.425 61.6314 158.97L46.4285 146.726C43.7065 144.524 40.9507 142.143 39.6926 138.892C38.3732 135.482 39.4347 130.86 42.8443 129.541C43.1134 116.625 42.4326 103.69 40.8092 90.8737C38.5645 103.674 40.3685 116.797 42.175 129.667C39.0775 118.945 37.7362 107.718 38.219 96.5676L38.2477 95.9482C38.3474 93.9279 38.5735 91.7468 39.9334 90.2494C42.3338 87.6061 47.0472 88.746 49.2382 91.5652C51.4292 94.3845 51.7959 98.168 52.0792 101.727L77.6802 98.6001C80.5532 98.2561 83.5033 97.9891 86.2574 98.8407C89.943 99.9804 92.9031 103.208 93.72 106.979L94.3205 106.815C97.6685 105.888 101.187 104.682 103.063 101.798C105.03 98.7738 103.402 93.5372 99.8393 93.5788L99.7237 93.582C88.3275 94.0751 77.1821 85.6185 74.5883 74.5104C73.9286 71.6853 73.6722 68.5459 71.689 66.4285C68.5462 63.0733 66.1516 58.7478 66.167 54.1507C66.1823 49.5535 69.1136 44.8126 73.5775 43.7136C78.0414 42.6146 83.3245 46.339 82.9392 50.92C85.1049 50.6995 87.3202 50.9814 89.3617 51.7372C88.1975 48.5984 91.2152 45.1338 94.5318 44.6782C97.8484 44.2226 101.08 45.8792 103.838 47.7767C106.596 49.6742 109.232 51.908 112.438 52.8698L112.586 52.5277C113.249 50.9804 113.859 49.3279 113.525 47.6922C113.167 45.9353 111.187 44.4159 109.585 45.2203C108.46 41.9971 106.67 39.0076 104.359 36.4941L97.9389 39.5211C97.1117 38.2822 96.6049 36.8312 96.4811 35.3467C92.2418 37.7694 87.6406 39.5573 82.8778 40.6326L83.3652 36.9962L69.1323 44.3889C67.0308 34.5927 72.5301 24.0822 81.086 18.8688C89.6419 13.6554 100.586 13.2982 110.115 16.3942C109.811 7.18915 119.146 -0.709774 128.324 0.0507341ZM198.345 159.717C190.145 161.695 182.185 164.666 174.694 168.544L174.153 168.827C170.002 171.014 165.928 173.634 163.326 177.522C165.083 177.217 166.959 177.675 168.378 178.755C169.274 179.437 170.023 180.46 169.969 181.585C169.942 182.168 169.699 182.725 169.373 183.209C168.096 185.1 165.394 185.868 163.314 184.93C161.234 183.993 160.019 181.46 160.591 179.251C151.767 182.264 144.181 188.746 139.82 196.986L139.674 197.264C139.459 197.679 139.197 198.144 138.741 198.247C138.114 198.388 137.557 197.689 137.585 197.047C137.614 196.405 138.025 195.853 138.423 195.348C143.565 188.819 149.574 182.603 157.264 179.452L157.844 179.219C159.658 178.499 161.557 177.793 162.728 176.258C165.57 172.536 169.661 169.98 173.815 167.818C177.532 165.882 181.378 164.192 185.318 162.763C189.272 161.329 193.315 160.159 197.366 159.025L211.091 155.204C207.379 157.813 202.755 158.652 198.345 159.717ZM23.6165 176.474C16.1557 178.963 8.83024 181.856 1.68311 185.138C1.26384 185.331 1.21587 185.953 1.47246 186.337C1.72905 186.72 2.17688 186.921 2.60104 187.102L15.6567 192.69C17.6369 193.537 19.6234 194.387 21.6943 194.98C27.4694 196.632 33.6925 196.229 39.4346 197.993C40.1311 198.207 40.8787 197.986 41.5722 197.763C46.5803 196.149 51.5295 194.353 56.4066 192.379C61.509 190.314 66.5654 188.036 71.0957 184.909C71.5078 184.625 71.9356 184.309 72.1236 183.844C72.3117 183.38 72.1384 182.735 71.6567 182.598C68.5993 181.73 65.5863 180.705 62.6331 179.531L62.4282 179.447C61.5354 179.074 60.6005 178.543 60.4135 177.613C57.8119 177.717 55.5368 179.358 53.6178 181.118C51.6988 182.878 49.8961 184.865 47.5316 185.955C45.167 187.045 41.9934 186.951 40.3554 184.927L40.2496 184.795C40.1064 184.619 39.9509 184.448 39.7357 184.392C39.4667 184.322 39.1212 184.59 39.2465 184.838C39.5713 185.481 38.8737 186.294 38.1548 186.249C37.4359 186.204 36.8738 185.55 36.6969 184.851C36.5831 184.403 36.5931 183.938 36.6475 183.476L36.6612 183.362C36.3415 184.494 35.3395 185.433 34.1672 185.608C32.7751 185.816 31.2982 184.922 30.8358 183.593C30.4547 182.497 28.9605 182.478 27.8188 182.273C25.2228 181.807 23.2514 179.086 23.6165 176.474ZM41.248 132.874C39.7101 135.61 41.1386 139.072 43.0328 141.574C48.973 149.42 58.9223 153.185 65.7108 160.31C67.4165 162.101 68.9033 164.084 70.3711 166.075L74.9846 172.341C75.8324 173.492 76.6834 174.647 77.6728 175.68C80.2528 178.372 83.6498 180.109 87.0098 181.726C93.8273 185.007 100.841 188.021 108.243 189.587C115.645 191.153 123.509 191.206 130.631 188.652C137.297 186.262 143.04 181.678 147.503 176.18C151.859 170.813 155.056 164.591 157.619 158.169L157.806 157.698C158.175 156.762 158.537 155.782 158.46 154.778C158.379 153.716 157.814 152.751 157.154 151.916C154.637 148.732 150.43 146.931 146.402 147.428C142.437 147.918 138.806 150.67 137.353 154.388L137.286 154.566C134.129 163.123 126.269 169.559 117.438 171.842C108.608 174.126 99.0036 172.49 90.9436 168.221C82.8836 163.951 76.3068 157.193 71.4031 149.503L71.1353 149.078C70.2495 147.656 69.4441 146.16 69.1322 144.52C68.7892 142.716 69.138 140.686 70.4411 139.392C71.3019 138.537 72.5269 138.035 73.153 136.996C73.7791 135.956 73.0439 134.121 71.8888 134.492L71.1182 134.736C65.8094 136.388 59.6503 137.669 55.3792 134.232L54.9688 133.904C52.9761 132.32 50.8466 130.809 48.3709 130.264C45.7244 129.682 42.5759 130.512 41.248 132.874ZM62.4101 160.605C55.9709 164.674 48.7039 167.426 41.185 168.644C40.1923 168.805 39.9256 170.092 39.9099 171.097C39.8603 174.293 40.015 177.492 40.3729 180.668C41.1874 180.285 41.5205 179.326 42.0758 178.618C42.631 177.91 43.8982 177.522 44.3274 178.313C44.6272 178.865 44.227 179.558 43.7161 179.924C43.2052 180.291 42.5768 180.489 42.1212 180.923C40.9876 182.001 41.5801 184.121 42.9612 184.856C44.3423 185.59 46.0893 185.207 47.4134 184.374C48.7375 183.541 49.7605 182.319 50.8832 181.23C53.2844 178.9 56.2215 177.126 59.401 176.084C63.4375 174.762 67.9322 174.565 71.4833 172.235C71.7226 172.078 71.9701 171.894 72.0603 171.622C72.1836 171.252 71.9751 170.867 71.7538 170.537L67.505 164.367C66.8282 163.385 66.0493 162.329 64.8897 162.048C64.3595 161.919 63.7942 161.969 63.2739 161.805C62.7536 161.641 62.2634 161.131 62.4101 160.605ZM32.7463 169.567C31.0897 170.341 30.1094 172.159 29.8912 173.974C29.673 175.789 30.1014 177.617 30.6103 179.373C30.9227 180.451 31.2691 181.526 31.7857 182.522C32.1152 183.157 32.5513 183.791 33.2115 184.067C33.8716 184.343 34.7878 184.095 35.0023 183.412C35.0907 183.131 35.0511 182.827 34.9999 182.536C34.8077 181.445 34.4627 180.382 33.9787 179.385L33.7754 178.981C33.4842 178.398 33.21 177.711 33.5844 177.203C33.9419 176.717 34.8206 176.516 34.7366 175.919L33.9162 170.087C33.8922 169.917 33.8641 169.737 33.7534 169.605C33.5203 169.328 33.0745 169.414 32.7463 169.567ZM164.083 178.562C163.536 178.56 162.96 178.635 162.521 178.961C162.264 179.152 162.07 179.419 161.933 179.708C161.356 180.932 161.889 182.506 162.982 183.303C164.076 184.099 165.592 184.174 166.858 183.697C167.826 183.332 168.758 182.505 168.726 181.47C168.7 180.654 168.08 179.973 167.397 179.526C166.421 178.887 165.249 178.567 164.083 178.562ZM35.8545 153.041C35.7145 153.145 35.6453 153.317 35.5861 153.481C34.7247 155.871 34.6192 158.462 34.643 161.002C34.7026 167.372 35.5209 173.734 37.0752 179.912L37.1524 180.212C37.4701 181.418 37.9045 182.656 38.8884 183.402C39.0714 173.612 38.4362 163.808 36.9917 154.124C36.8979 153.495 36.3645 152.662 35.8545 153.041ZM28.0971 174.082C27.8914 174.14 27.7594 174.336 27.6567 174.523C26.8167 176.056 26.76 177.993 27.5089 179.572C27.8446 180.28 28.4204 180.969 29.1992 181.056C29.5167 180.66 29.3716 180.091 29.1937 179.606L29.0401 179.196C28.4684 177.647 27.9992 175.97 28.5031 174.412C28.5689 174.209 28.3027 174.025 28.0971 174.082ZM25.2947 176.206C24.7056 177.515 24.9681 179.163 25.9349 180.225C26.3339 179.817 26.1584 179.149 26.0221 178.595C25.8088 177.728 25.7607 176.82 25.881 175.935C25.7324 175.717 25.4029 175.965 25.2947 176.206ZM37.7114 129.527C38.6044 130.296 39.1721 131.956 38.1116 132.47C37.4322 132.8 36.6623 132.318 36.0207 131.92C32.6869 129.851 28.4242 129.699 24.6445 130.751C20.8649 131.804 17.4858 133.947 14.3144 136.257C11.1562 138.557 8.11104 141.081 5.73629 144.184C3.36154 147.286 1.68183 151.025 1.54399 154.93C1.37882 159.609 3.4002 164.082 5.73761 168.138C7.22736 170.723 8.90727 173.272 11.2199 175.15L11.6953 175.526C12.3513 176.052 13.0249 176.705 12.8576 177.497C10.5908 177.395 8.94563 175.367 7.69731 173.472C5.92224 170.778 4.30418 167.98 2.85408 165.098C1.64831 162.701 0.546169 160.204 0.179849 157.546C-0.509098 152.548 1.52027 147.465 4.67454 143.527C7.82881 139.589 12.0266 136.633 16.2725 133.907C19.4975 131.836 22.8166 129.85 26.4369 128.592C30.1705 127.294 34.7166 126.948 37.7114 129.527ZM133.525 107.512C128.157 112.523 121.02 115.601 113.691 116.068C110.452 116.274 107.107 115.964 104.176 114.57C101.245 113.175 98.776 110.575 98.0947 107.401L97.8515 107.476C95.73 108.148 93.301 109.362 93.3224 111.549C93.4131 120.821 93.1973 130.096 92.6755 139.355C92.5754 141.131 91.8989 143.463 90.1203 143.411C83.8013 143.225 77.4409 144.684 71.8346 147.606C78.1449 157.502 87.1189 166.154 98.2819 169.779C109.445 173.403 122.908 171.138 130.731 162.388C133.238 159.584 135.084 156.268 136.861 152.946L137.27 152.18C137.648 151.471 138.032 150.629 137.696 149.9C137.482 149.434 137.944 148.95 138.369 148.663C144.611 144.438 153.905 145.584 158.934 151.199C158.536 150.42 158.898 149.346 159.687 148.967C160.314 149.975 160.447 151.275 160.036 152.389C160.308 152.773 160.807 152.155 160.85 151.686C161.52 144.387 161.467 137.022 160.693 129.733C160.413 127.105 160.034 124.461 159.093 121.991C158.269 119.825 157.03 117.839 155.672 115.961C152.548 111.64 148.75 107.807 144.457 104.644L144.145 104.417C143.465 103.929 142.749 103.48 141.944 103.261C138.761 102.395 135.937 105.261 133.525 107.512ZM90.1553 103.313C86.6062 104.507 82.7632 104.278 79.0274 104.536C73.763 104.9 68.5698 106.269 63.8102 108.547C61.7602 109.529 59.7771 110.682 57.6092 111.365C53.005 112.815 47.7272 111.92 43.8587 109.032C43.0247 115.399 43.2707 121.906 44.583 128.191C44.6673 128.595 44.9331 129.112 45.3274 128.99C47.9437 128.187 50.7577 129.324 53.084 130.766C55.4103 132.208 57.5965 134.006 60.2388 134.719C63.3385 135.557 66.6233 134.783 69.6914 133.81L69.9211 133.737C71.4938 133.232 73.5278 132.811 74.5363 134.119C75.3869 135.223 74.8498 136.87 73.9493 137.933C73.0487 138.996 71.8275 139.787 71.0928 140.97C70.1907 142.424 70.1861 144.387 71.0812 145.844C76.9406 143.494 83.2122 142.176 89.5219 141.968C90.7872 141.926 91.231 140.289 91.3088 139.025C91.9902 127.952 92.1994 116.85 91.9356 105.76C91.9075 104.577 91.276 102.936 90.1553 103.313ZM185.022 133.255L185.273 133.381C186.826 134.171 188.48 135.223 188.712 136.925C188.788 137.485 188.692 138.054 188.559 138.604C188.374 139.365 188.093 140.146 187.502 140.658C186.875 141.202 185.994 141.357 185.164 141.324C183.531 141.261 181.896 140.5 180.95 139.167C180.004 137.834 179.852 135.928 180.735 134.552C181.617 133.176 183.557 132.53 185.022 133.255ZM182.599 135.159C181.631 135.563 181.283 136.872 181.687 137.84C182.091 138.808 183.05 139.445 184.047 139.772C185.067 140.106 186.38 140.078 186.988 139.194C187.19 138.9 187.286 138.545 187.342 138.192C187.463 137.424 187.39 136.574 186.895 135.974C186.282 135.231 185.236 135.082 184.259 135.027L184.017 135.014C183.538 134.993 183.041 134.975 182.599 135.159ZM60.3818 115.145C60.5042 115.61 60.4101 116.1 60.3264 116.574C59.7372 119.907 59.6945 123.336 60.1996 126.683L60.2929 127.276C60.3544 127.695 60.3796 128.137 60.1389 128.474C59.8611 128.863 59.0828 128.824 59.0438 128.348C58.7123 124.292 58.4999 120.227 58.407 116.159C58.3892 115.382 58.592 114.349 59.3669 114.289C59.8461 114.252 60.2593 114.68 60.3818 115.145ZM33.111 107.018C33.6841 107.191 34.2346 107.583 34.4007 108.158C34.5668 108.733 34.1888 109.46 33.5915 109.498C33.0348 109.533 32.61 109.026 32.0985 108.803C31.1803 108.404 30.15 108.961 29.3059 109.5L28.8762 109.778C28.0657 110.311 27.2806 110.91 26.8356 111.761C26.3803 112.632 26.3422 113.655 26.3562 114.637C26.366 115.32 26.398 116.013 26.6092 116.663C27.0672 118.072 28.3744 119.128 29.8242 119.433C31.2741 119.739 32.8248 119.343 34.0513 118.511L34.2914 118.348C34.508 118.205 34.735 118.081 34.9898 118.069C35.3401 118.052 35.7235 118.382 35.6044 118.712C35.5687 118.811 35.4954 118.891 35.4221 118.966C33.4173 121.026 29.9555 121.467 27.4986 119.975C27.0603 119.709 26.6517 119.388 26.3205 118.997C25.3249 117.821 25.1391 116.172 25.1118 114.631C25.0969 113.798 25.1176 112.951 25.3545 112.152C25.8666 110.424 27.3137 109.141 28.8178 108.148C30.0948 107.306 31.6459 106.578 33.111 107.018ZM21.5123 103.474L26.5102 109.409C26.2353 109.707 25.7534 109.726 25.3819 109.565C25.0517 109.421 24.7883 109.164 24.5402 108.901L21.6078 105.747C21.2079 108.948 20.2394 112.077 18.761 114.944C18.6171 115.223 19.0248 115.459 19.3371 115.491C20.0999 115.569 20.8712 115.482 21.6233 115.333L22.0109 115.255C22.6183 115.134 23.2412 115.04 23.8074 115.264C24.4949 115.536 24.9192 116.537 24.3678 117.03C24.028 117.334 23.5131 117.296 23.0607 117.24L18.1932 116.638L18.0436 116.616C17.5631 116.538 17.0349 116.349 16.9645 115.886C16.922 115.607 17.0771 115.34 17.2222 115.098C18.9548 112.207 20.109 108.97 20.599 105.636L20.6728 105.107C20.7681 104.458 20.9366 103.753 21.5123 103.474ZM191.793 112.799C192.396 113.226 192.965 114.064 192.498 114.636C192.205 114.994 191.642 115.003 191.221 114.81C190.801 114.618 190.474 114.272 190.112 113.985C188.624 112.81 186.391 112.686 184.783 113.69C184.554 113.833 184.326 114.01 184.233 114.264C184.14 114.517 184.243 114.858 184.502 114.934C186.554 114.064 189.002 114.186 190.958 115.255C191.241 115.409 191.538 115.615 191.607 115.93C191.677 116.244 191.339 116.622 191.058 116.464C189.781 115.749 188.257 115.486 186.815 115.732C186.143 115.846 185.485 116.067 184.803 116.089C184.122 116.111 183.376 115.883 183.014 115.305C182.68 114.772 182.76 114.052 183.085 113.513C183.411 112.974 183.944 112.593 184.503 112.302C186.775 111.12 189.702 111.319 191.793 112.799ZM123.699 83.9437C118.826 88.0403 113.099 91.1167 106.994 92.9205L106.586 93.0389C105.793 93.2651 104.796 93.7671 104.963 94.5744L105.065 95.0753C105.37 96.5815 105.628 98.1154 105.411 99.631C105.177 101.265 104.275 102.901 102.784 103.588L102.647 103.648C99.992 104.741 99.6189 108.707 101.36 110.99C103.101 113.273 106.121 114.158 108.973 114.487C117.344 115.455 126.08 112.649 132.32 106.986C134.584 104.932 136.609 102.474 139.412 101.253L132.404 98.6882C130.513 97.9961 128.598 97.2914 126.952 96.1317C125.307 94.9719 123.934 93.2834 123.598 91.2985C123.186 88.8671 124.352 86.3219 123.699 83.9437ZM42.859 90.5173C42.6832 90.5954 42.5036 90.6993 42.419 90.8722C42.3343 91.0452 42.3629 91.2498 42.3928 91.4401L43.9984 101.562C44.4716 104.544 45.1364 107.85 47.5963 109.601C50.291 111.52 53.9915 110.768 57.1294 109.673L57.297 109.614C63.138 107.539 68.7595 104.651 74.8814 103.68C79.2767 102.982 83.886 103.281 88.0422 101.69C86.5221 99.3951 83.2285 99.4072 80.4734 99.7082L57.965 102.266C56.2213 102.464 54.3897 102.696 52.9736 103.732C52.354 104.186 51.7673 104.809 51.0001 104.841C50.2536 104.871 49.6047 103.784 50.1898 103.384L50.2414 103.353C50.883 103 50.8398 102.079 50.7085 101.358L50.0277 97.6255C49.6835 95.774 49.2632 93.8898 48.1555 92.3782C46.9591 90.7457 44.7086 89.6954 42.859 90.5173ZM198.249 105.645C198.791 106.277 198.814 107.247 198.453 107.997C198.091 108.748 197.406 109.299 196.665 109.68C195.771 110.138 194.786 110.378 193.799 110.582L193.306 110.682C193.113 110.721 192.909 110.759 192.722 110.697C192.566 110.645 192.441 110.529 192.338 110.4C191.829 109.762 191.848 108.82 192.192 108.08C192.536 107.34 193.152 106.765 193.786 106.25C194.433 105.723 195.137 105.227 195.949 105.035C196.761 104.842 197.705 105.012 198.249 105.645ZM195.587 106.756L195.327 106.93C194.939 107.197 194.565 107.487 194.304 107.875C193.985 108.35 193.874 109.011 194.189 109.488L196.276 108.327C196.616 108.137 196.969 107.937 197.189 107.617C197.41 107.296 197.454 106.818 197.181 106.541C196.772 106.124 196.074 106.432 195.587 106.756ZM162.284 83.9069C162.43 83.966 162.528 84.0979 162.613 84.2327L165.672 89.2285C166.219 90.1214 167.462 90.2208 168.507 90.1473C170.508 90.0063 172.49 89.5979 174.384 88.9361C174.702 88.8251 175.003 89.2294 174.934 89.5589C174.866 89.8884 174.583 90.123 174.317 90.3299L169.723 93.9107C169.159 93.8707 169.319 92.9473 169.777 92.6149L169.912 92.5205C170.353 92.223 170.888 91.9291 170.86 91.4182L168.205 92.2476C167.699 92.406 167.135 92.5616 166.653 92.339C166.332 92.1911 166.108 91.9008 165.905 91.6086L162.532 86.6855L162.474 90.9966C162.469 91.35 162.454 91.7335 162.23 92.0067C162.07 92.2007 161.832 92.3048 161.594 92.3926L156.94 94.0624C158.183 95.3052 160.509 93.9976 161.997 94.9341C163.016 95.5757 163.19 97.0054 162.97 98.1893C162.75 99.3732 162.246 100.525 162.312 101.727C163.161 101.111 163.784 100.191 164.042 99.1741C164.146 98.7642 164.197 98.3279 164.425 97.9718C165.054 96.9902 166.556 97.1898 167.597 97.7148C168.637 98.2399 169.717 98.9958 170.856 98.7461L169.204 96.1047C169.053 95.8637 168.897 95.6028 168.91 95.3188C168.924 95.0349 169.193 94.7478 169.465 94.8303C169.585 94.8664 169.673 94.9608 169.752 95.0595L173.438 99.837C172.143 100.69 170.436 100.153 168.941 99.7409L168.719 99.6829C167.261 99.322 165.482 99.2862 164.677 100.522C164.109 101.393 163.443 102.199 162.696 102.921C162.381 103.226 162.021 103.529 161.586 103.579C161.151 103.628 160.651 103.298 160.69 102.862L161.118 98.0313C161.146 97.7185 161.167 97.3781 160.993 97.1169C160.809 96.8418 160.463 96.7348 160.145 96.6467L156.118 95.5348C155.243 95.293 155.236 93.9303 155.893 93.303C156.55 92.6757 157.517 92.5441 158.392 92.3014C159.267 92.0587 160.213 91.5435 160.371 90.6492L161.393 84.8614C161.48 84.3665 161.818 83.7184 162.284 83.9069ZM53.9557 2.30521L53.2122 2.90947C48.2577 6.94695 43.3756 11.1797 39.7419 16.4281C35.9266 21.939 33.5843 28.7726 34.7202 35.3784C36.3754 45.0046 44.9858 52.6708 45.354 62.4314C45.4029 63.7279 46.7232 64.5348 47.8277 65.2156C52.1869 67.902 55.4172 72.1658 57.5488 76.8216C59.6138 81.3319 60.7163 86.2191 61.5179 91.1172L61.5946 91.5912C61.714 92.3381 61.8012 93.1882 61.3193 93.7713C60.8375 94.3543 59.5987 94.1501 59.6467 93.3953C60.2122 84.5207 56.9869 75.467 50.9378 68.9488C49.3665 67.2555 47.5411 65.6859 45.3282 65.0229C45.1873 68.4412 44.0364 71.9246 41.6 74.3264C39.1637 76.7282 35.3202 77.8255 32.1661 76.5001C29.0121 75.1747 27.0826 71.1728 28.502 68.0599C29.6912 65.4523 32.6443 64.1349 35.456 63.5798C38.2148 63.0351 41.0747 63.0067 43.8438 63.4965C44.2163 63.5624 44.3787 63.0416 44.3712 62.6633C44.171 52.5178 34.7929 44.5748 33.5619 34.5023C32.8891 28.9976 34.7673 23.4564 37.4929 18.6268C41.0724 12.2845 46.1644 6.80259 52.2259 2.76582L52.3846 2.66286C52.8701 2.35723 53.4361 2.09657 53.9557 2.30521ZM84.834 53.9783C83.4769 54.8512 83.5117 56.7884 83.3995 58.398C83.2455 60.6059 82.4864 62.8159 81.0058 64.4611C79.5253 66.1064 77.276 67.117 75.0799 66.8408C74.5118 66.7694 74.3391 67.5914 74.4136 68.1592C75.6903 77.8898 81.593 87.4431 90.7677 90.9273C96.3766 93.0574 102.712 92.7744 108.431 90.9588C114.013 89.1864 119.066 86.0342 123.683 82.4259L124.02 82.1611C124.69 81.6323 125.363 81.0813 125.828 80.3661C126.3 79.6408 126.533 78.7829 126.646 77.9249C127.251 73.3287 124.18 68.5194 119.755 67.1361C119.234 66.9733 119.355 66.1284 119.812 65.8303C120.269 65.5321 120.857 65.5523 121.379 65.3929C122.793 64.9609 123.443 63.351 123.765 61.9086C124.209 59.9267 124.333 57.6665 123.105 56.0491C121.445 53.8633 118.218 53.8661 115.481 54.0756L111.04 54.4155C109.508 54.5328 107.535 55.073 107.463 56.6084C107.308 59.9152 105.852 63.2093 103.278 65.2915C100.704 67.3737 96.998 68.0937 93.9427 66.819C90.936 65.5647 88.8118 62.2915 89.1592 59.0599L89.1779 58.9035C89.3589 57.5365 89.2592 56.0521 88.4584 54.9295C87.6575 53.807 85.9937 53.2323 84.834 53.9783ZM121.51 2.30314C119.53 2.86604 117.628 3.77394 116.065 5.11337C113.881 6.98527 112.428 9.69024 112.075 12.5453C111.95 13.5569 112.151 14.8616 113.133 15.1334C115.533 15.7973 117.681 17.3368 119.08 19.3966C116.811 18.0465 114.324 17.0641 111.744 16.4993L122.646 22.668C123.278 23.0255 123.934 23.4053 124.332 24.013C124.729 24.6206 124.771 25.5275 124.225 26.0062L123.462 25.4131C121.552 23.9349 119.6 22.5019 117.462 21.3832C115.837 20.5326 114.121 19.8726 112.396 19.2439L111.455 18.9031C108.262 17.7511 105.04 16.5917 101.676 16.1314C98.5545 15.7042 95.3496 15.8939 92.3 16.6864L91.6986 16.8405C87.579 17.883 83.2836 18.7353 79.8778 21.2541C77.8518 22.7524 76.2652 24.7581 74.7588 26.778L74.4034 27.2601C71.4104 31.3695 68.6754 36.4359 70.4266 41.1508C78.4665 40.1604 84.7299 33.9398 92.0132 30.3938C92.5699 30.1228 93.4879 30.0398 93.5725 30.6532L85.4227 35.4692C85.6489 36.7128 85.4351 38.032 84.8276 39.1405C90.7821 37.458 96.3489 34.4198 100.987 30.3246L101.282 30.0618C102.018 29.3994 103.435 28.8514 103.749 29.7904L103.35 30.0131C101.887 30.8358 100.432 31.7357 99.4242 33.0679C98.3244 34.5212 97.8865 36.634 98.8614 38.1739L109.15 32.1161C109.568 31.87 110.024 31.6151 110.506 31.6657C110.988 31.7164 111.44 32.2359 111.232 32.6738L110.882 32.7468C109.772 32.9827 108.646 33.2783 107.781 34.0017C106.825 34.8012 106.33 36.3001 107.04 37.324C108.314 39.1605 109.348 41.1634 110.107 43.2656C110.123 42.3464 111.376 41.8762 112.203 42.2798C113.029 42.6835 113.466 43.5944 113.765 44.4638C114.621 46.9506 114.848 49.6516 114.417 52.2463C117.004 53.1598 120.038 52.0807 122.527 53.2363C124.837 54.3088 125.967 57.0909 125.806 59.6326C125.646 62.1743 124.445 64.5244 123.162 66.7247C126.747 69.5017 128.662 74.2853 127.983 78.7686C128.609 78.6667 129.137 78.1273 129.225 77.5003L130.647 78.3973C128.423 79.6541 126.841 81.9865 126.496 84.5172C136.265 75.3754 139.508 60.8867 138.099 47.5817L138.044 47.0855C137.485 42.281 136.156 37.2729 132.543 34.0904C134.48 32.9735 136.965 33.4128 139.037 32.5741C140.996 31.7817 142.342 29.9449 143.251 28.0378C146.29 21.6621 145.244 13.55 140.686 8.15448C136.127 2.75898 128.304 0.371725 121.51 2.30314ZM89.5741 82.2628C89.8823 82.3138 90.2319 82.4179 90.3526 82.706C90.5453 83.166 90.0053 83.5865 89.5379 83.7606C88.8594 84.0134 88.147 84.1752 87.4259 84.2405C86.8208 84.2952 86.0574 84.1784 85.8703 83.6004C85.7472 83.2203 85.9609 82.7933 86.2844 82.5589C86.6079 82.3245 87.017 82.2454 87.4141 82.2024C88.1324 82.1245 88.8613 82.145 89.5741 82.2628ZM78.523 75.6696C80.6491 78.1681 83.975 79.4912 87.2556 79.5171C90.5362 79.5429 93.7548 78.3569 96.4783 76.5279L96.7074 76.3741C97.0534 76.1442 97.4122 75.9283 97.8179 75.8577C98.3138 75.7714 98.9033 75.9795 99.0719 76.4538C96.2233 78.8732 92.6523 80.471 88.9301 80.8088C85.208 81.1466 81.3526 80.1916 78.3154 78.0134C77.7675 77.6204 77.2011 77.1033 77.1785 76.4294C77.1558 75.7555 78.086 75.1561 78.523 75.6696ZM33.9605 65.0864C32.4821 65.5581 30.9943 66.2492 30.0617 67.4894C28.6762 69.3316 28.9185 72.1269 30.4148 73.8803C31.9112 75.6337 34.4416 76.3337 36.6991 75.8676C38.9566 75.4016 40.9165 73.8785 42.1851 71.9539C43.4537 70.0293 44.0748 67.7316 44.263 65.4342C44.2945 65.0491 44.2246 64.5393 43.8447 64.4686C40.5661 63.8586 37.1375 64.0729 33.9605 65.0864ZM86.346 56.1095C86.4077 56.6394 86.2026 57.1593 86.0142 57.6583C84.9496 60.4784 84.3015 63.4552 84.0976 66.4626C84.0645 66.9498 84.0457 67.4549 84.2243 67.9094C84.393 68.3385 84.7846 68.7119 85.2386 68.7375L85.3194 68.7383C85.7327 68.7237 85.9288 69.3398 85.6688 69.6614C85.4088 69.9831 84.921 70.0191 84.5247 69.9011C83.7108 69.6589 83.1274 68.9013 82.8912 68.0856C82.655 67.27 82.7155 66.3991 82.8337 65.5582C83.2346 62.7073 84.2755 59.9431 84.3265 57.0645C84.3409 56.2522 84.5069 55.1572 85.3168 55.0926C85.8486 55.0501 86.2843 55.5796 86.346 56.1095ZM96.4625 46.4877C94.7718 46.8356 93.481 48.2225 92.6042 49.7094C90.808 52.7554 90.2962 56.5322 91.217 59.9465C91.6305 61.4795 92.3373 62.9612 93.4463 64.0976C94.5552 65.2339 96.0959 65.9967 97.6835 65.9704C98.7916 65.9521 99.8672 65.5588 100.83 65.0096C104.044 63.1756 106.087 59.4587 105.911 55.7619C105.735 52.0652 103.35 48.5587 99.9758 47.0377C98.877 46.5425 97.643 46.2448 96.4625 46.4877ZM73.1281 44.9721C70.1073 46.0912 68.1571 49.2284 67.7415 52.423C67.3259 55.6176 68.2219 58.8491 69.4992 61.8066C69.8431 62.6031 70.2342 63.4129 70.8946 63.9756C71.555 64.5382 72.555 64.7904 73.3054 64.355C73.6547 64.1523 73.9811 64.6262 74.2462 64.931C74.7743 65.538 75.7035 65.5898 76.4925 65.4321C79.0921 64.9126 81.0898 62.6409 81.8984 60.1163C82.6801 57.6759 82.5133 55.0343 82.0514 52.509L82.0026 52.2481C81.5155 49.7013 80.4149 46.8391 77.9353 46.0807C76.6352 45.683 75.0668 45.9154 74.0618 44.9997C73.8192 44.7787 73.4359 44.8581 73.1281 44.9721ZM121.135 55.7707C122.156 56.9029 121.738 58.6611 121.227 60.1138L121.186 60.2309C120.981 60.8006 120.769 61.3837 120.378 61.8457C119.987 62.3077 119.373 62.6304 118.78 62.507C118.188 62.3837 117.726 61.6965 117.975 61.1448C118.284 60.46 119.334 60.4251 119.713 59.7764L118.689 59.6798C117.999 59.6147 117.257 59.5271 116.746 59.0593C116.235 58.5915 116.171 57.6016 116.792 57.2951C117.223 57.0826 117.741 57.2908 118.14 57.5586C118.538 57.8264 118.92 58.1654 119.394 58.2384C119.869 58.3113 120.446 57.9385 120.348 57.4685C120.212 56.8142 120.547 56.0898 121.135 55.7707ZM97.7625 60.1905C97.8435 60.6406 97.8732 61.1181 97.7047 61.5433C97.5363 61.9685 97.1256 62.3242 96.6687 62.3052C95.961 62.2757 95.582 61.4607 95.4584 60.7633C95.3057 59.9016 95.5443 58.7157 96.417 58.6515C97.1639 58.5966 97.6299 59.4535 97.7625 60.1905ZM75.9583 58.3614C76.3108 58.8751 76.261 59.5615 76.1209 60.1686C75.9417 60.9454 75.4912 61.812 74.6982 61.8931C73.9821 61.9664 73.3706 61.3256 73.1364 60.6449C72.8506 59.8143 72.9894 58.7994 73.6379 58.2068C74.2865 57.6143 75.4613 57.637 75.9583 58.3614ZM76.6184 49.5945C76.9349 49.74 77.158 50.1388 76.9978 50.4481L76.6917 50.5285C74.9489 50.9935 73.091 51.6407 72.2586 53.2164C72.0592 53.5941 71.9298 54.0108 71.6814 54.3582C71.4329 54.7056 71.0141 54.9817 70.5962 54.8937C70.1199 54.7935 69.8444 54.2453 69.8952 53.7613C69.9461 53.2772 70.2406 52.8552 70.5561 52.4846C71.839 50.9773 73.6469 49.9257 75.5914 49.5558C75.9336 49.4907 76.3019 49.449 76.6184 49.5945ZM98.8921 50.4648C99.4132 50.8847 99.8092 51.4443 100.336 51.8573C100.781 52.2063 101.343 52.4822 101.545 53.0103C101.747 53.5384 101.139 54.2841 100.698 53.9306C99.5458 53.0074 98.2669 52.2426 96.9085 51.6645C96.2927 51.4024 96.4325 50.3662 97.0332 50.0712C97.6339 49.7761 98.3709 50.0448 98.8921 50.4648ZM92.4373 47.1532C91.3018 47.5275 90.4949 48.7224 90.572 49.9155C91.0062 49.6933 91.3371 49.278 91.4567 48.805L91.4396 48.7572C91.9437 48.3589 92.3029 47.7813 92.4373 47.1532Z" fill="#00160A"/>
<path fill-rule="evenodd" clip-rule="evenodd" d="M28.4531 190.151C28.9099 190.155 29.3301 190.367 29.7292 190.6L29.9449 190.728C32.3914 192.193 34.9729 193.432 37.6461 194.424C38.0134 194.56 37.8993 195.177 37.5412 195.336C37.1832 195.495 36.7699 195.353 36.4048 195.211L28.5103 192.14C28.0051 191.943 27.4187 191.644 27.3744 191.103C27.3303 190.565 27.9132 190.147 28.4531 190.151Z" fill="#E7EAEE"/>
<path fill-rule="evenodd" clip-rule="evenodd" d="M15.8672 181.551L40.2888 190.214L40.4423 190.271C41.0877 190.523 41.7858 190.955 41.7168 191.621C41.6607 192.165 41.0596 192.515 40.514 192.496C40.0522 192.481 39.6257 192.276 39.2177 192.05L38.9969 191.925C35.5917 189.994 32.0191 188.401 28.355 187.024C24.2045 185.465 19.9366 184.184 15.6618 183.004C15.0081 182.824 14.1797 182.24 14.5546 181.675C14.8175 181.278 15.4189 181.392 15.8672 181.551Z" fill="#E7EAEE"/>
</svg>
